<svg xmlns="http://www.w3.org/2000/svg">
<defs>
<font id="FrutigerLTArabic-75Black" horiz-adv-x="1251" >
  <font-face 
    font-family="Frutiger LT Arabic 75 Black"
    font-weight="800"
    font-stretch="normal"
    units-per-em="2048"
    panose-1="1 0 0 0 0 0 0 0 0 0"
    ascent="1577"
    descent="-471"
    x-height="1067"
    cap-height="1430"
    bbox="-498 -1121 3253 2786"
    underline-thickness="50"
    underline-position="-75"
    unicode-range="U+000D-U+FEFC"
  />
<missing-glyph horiz-adv-x="1021" 
d="M443 234v133h111v-133h-111zM449 466l-4.00098 34c0 72.667 8.33301 126.667 25 162c18.667 35.333 49.667 74.666 93 117.999c42.667 42 69.334 73.333 80.001 94c12.667 22.667 19 46.334 19 71.001c0 48 -15 88 -45 120c-30 33.333 -65.667 50 -107 50
c-20.667 0 -40 -3.5 -58 -10.5s-34.167 -18.167 -48.5 -33.5s-26.333 -35 -36 -59s-16.5 -53 -20.5 -87l-100 16c8.66699 94 38 163 88 207s110.333 66 181 66c70 0 128.667 -24 176 -72c47.333 -47.333 71 -110.333 71 -189c0 -41.333 -8.33301 -80.333 -25 -117
c-17.333 -36 -50.666 -76.667 -99.999 -122c-48.667 -43.333 -77.334 -78 -86.001 -104c-8 -25.333 -12 -73.333 -12 -144h-91zM920.999 99v1231h-822v-1231h822zM1021 1431v-1431h-1021v1431h1021z" />
    <glyph glyph-name="uniFEF5" unicode="&#xfedf;&#xfe82;" horiz-adv-x="1618" arabic-form="isolated" 
d="M1468 1440v-1440h-1348v285h363v732h360v-732h263v1155h362zM83 1390c23.333 30.667 46.832 56 70.499 76s46.667 35.667 69 47s43.166 19.333 62.499 24s36.333 7 51 7c16 0 33 -2.16699 51 -6.5s36.833 -10 56.5 -17s39.5 -14.833 59.5 -23.5l59 -26l56 -25
c18.667 -8 36.667 -15.167 54 -21.5s34 -11.5 50 -15.5s30.333 -6 43 -6c37.333 0 69.333 9.16699 96 27.5s47 42.833 61 73.5l133 -74c-27.333 -47.333 -53.333 -84.666 -78 -111.999s-48.667 -48.333 -72 -63s-46.666 -24 -69.999 -28s-47.333 -6 -72 -6
c-45.333 0 -88.166 8.16699 -128.499 24.5s-78.5 33.5 -114.5 51.5c-34 17.333 -66.5 32 -97.5 44s-60.5 18 -88.5 18c-19.333 0 -42.333 -5.83301 -69 -17.5s-51 -29.834 -73 -54.501z" />
    <glyph glyph-name="uniFEF6" unicode="&#xfee0;&#xfe82;" horiz-adv-x="1695" arabic-form="final" 
d="M1454 363l0.000976562 -11.999c0 -4 -0.333008 -7.66699 -1 -11c36 -20.667 74.833 -35 116.5 -43s81.5 -12 119.5 -12h5c16 0 28.333 -2.16699 37 -6.5s15.334 -11 20.001 -20s7.5 -20.833 8.5 -35.5s1.5 -32 1.5 -52v-53c0 -26 -1.16699 -46.833 -3.5 -62.5
s-6 -27.5 -11 -35.5s-11.833 -13.333 -20.5 -16s-19.334 -4 -32.001 -4h-8c-50.667 0 -102.334 10.667 -155.001 32s-101 51.333 -145 90c-26 -36.667 -61.5 -66.167 -106.5 -88.5s-102.167 -33.5 -171.5 -33.5h-988v285h335v732h360v-732h201c27.333 0 47 6.66699 59 20
s18 38.666 18 75.999v1059h361v-1077zM55.001 1390c23.333 30.667 46.832 56 70.499 76s46.667 35.667 69 47s43.166 19.333 62.499 24s36.333 7 51 7c16 0 33 -2.16699 51 -6.5s36.833 -10 56.5 -17s39.5 -14.833 59.5 -23.5l59 -26l56 -25
c18.667 -8 36.667 -15.167 54 -21.5s34 -11.5 50 -15.5s30.333 -6 43 -6c37.333 0 69.333 9.16699 96 27.5s47 42.833 61 73.5l133 -74c-27.333 -47.333 -53.333 -84.666 -78 -111.999s-48.667 -48.333 -72 -63s-46.666 -24 -69.999 -28s-47.333 -6 -72 -6
c-45.333 0 -88.166 8.16699 -128.499 24.5s-78.5 33.5 -114.5 51.5c-34 17.333 -66.5 32 -97.5 44s-60.5 18 -88.5 18c-19.333 0 -42.333 -5.83301 -69 -17.5s-51 -29.834 -73 -54.501z" />
    <glyph glyph-name="uniFEF7" unicode="&#xfedf;&#xfe84;" horiz-adv-x="1618" arabic-form="isolated" 
d="M1468 1440v-1440h-1348v285h363v732h360v-732h263v1155h362zM854 1495c-15.333 5.33301 -30.999 8.99805 -46.999 10.998s-31.667 3 -47 3c-24 0 -42.833 -4.66699 -56.5 -14s-20.5 -20.333 -20.5 -33c0 -11.333 3.33301 -20.833 10 -28.5s15.167 -14 25.5 -19
s21.833 -8.66699 34.5 -11s25 -3.5 37 -3.5h87v-159h-424v159h67c-15.333 26.667 -23 51.334 -23 74.001c0 32.667 6.5 61 19.5 85s30.167 43.833 51.5 59.5s45.166 27.334 71.499 35.001s53.166 11.5 80.499 11.5c8.66699 0 17.667 -0.166992 27 -0.5
s19.833 -0.833008 31.5 -1.5s24.834 -2 39.501 -4l51 -7z" />
    <glyph glyph-name="uniFEF8" unicode="&#xfee0;&#xfe84;" horiz-adv-x="1695" arabic-form="final" 
d="M1454 363l0.000976562 -11.999c0 -4 -0.333008 -7.66699 -1 -11c36 -20.667 74.833 -35 116.5 -43s81.5 -12 119.5 -12h5c16 0 28.333 -2.16699 37 -6.5s15.334 -11 20.001 -20s7.5 -20.833 8.5 -35.5s1.5 -32 1.5 -52v-53c0 -26 -1.16699 -46.833 -3.5 -62.5
s-6 -27.5 -11 -35.5s-11.833 -13.333 -20.5 -16s-19.334 -4 -32.001 -4h-8c-50.667 0 -102.334 10.667 -155.001 32s-101 51.333 -145 90c-26 -36.667 -61.5 -66.167 -106.5 -88.5s-102.167 -33.5 -171.5 -33.5h-988v285h335v732h360v-732h201c27.333 0 47 6.66699 59 20
s18 38.666 18 75.999v1059h361v-1077zM826.001 1495c-15.333 5.33301 -30.999 8.99805 -46.999 10.998s-31.667 3 -47 3c-24 0 -42.833 -4.66699 -56.5 -14s-20.5 -20.333 -20.5 -33c0 -11.333 3.33301 -20.833 10 -28.5s15.167 -14 25.5 -19s21.833 -8.66699 34.5 -11
s25 -3.5 37 -3.5h87v-159h-424v159h67c-15.333 26.667 -23 51.334 -23 74.001c0 32.667 6.5 61 19.5 85s30.167 43.833 51.5 59.5s45.166 27.334 71.499 35.001s53.166 11.5 80.499 11.5c8.66699 0 17.667 -0.166992 27 -0.5s19.833 -0.833008 31.5 -1.5
s24.834 -2 39.501 -4l51 -7z" />
    <glyph glyph-name="uniFEF9" unicode="&#xfedf;&#xfe88;" horiz-adv-x="1618" arabic-form="isolated" 
d="M1468 1440v-1440h-1348v285h363v732h360v-732h263v1155h362zM833 -347c-15.333 5.33301 -30.999 8.83301 -46.999 10.5s-31.667 2.5 -47 2.5c-24 0 -42.833 -4.5 -56.5 -13.5s-20.5 -20.167 -20.5 -33.5c0 -11.333 3.33301 -20.833 10 -28.5s15.167 -14 25.5 -19
s21.833 -8.5 34.5 -10.5s25 -3 37 -3h87v-160h-424v160h67c-15.333 25.333 -23 49.666 -23 72.999c0 32.667 6.5 61 19.5 85s30.167 43.833 51.5 59.5s45.166 27.334 71.499 35.001s53.166 11.5 80.499 11.5c8.66699 0 17.667 -0.166992 27 -0.5s19.833 -0.833008 31.5 -1.5
s24.834 -2 39.501 -4l51 -7z" />
    <glyph glyph-name="uniFEFA" unicode="&#xfee0;&#xfe88;" horiz-adv-x="1695" arabic-form="final" 
d="M1454 363l0.000976562 -11.999c0 -4 -0.333008 -7.66699 -1 -11c36 -20.667 74.833 -35 116.5 -43s81.5 -12 119.5 -12h5c16 0 28.333 -2.16699 37 -6.5s15.334 -11 20.001 -20s7.5 -20.833 8.5 -35.5s1.5 -32 1.5 -52v-53c0 -26 -1.16699 -46.833 -3.5 -62.5
s-6 -27.5 -11 -35.5s-11.833 -13.333 -20.5 -16s-19.334 -4 -32.001 -4h-8c-50.667 0 -102.334 10.667 -155.001 32s-101 51.333 -145 90c-26 -36.667 -61.5 -66.167 -106.5 -88.5s-102.167 -33.5 -171.5 -33.5h-988v285h335v732h360v-732h201c27.333 0 47 6.66699 59 20
s18 38.666 18 75.999v1059h361v-1077zM805.001 -346.999c-15.333 5.33301 -30.999 8.83301 -46.999 10.5s-31.667 2.5 -47 2.5c-24 0 -42.833 -4.5 -56.5 -13.5s-20.5 -20.167 -20.5 -33.5c0 -11.333 3.33301 -20.833 10 -28.5s15.167 -14 25.5 -19s21.833 -8.5 34.5 -10.5
s25 -3 37 -3h87v-160h-424v160h67c-15.333 25.333 -23 49.666 -23 72.999c0 32.667 6.5 61 19.5 85s30.167 43.833 51.5 59.5s45.166 27.334 71.499 35.001s53.166 11.5 80.499 11.5c8.66699 0 17.667 -0.166992 27 -0.5s19.833 -0.833008 31.5 -1.5s24.834 -2 39.501 -4
l51 -7z" />
    <glyph glyph-name="uniFEFB" unicode="&#xfedf;&#xfe8e;" horiz-adv-x="1618" arabic-form="isolated" 
d="M1468 1440v-1440h-1348v285h363v732h360v-732h263v1155h362z" />
    <glyph glyph-name="uniFEFC" unicode="&#xfee0;&#xfe8e;" horiz-adv-x="1695" arabic-form="final" 
d="M1454 363l0.000976562 -11.999c0 -4 -0.333008 -7.66699 -1 -11c36 -20.667 74.833 -35 116.5 -43s81.5 -12 119.5 -12h5c16 0 28.333 -2.16699 37 -6.5s15.334 -11 20.001 -20s7.5 -20.833 8.5 -35.5s1.5 -32 1.5 -52v-53c0 -26 -1.16699 -46.833 -3.5 -62.5
s-6 -27.5 -11 -35.5s-11.833 -13.333 -20.5 -16s-19.334 -4 -32.001 -4h-8c-50.667 0 -102.334 10.667 -155.001 32s-101 51.333 -145 90c-26 -36.667 -61.5 -66.167 -106.5 -88.5s-102.167 -33.5 -171.5 -33.5h-988v285h335v732h360v-732h201c27.333 0 47 6.66699 59 20
s18 38.666 18 75.999v1059h361v-1077z" />
    <glyph glyph-name="uni06440671" unicode="&#xfedf;&#xfb51;" horiz-adv-x="1618" 
d="M1468 1440v-1440h-1348v285h363v732h360v-732h263v1155h362zM341 1186l-0.000976562 132.003h86v226h131v-45c18.667 14 37.334 25.167 56.001 33.5s36.167 14.666 52.5 18.999s31.5 7.16602 45.5 8.49902s26 2 36 2c29.333 0 56.166 -4.33301 80.499 -13
s45.333 -21.667 63 -39s31.334 -38.833 41.001 -64.5s14.5 -55.834 14.5 -90.501v-169h-606zM786.999 1357c0 35.333 -7.66797 59.667 -23.001 73s-35 20 -59 20c-13.333 0 -27.666 -3.66699 -42.999 -11s-29.5 -17 -42.5 -29s-23.667 -25.833 -32 -41.5
s-12.5 -32.167 -12.5 -49.5h212v38z" />
    <glyph glyph-name="uni06440671.fina" unicode="&#xfee0;&#xfb51;" horiz-adv-x="1695" 
d="M1454 363l0.000976562 -11.999c0 -4 -0.333008 -7.66699 -1 -11c36 -20.667 74.833 -35 116.5 -43s81.5 -12 119.5 -12h5c16 0 28.333 -2.16699 37 -6.5s15.334 -11 20.001 -20s7.5 -20.833 8.5 -35.5s1.5 -32 1.5 -52v-53c0 -26 -1.16699 -46.833 -3.5 -62.5
s-6 -27.5 -11 -35.5s-11.833 -13.333 -20.5 -16s-19.334 -4 -32.001 -4h-8c-50.667 0 -102.334 10.667 -155.001 32s-101 51.333 -145 90c-26 -36.667 -61.5 -66.167 -106.5 -88.5s-102.167 -33.5 -171.5 -33.5h-988v285h335v732h360v-732h201c27.333 0 47 6.66699 59 20
s18 38.666 18 75.999v1059h361v-1077zM313.001 1186l-0.000976562 132.003h86v226h131v-45c18.667 14 37.334 25.167 56.001 33.5s36.167 14.666 52.5 18.999s31.5 7.16602 45.5 8.49902s26 2 36 2c29.333 0 56.166 -4.33301 80.499 -13s45.333 -21.667 63 -39
s31.334 -38.833 41.001 -64.5s14.5 -55.834 14.5 -90.501v-169h-606zM759 1357c0 35.333 -7.66797 59.667 -23.001 73s-35 20 -59 20c-13.333 0 -27.666 -3.66699 -42.999 -11s-29.5 -17 -42.5 -29s-23.667 -25.833 -32 -41.5s-12.5 -32.167 -12.5 -49.5h212v38z" />
    <glyph glyph-name="uni0621" unicode="&#x621;" horiz-adv-x="980" arabic-form="isolated" 
d="M862 495c-32 10 -63.5 17.1699 -94.5 21.5029s-62.5 6.5 -94.5 6.5c-46 0 -81.667 -8.5 -107 -25.5s-38 -38.167 -38 -63.5c0 -21.333 6.16699 -39.5 18.5 -54.5s28.333 -27.167 48 -36.5s41.667 -16 66 -20s48.5 -6 72.5 -6h173v-317h-839v317h129
c-13.333 24 -23.666 48 -30.999 72s-11 47.667 -11 71c0 63.333 13 118.666 39 165.999s60 86.5 102 117.5s89.167 54.167 141.5 69.5s105.166 23 158.499 23c17.333 0 35.333 -0.333008 54 -1s39.667 -1.83398 63 -3.50098s49.5 -4.33398 78.5 -8.00098
s62.833 -8.5 101.5 -14.5z" />
    <glyph glyph-name="uni0622" unicode="&#x622;" horiz-adv-x="661" arabic-form="isolated" 
d="M150 1440h361v-1440h-361v1440zM-164 1754c23.333 30.667 46.832 56 70.499 76s46.667 35.667 69 47s43.166 19.333 62.499 24s36.333 7 51 7c16 0 33 -2.16699 51 -6.5s36.833 -10 56.5 -17s39.5 -14.833 59.5 -23.5l59 -26l56 -25c18.667 -8 36.667 -15.167 54 -21.5
s34 -11.5 50 -15.5s30.333 -6 43 -6c37.333 0 69.333 9.16699 96 27.5s47 42.833 61 73.5l133 -74c-27.333 -47.333 -53.333 -84.666 -78 -111.999s-48.667 -48.333 -72 -63s-46.666 -24 -69.999 -28s-47.333 -6 -72 -6c-45.333 0 -88.166 8.16699 -128.499 24.5
s-78.5 33.5 -114.5 51.5c-34 17.333 -66.5 32 -97.5 44s-60.5 18 -88.5 18c-19.333 0 -42.333 -5.83301 -69 -17.5s-51 -29.834 -73 -54.501z" />
    <glyph glyph-name="uni0623" unicode="&#x623;" horiz-adv-x="661" arabic-form="isolated" 
d="M150 1440h361v-1440h-361v1440zM521 1947c-15.333 5.33301 -30.999 8.99902 -46.999 10.999s-31.667 3 -47 3c-24 0 -42.833 -4.66699 -56.5 -14s-20.5 -20.333 -20.5 -33c0 -11.333 3.33301 -20.833 10 -28.5s15.167 -14 25.5 -19s21.833 -8.66699 34.5 -11
s25 -3.5 37 -3.5h87v-159h-424v159h67c-15.333 26.667 -23 51.334 -23 74.001c0 32.667 6.5 61 19.5 85s30.167 43.833 51.5 59.5s45.166 27.334 71.499 35c26.333 7.66699 53.166 11.5 80.499 11.5c8.66699 0 17.667 -0.166992 27 -0.5s19.833 -0.833008 31.5 -1.5
s24.834 -2 39.501 -4l51 -7z" />
    <glyph glyph-name="uni0624" unicode="&#x624;" horiz-adv-x="1216" arabic-form="isolated" 
d="M207 -126c73.333 2.66699 138.001 8.16699 194.001 16.5s105.167 20.833 147.5 37.5s78.833 37.834 109.5 63.501s57 57.5 79 95.5c-42 -14 -83 -24.5 -123 -31.5s-77.333 -10.5 -112 -10.5c-60 0 -115.333 9.16699 -166 27.5s-94.167 44.833 -130.5 79.5
s-64.666 76.334 -84.999 125.001s-30.5 103.667 -30.5 165c0 66 12.333 127.667 37 185s59.834 107.333 105.501 150s101 76.167 166 100.5s137.5 36.5 217.5 36.5c32.667 0 67.167 -2.83301 103.5 -8.5s71.833 -15.834 106.5 -30.501s67.667 -34.334 99 -59.001
s59 -55.834 83 -93.501s43 -82.667 57 -135s21 -113.166 21 -182.499v-163c0 -78.667 -9.33301 -148.667 -28 -210s-45.5 -115.5 -80.5 -162.5s-77.333 -87.333 -127 -121s-105.834 -62.167 -168.501 -85.5s-130.834 -42 -204.501 -56s-151.834 -24.667 -234.501 -32z
M425.001 456c0 -28.667 4.33008 -53.998 12.9971 -75.998s20.834 -40.333 36.501 -55s34.167 -25.667 55.5 -33s45 -11 71 -11c19.333 0 40.333 2 63 6s45.334 10.333 68.001 19v96c0 76 -13.833 132 -41.5 168s-65.5 54 -113.5 54
c-21.333 0 -41.166 -4.16699 -59.499 -12.5s-34.333 -19.833 -48 -34.5s-24.5 -32.334 -32.5 -53.001s-12 -43.334 -12 -68.001zM836.998 1539c-22.667 7.33301 -45.502 12.6709 -68.502 16.0039s-45.833 5 -68.5 5c-33.333 0 -59.333 -6.33301 -78 -19s-28 -27.667 -28 -45
c0 -16 4.5 -29.333 13.5 -40s20.667 -19.334 35 -26.001s30.333 -11.5 48 -14.5s35.167 -4.5 52.5 -4.5h127v-232h-609v232h93c-9.33301 17.333 -16.666 34.666 -21.999 51.999s-8 34.333 -8 51c0 46 9.5 86.167 28.5 120.5s43.667 62.666 74 84.999s64.5 39 102.5 50
s76 16.5 114 16.5c12.667 0 25.834 -0.166992 39.501 -0.5s28.667 -1.33301 45 -3s35 -3.83398 56 -6.50098s45.5 -6 73.5 -10z" />
    <glyph glyph-name="uni0625" unicode="&#x625;" horiz-adv-x="661" arabic-form="isolated" 
d="M150 1440h361v-1440h-361v1440zM529 -347c-15.333 5.33301 -30.999 8.83301 -46.999 10.5s-31.667 2.5 -47 2.5c-24 0 -42.833 -4.5 -56.5 -13.5s-20.5 -20.167 -20.5 -33.5c0 -11.333 3.33301 -20.833 10 -28.5s15.167 -14 25.5 -19s21.833 -8.5 34.5 -10.5s25 -3 37 -3
h87v-160h-424v160h67c-15.333 25.333 -23 49.666 -23 72.999c0 32.667 6.5 61 19.5 85s30.167 43.833 51.5 59.5s45.166 27.334 71.499 35.001s53.166 11.5 80.499 11.5c8.66699 0 17.667 -0.166992 27 -0.5s19.833 -0.833008 31.5 -1.5s24.834 -2 39.501 -4l51 -7z" />
    <glyph glyph-name="uni0626" unicode="&#x626;" horiz-adv-x="1817" arabic-form="isolated" 
d="M1248 54c0 9.33301 -3.16797 19.165 -9.50098 29.498s-14.5 20.666 -24.5 30.999s-21.5 20.833 -34.5 31.5l-39.5 31l-79.5 64c-27 22.667 -51.5 47.667 -73.5 75s-40.167 57.333 -54.5 90s-21.5 69 -21.5 109c0 42.667 7 81.334 21 116.001s33 65.5 57 92.5
s52.167 50.333 84.5 70s66.333 36 102 49s72.334 22.5 110.001 28.5s74.167 9 109.5 9s71.833 -3.16699 109.5 -9.5s72.334 -13.5 104.001 -21.5s58.334 -15.5 80.001 -22.5s34.5 -11.5 38.5 -13.5l-84 -307c-35.333 14 -70 27 -104 39
c-29.333 10 -59.833 19.167 -91.5 27.5s-59.5 12.5 -83.5 12.5c-11.333 0 -22.5 -0.833008 -33.5 -2.5s-21 -4.83398 -30 -9.50098s-16.333 -11.167 -22 -19.5s-8.5 -18.833 -8.5 -31.5c0 -12 3.16699 -23.667 9.5 -35s14.833 -22.5 25.5 -33.5s23 -21.667 37 -32l43 -30.5
c30 -20.667 58.5 -42 85.5 -64s51 -45.333 72 -70s37.667 -50.667 50 -78s18.5 -56.333 18.5 -87c0 -40 -7.33301 -80.5 -22 -121.5s-36.167 -80.667 -64.5 -119s-63.166 -74.333 -104.499 -108s-88.5 -63 -141.5 -88s-111.667 -44.667 -176 -59s-133.5 -21.5 -207.5 -21.5
c-98.667 0 -186.5 8.83301 -263.5 26.5s-144.333 41.334 -202 71.001s-106.334 64 -146.001 103s-71.834 80 -96.501 123s-42.5 86.5 -53.5 130.5s-16.5 86 -16.5 126c0 38 4.5 76.833 13.5 116.5s21.5 79.334 37.5 119.001s35 78.5 57 116.5s46.333 74 73 108l300 -156
c-40.667 -49.333 -70.834 -99.333 -90.501 -150s-29.5 -97 -29.5 -139c0 -40.667 8.16699 -78.667 24.5 -114s41.333 -66.166 75 -92.499s76.5 -47 128.5 -62s114 -22.5 186 -22.5c48.667 0 94.5 4.5 137.5 13.5s80.667 21.5 113 37.5s58 34.667 77 56s28.5 44 28.5 68z
M576.999 1035c-22.667 7.33301 -45.502 12.6709 -68.502 16.0039s-45.833 5 -68.5 5c-33.333 0 -59.333 -6.33301 -78 -19s-28 -27.667 -28 -45c0 -16 4.5 -29.333 13.5 -40s20.667 -19.334 35 -26.001s30.333 -11.5 48 -14.5s35.167 -4.5 52.5 -4.5h127v-232h-609v232h93
c-9.33301 17.333 -16.666 34.666 -21.999 51.999s-8 34.333 -8 51c0 46 9.5 86.167 28.5 120.5s43.667 62.666 74 84.999s64.5 39 102.5 50s76 16.5 114 16.5c12.667 0 25.834 -0.166992 39.501 -0.5s28.667 -1.33301 45 -3s35 -3.83398 56 -6.50098s45.5 -6 73.5 -10z" />
    <glyph glyph-name="uni0627" unicode="&#x627;" horiz-adv-x="661" arabic-form="isolated" 
d="M150 1440h361v-1440h-361v1440z" />
    <glyph glyph-name="uni0628" unicode="&#x628;" horiz-adv-x="1996" arabic-form="isolated" 
d="M1486 285l-0.00195312 595.001h360v-880h-1217c-87.333 0 -163.5 5 -228.5 15s-120.667 24.167 -167 42.5s-84.666 40.333 -114.999 66s-54.166 54 -71.499 85s-29.5 64.167 -36.5 99.5s-10.5 72 -10.5 110c-0 13.333 0.833008 30 2.5 50s4 41.833 7 65.5s6.5 48 10.5 73
s8.33301 48.833 13 71.5l162 -14.5l162 -14.5c-6.66699 -35.333 -11.334 -68.5 -14.001 -99.5s-4 -55.167 -4 -72.5c0 -33.333 4.66699 -62 14 -86s27 -43.833 53 -59.5s62.333 -27.334 109 -35.001s107.334 -11.5 182.001 -11.5h789zM802.998 -374.999
c0 24 4.5 46.333 13.5 67s21.167 38.834 36.5 54.501s33.333 28 54 37s42.667 13.5 66 13.5s45.166 -4.5 65.499 -13.5s38.166 -21.333 53.499 -37s27.333 -33.834 36 -54.501s13 -43 13 -67s-4.33301 -46.333 -13 -67s-20.667 -38.667 -36 -54s-33.166 -27.5 -53.499 -36.5
s-42.166 -13.5 -65.499 -13.5s-45.333 4.5 -66 13.5s-38.667 21.167 -54 36.5s-27.5 33.333 -36.5 54s-13.5 43 -13.5 67z" />
    <glyph glyph-name="uni0629" unicode="&#x629;" horiz-adv-x="1073" arabic-form="isolated" 
d="M461 0c-73.333 0 -138.499 10.5029 -195.499 31.5029s-105.167 49.833 -144.5 86.5s-69.333 79.5 -90 128.5s-31 101.5 -31 157.5c0 59.333 7 113.833 21 163.5s33.167 94.5 57.5 134.5s52.666 75 84.999 105s66.5 55.167 102.5 75.5s72.833 35.666 110.5 45.999
s74.5 15.5 110.5 15.5c56.667 0 113.5 -11 170.5 -33s108 -55.5 153 -100.5s81.667 -101.333 110 -169s42.5 -146.834 42.5 -237.501c0 -52 -10.5 -102.333 -31.5 -151s-51 -91.834 -90 -129.501s-86.167 -67.667 -141.5 -90s-117.333 -33.5 -186 -33.5h-53z
M324.001 437.003c0 -23.333 2.83203 -44.332 8.49902 -62.999s14.667 -34.5 27 -47.5s28.333 -23.167 48 -30.5s43.834 -11 72.501 -11c28 0 51.5 4.33301 70.5 13s34 20.167 45 34.5s18.833 30.666 23.5 48.999s7 36.833 7 55.5c0 36.667 -3.83301 69.167 -11.5 97.5
s-18.334 52 -32.001 71s-29.667 33.333 -48 43s-37.833 14.5 -58.5 14.5c-18 0 -36.167 -4.66699 -54.5 -14s-34.666 -23.333 -48.999 -42s-26 -42.167 -35 -70.5s-13.5 -61.5 -13.5 -99.5zM88 1327c0 24 4.5 46.333 13.5 67s21.167 38.834 36.5 54.501s33.333 28 54 37
s42.667 13.5 66 13.5s45.166 -4.5 65.499 -13.5s38.166 -21.333 53.499 -37s27.5 -33.834 36.5 -54.501s13.5 -43 13.5 -67s-4.5 -46.333 -13.5 -67s-21.167 -38.667 -36.5 -54s-33.166 -27.5 -53.499 -36.5s-42.166 -13.5 -65.499 -13.5s-45.333 4.5 -66 13.5
s-38.667 21.167 -54 36.5s-27.5 33.333 -36.5 54s-13.5 43 -13.5 67zM499 1327c0 24 4.5 46.333 13.5 67s21.167 38.834 36.5 54.501s33.166 28 53.499 37s42.166 13.5 65.499 13.5s45.166 -4.5 65.499 -13.5s38.166 -21.333 53.499 -37s27.5 -33.834 36.5 -54.501
s13.5 -43 13.5 -67s-4.5 -46.333 -13.5 -67s-21.167 -38.667 -36.5 -54s-33.166 -27.5 -53.499 -36.5s-42.166 -13.5 -65.499 -13.5s-45.166 4.5 -65.499 13.5s-38.166 21.167 -53.499 36.5s-27.5 33.333 -36.5 54s-13.5 43 -13.5 67z" />
    <glyph glyph-name="uni062A" unicode="&#x62a;" horiz-adv-x="1996" arabic-form="isolated" 
d="M1486 285l-0.00195312 595.001h360v-880h-1217c-87.333 0 -163.5 5 -228.5 15s-120.667 24.167 -167 42.5s-84.666 40.333 -114.999 66s-54.166 54 -71.499 85s-29.5 64.167 -36.5 99.5s-10.5 72 -10.5 110c-0 13.333 0.833008 30 2.5 50s4 41.833 7 65.5s6.5 48 10.5 73
s8.33301 48.833 13 71.5l162 -14.5l162 -14.5c-6.66699 -35.333 -11.334 -68.5 -14.001 -99.5s-4 -55.167 -4 -72.5c0 -33.333 4.66699 -62 14 -86s27 -43.833 53 -59.5s62.333 -27.334 109 -35.001s107.334 -11.5 182.001 -11.5h789zM623.998 1327c0 24 4.5 46.333 13.5 67
s21.167 38.834 36.5 54.501s33.333 28 54 37s42.667 13.5 66 13.5s45.166 -4.5 65.499 -13.5s38.166 -21.333 53.499 -37s27.5 -33.834 36.5 -54.501s13.5 -43 13.5 -67s-4.5 -46.333 -13.5 -67s-21.167 -38.667 -36.5 -54s-33.166 -27.5 -53.499 -36.5
s-42.166 -13.5 -65.499 -13.5s-45.333 4.5 -66 13.5s-38.667 21.167 -54 36.5s-27.5 33.333 -36.5 54s-13.5 43 -13.5 67zM1035 1327c0 24 4.5 46.333 13.5 67s21.167 38.834 36.5 54.501s33.166 28 53.499 37s42.166 13.5 65.499 13.5s45.166 -4.5 65.499 -13.5
s38.166 -21.333 53.499 -37s27.5 -33.834 36.5 -54.501s13.5 -43 13.5 -67s-4.5 -46.333 -13.5 -67s-21.167 -38.667 -36.5 -54s-33.166 -27.5 -53.499 -36.5s-42.166 -13.5 -65.499 -13.5s-45.166 4.5 -65.499 13.5s-38.166 21.167 -53.499 36.5s-27.5 33.333 -36.5 54
s-13.5 43 -13.5 67z" />
    <glyph glyph-name="uni062B" unicode="&#x62b;" horiz-adv-x="1996" arabic-form="isolated" 
d="M1486 285l-0.00195312 595.001h360v-880h-1217c-87.333 0 -163.5 5 -228.5 15s-120.667 24.167 -167 42.5s-84.666 40.333 -114.999 66s-54.166 54 -71.499 85s-29.5 64.167 -36.5 99.5s-10.5 72 -10.5 110c-0 13.333 0.833008 30 2.5 50s4 41.833 7 65.5s6.5 48 10.5 73
s8.33301 48.833 13 71.5l162 -14.5l162 -14.5c-6.66699 -35.333 -11.334 -68.5 -14.001 -99.5s-4 -55.167 -4 -72.5c0 -33.333 4.66699 -62 14 -86s27 -43.833 53 -59.5s62.333 -27.334 109 -35.001s107.334 -11.5 182.001 -11.5h789zM575.998 1327c0 24 4.5 46.333 13.5 67
s21.167 38.834 36.5 54.501s33.333 28 54 37s42.667 13.5 66 13.5s45.166 -4.5 65.499 -13.5s38.166 -21.333 53.499 -37s27.5 -33.834 36.5 -54.501s13.5 -43 13.5 -67s-4.5 -46.333 -13.5 -67s-21.167 -38.667 -36.5 -54s-33.166 -27.5 -53.499 -36.5
s-42.166 -13.5 -65.499 -13.5s-45.333 4.5 -66 13.5s-38.667 21.167 -54 36.5s-27.5 33.333 -36.5 54s-13.5 43 -13.5 67zM986.998 1327c0 24 4.5 46.333 13.5 67s21.167 38.834 36.5 54.501s33.166 28 53.499 37s42.166 13.5 65.499 13.5s45.166 -4.5 65.499 -13.5
s38.166 -21.333 53.499 -37s27.5 -33.834 36.5 -54.501s13.5 -43 13.5 -67s-4.5 -46.333 -13.5 -67s-21.167 -38.667 -36.5 -54s-33.166 -27.5 -53.499 -36.5s-42.166 -13.5 -65.499 -13.5s-45.166 4.5 -65.499 13.5s-38.166 21.167 -53.499 36.5s-27.5 33.333 -36.5 54
s-13.5 43 -13.5 67zM779.998 1713c0 24 4.5 46.333 13.5 67s21.167 38.834 36.5 54.501s33.166 28 53.499 37s42.166 13.5 65.499 13.5s45.166 -4.5 65.499 -13.5s38.166 -21.333 53.499 -37s27.5 -33.834 36.5 -54.501s13.5 -43 13.5 -67s-4.5 -46.333 -13.5 -67
s-21.167 -38.667 -36.5 -54s-33.166 -27.5 -53.499 -36.5s-42.166 -13.5 -65.499 -13.5s-45.166 4.5 -65.499 13.5s-38.166 21.167 -53.499 36.5s-27.5 33.333 -36.5 54s-13.5 43 -13.5 67z" />
    <glyph glyph-name="uni062C" unicode="&#x62c;" horiz-adv-x="1268" arabic-form="isolated" 
d="M742 285c-7.33301 12.667 -12.833 27.666 -16.5 44.999l-10.5 51c-6 34.667 -12.333 68 -19 100s-17.5 60.167 -32.5 84.5s-35.833 43.833 -62.5 58.5s-62.667 22 -108 22c-7.33301 0 -19.166 -0.5 -35.499 -1.5s-35.833 -2.83301 -58.5 -5.5s-48 -6.5 -76 -11.5
s-57.333 -11.833 -88 -20.5v267c59.333 16 117.166 30.167 173.499 42.5s115.166 18.5 176.499 18.5c64.667 0 122.834 -8.66699 174.501 -26s96.334 -42.166 134.001 -74.499s68 -71.333 91 -117s38.167 -96.834 45.5 -153.501c4 -32 9 -64.5 15 -97.5
s14.167 -62.833 24.5 -89.5s24.166 -48.5 41.499 -65.5s39.666 -25.833 66.999 -26.5v-285h-599c-34.667 0 -66.334 -4.5 -95.001 -13.5s-53.167 -22.833 -73.5 -41.5s-36.166 -41.834 -47.499 -69.501s-17 -59.834 -17 -96.501c0 -29.333 5.5 -57.166 16.5 -83.499
s28.167 -49.5 51.5 -69.5s53.5 -35.833 90.5 -47.5s81.5 -17.5 133.5 -17.5c10.667 0 24.834 0.333008 42.501 1s37.667 2 60 4s46.5 4.66699 72.5 8s53 7.66602 81 12.999v-273c-32 -7.33301 -61.167 -13.666 -87.5 -18.999s-51.333 -9.66602 -75 -12.999
s-46.667 -6 -69 -8s-45.5 -3 -69.5 -3c-108 0 -199.5 14.833 -274.5 44.5s-136.167 68.834 -183.5 117.501s-81.666 103.5 -102.999 164.5s-32 123.167 -32 186.5c0 80.667 14.167 152 42.5 214s68.5 114.333 120.5 157s114.667 75 188 97s154.666 33 243.999 33h147z
M542.371 -216.999c0 21.5039 4.05859 41.5146 12.1768 60.0312s19.0928 34.7939 32.9238 48.832c13.8301 14.0371 30.0654 25.0879 48.7061 33.1514c18.6416 8.06445 38.4854 12.0967 59.5312 12.0967s40.7393 -4.03223 59.0791 -12.0967
c18.3408 -8.06348 34.4258 -19.1143 48.2559 -33.1514c13.8301 -14.0381 24.6533 -30.3154 32.4707 -48.832s11.7266 -38.5273 11.7266 -60.0312s-3.90918 -41.5146 -11.7266 -60.0322s-18.6406 -34.6455 -32.4707 -48.3838s-29.915 -24.6396 -48.2559 -32.7041
c-18.3398 -8.06348 -38.0332 -12.0957 -59.0791 -12.0957s-40.8896 4.03223 -59.5312 12.0957c-18.6406 8.06445 -34.876 18.9658 -48.7061 32.7041c-13.8311 13.7383 -24.8057 29.8662 -32.9238 48.3838s-12.1768 38.5283 -12.1768 60.0322z" />
    <glyph glyph-name="uni062D" unicode="&#x62d;" horiz-adv-x="1268" arabic-form="isolated" 
d="M742 285c-7.33301 12.667 -12.833 27.666 -16.5 44.999l-10.5 51c-6 34.667 -12.333 68 -19 100s-17.5 60.167 -32.5 84.5s-35.833 43.833 -62.5 58.5s-62.667 22 -108 22c-7.33301 0 -19.166 -0.5 -35.499 -1.5s-35.833 -2.83301 -58.5 -5.5s-48 -6.5 -76 -11.5
s-57.333 -11.833 -88 -20.5v267c59.333 16 117.166 30.167 173.499 42.5s115.166 18.5 176.499 18.5c64.667 0 122.834 -8.66699 174.501 -26s96.334 -42.166 134.001 -74.499s68 -71.333 91 -117s38.167 -96.834 45.5 -153.501c4 -32 9 -64.5 15 -97.5
s14.167 -62.833 24.5 -89.5s24.166 -48.5 41.499 -65.5s39.666 -25.833 66.999 -26.5v-285h-599c-34.667 0 -66.334 -4.5 -95.001 -13.5s-53.167 -22.833 -73.5 -41.5s-36.166 -41.834 -47.499 -69.501s-17 -59.834 -17 -96.501c0 -29.333 5.5 -57.166 16.5 -83.499
s28.167 -49.5 51.5 -69.5s53.5 -35.833 90.5 -47.5s81.5 -17.5 133.5 -17.5c10.667 0 24.834 0.333008 42.501 1s37.667 2 60 4s46.5 4.66699 72.5 8s53 7.66602 81 12.999v-273c-32 -7.33301 -61.167 -13.666 -87.5 -18.999s-51.333 -9.66602 -75 -12.999
s-46.667 -6 -69 -8s-45.5 -3 -69.5 -3c-108 0 -199.5 14.833 -274.5 44.5s-136.167 68.834 -183.5 117.501s-81.666 103.5 -102.999 164.5s-32 123.167 -32 186.5c0 80.667 14.167 152 42.5 214s68.5 114.333 120.5 157s114.667 75 188 97s154.666 33 243.999 33h147z" />
    <glyph glyph-name="uni062E" unicode="&#x62e;" horiz-adv-x="1268" arabic-form="isolated" 
d="M742 285c-7.33301 12.667 -12.833 27.666 -16.5 44.999l-10.5 51c-6 34.667 -12.333 68 -19 100s-17.5 60.167 -32.5 84.5s-35.833 43.833 -62.5 58.5s-62.667 22 -108 22c-7.33301 0 -19.166 -0.5 -35.499 -1.5s-35.833 -2.83301 -58.5 -5.5s-48 -6.5 -76 -11.5
s-57.333 -11.833 -88 -20.5v267c59.333 16 117.166 30.167 173.499 42.5s115.166 18.5 176.499 18.5c64.667 0 122.834 -8.66699 174.501 -26s96.334 -42.166 134.001 -74.499s68 -71.333 91 -117s38.167 -96.834 45.5 -153.501c4 -32 9 -64.5 15 -97.5
s14.167 -62.833 24.5 -89.5s24.166 -48.5 41.499 -65.5s39.666 -25.833 66.999 -26.5v-285h-599c-34.667 0 -66.334 -4.5 -95.001 -13.5s-53.167 -22.833 -73.5 -41.5s-36.166 -41.834 -47.499 -69.501s-17 -59.834 -17 -96.501c0 -29.333 5.5 -57.166 16.5 -83.499
s28.167 -49.5 51.5 -69.5s53.5 -35.833 90.5 -47.5s81.5 -17.5 133.5 -17.5c10.667 0 24.834 0.333008 42.501 1s37.667 2 60 4s46.5 4.66699 72.5 8s53 7.66602 81 12.999v-273c-32 -7.33301 -61.167 -13.666 -87.5 -18.999s-51.333 -9.66602 -75 -12.999
s-46.667 -6 -69 -8s-45.5 -3 -69.5 -3c-108 0 -199.5 14.833 -274.5 44.5s-136.167 68.834 -183.5 117.501s-81.666 103.5 -102.999 164.5s-32 123.167 -32 186.5c0 80.667 14.167 152 42.5 214s68.5 114.333 120.5 157s114.667 75 188 97s154.666 33 243.999 33h147z
M400 1327c0 24 4.5 46.333 13.5 67s21.167 38.834 36.5 54.501s33.333 28 54 37s42.667 13.5 66 13.5s45.166 -4.5 65.499 -13.5s38.166 -21.333 53.499 -37s27.5 -33.834 36.5 -54.501s13.5 -43 13.5 -67s-4.5 -46.333 -13.5 -67s-21.167 -38.667 -36.5 -54
s-33.166 -27.5 -53.499 -36.5s-42.166 -13.5 -65.499 -13.5s-45.333 4.5 -66 13.5s-38.667 21.167 -54 36.5s-27.5 33.333 -36.5 54s-13.5 43 -13.5 67z" />
    <glyph glyph-name="uni062F" unicode="&#x62f;" horiz-adv-x="1048" arabic-form="isolated" 
d="M43 0v285h413c30.667 0 56 3.33301 76 10s35.667 15.334 47 26.001s19.333 22.5 24 35.5s7 26.167 7 39.5c0 22 -10.5 48.667 -31.5 80s-48.5 65 -82.5 101s-72.5 72.667 -115.5 110s-86.5 72.666 -130.5 105.999l250 245c67.333 -57.333 128 -114 182 -170
s100 -110.667 138 -164s67.167 -105.333 87.5 -156s30.5 -99.334 30.5 -146.001c0 -53.333 -8 -104.166 -24 -152.499s-43 -91 -81 -128s-88.167 -66.5 -150.5 -88.5s-139.5 -33 -231.5 -33h-408z" />
    <glyph glyph-name="uni0630" unicode="&#x630;" horiz-adv-x="1048" arabic-form="isolated" 
d="M43 0v285h413c30.667 0 56 3.33301 76 10s35.667 15.334 47 26.001s19.333 22.5 24 35.5s7 26.167 7 39.5c0 22 -10.5 48.667 -31.5 80s-48.5 65 -82.5 101s-72.5 72.667 -115.5 110s-86.5 72.666 -130.5 105.999l250 245c67.333 -57.333 128 -114 182 -170
s100 -110.667 138 -164s67.167 -105.333 87.5 -156s30.5 -99.334 30.5 -146.001c0 -53.333 -8 -104.166 -24 -152.499s-43 -91 -81 -128s-88.167 -66.5 -150.5 -88.5s-139.5 -33 -231.5 -33h-408zM311 1327c0 24 4.5 46.333 13.5 67s21.167 38.834 36.5 54.501
s33.333 28 54 37s42.667 13.5 66 13.5s45.166 -4.5 65.499 -13.5s38.166 -21.333 53.499 -37s27.5 -33.834 36.5 -54.501s13.5 -43 13.5 -67s-4.5 -46.333 -13.5 -67s-21.167 -38.667 -36.5 -54s-33.166 -27.5 -53.499 -36.5s-42.166 -13.5 -65.499 -13.5
s-45.333 4.5 -66 13.5s-38.667 21.167 -54 36.5s-27.5 33.333 -36.5 54s-13.5 43 -13.5 67z" />
    <glyph glyph-name="uni0631" unicode="&#x631;" horiz-adv-x="747" arabic-form="isolated" 
d="M-3 -156c58 12 103.001 28.668 135.001 50.001s55.667 46 71 74s24.666 59 27.999 93s5 70.333 5 109v710h361v-661c0 -96.667 -9.16699 -183 -27.5 -259s-49 -142.167 -92 -198.5s-100.167 -102.833 -171.5 -139.5s-160 -63.334 -266 -80.001z" />
    <glyph glyph-name="uni0632" unicode="&#x632;" horiz-adv-x="747" arabic-form="isolated" 
d="M-3 -156c58 12 103.001 28.668 135.001 50.001s55.667 46 71 74s24.666 59 27.999 93s5 70.333 5 109v710h361v-661c0 -96.667 -9.16699 -183 -27.5 -259s-49 -142.167 -92 -198.5s-100.167 -102.833 -171.5 -139.5s-160 -63.334 -266 -80.001zM256.001 1327
c0 24 4.5 46.333 13.5 67s21.167 38.834 36.5 54.501s33.333 28 54 37s42.667 13.5 66 13.5s45.166 -4.5 65.499 -13.5s38.166 -21.333 53.499 -37s27.5 -33.834 36.5 -54.501s13.5 -43 13.5 -67s-4.5 -46.333 -13.5 -67s-21.167 -38.667 -36.5 -54
s-33.166 -27.5 -53.499 -36.5s-42.166 -13.5 -65.499 -13.5s-45.333 4.5 -66 13.5s-38.667 21.167 -54 36.5s-27.5 33.333 -36.5 54s-13.5 43 -13.5 67z" />
    <glyph glyph-name="uni0633" unicode="&#x633;" horiz-adv-x="2787" arabic-form="isolated" 
d="M1537 285c14 0 27.3311 1.5 39.998 4.5s23.834 8.16699 33.501 15.5s17.334 17.166 23.001 29.499s8.5 27.833 8.5 46.5v392h362v-410c0 -7.33301 -0.166992 -14.833 -0.5 -22.5s-0.833008 -15.167 -1.5 -22.5c28 -10 56.167 -18 84.5 -24s56.166 -9 83.5 -9h105v595h362
v-880h-347c-44.667 0 -85.167 2.33301 -121.5 7s-69.666 11.167 -99.999 19.5s-58 18.333 -83 30s-48.5 24.834 -70.5 39.501c-27.333 -29.333 -62 -52.666 -104 -69.999s-93.333 -26 -154 -26c-73.333 0 -136 5.83301 -188 17.5s-98 28.167 -138 49.5
c-16.667 -73.333 -44.167 -140.5 -82.5 -201.5s-86.333 -113.5 -144 -157.5s-124.334 -78.167 -200.001 -102.5s-159.5 -36.5 -251.5 -36.5c-114.667 0 -213.167 16.333 -295.5 49s-150 76.334 -203 131.001s-92 117.667 -117 189s-37.5 145.333 -37.5 222
c0 34.667 3.16699 72 9.5 112s15.5 80.5 27.5 121.5s26.833 81.667 44.5 122s37.834 78.166 60.501 113.499l149 -79.5l149 -78.5c-28.667 -45.333 -51.334 -93.833 -68.001 -145.5s-25 -99.167 -25 -142.5c0 -42.667 7 -82.167 21 -118.5s34.667 -67.833 62 -94.5
s61.333 -47.667 102 -63s87.667 -23 141 -23c49.333 0 93.5 7.83301 132.5 23.5s72.167 38.5 99.5 68.5s48.333 66.833 63 110.5s22 93.5 22 149.5c0 17.333 -2.16699 40 -6.5 68s-10.5 58.5 -18.5 91.5s-18.167 67.5 -30.5 103.5s-26.5 71 -42.5 105l352 94
c10 -26 20 -54.333 30 -85s19.333 -62.167 28 -94.5s16.667 -64.833 24 -97.5s13 -64 17 -94c32 -12.667 64.333 -22.834 97 -30.501s65 -11.5 97 -11.5z" />
    <glyph glyph-name="uni0634" unicode="&#x634;" horiz-adv-x="2787" arabic-form="isolated" 
d="M1537 285c14 0 27.3311 1.5 39.998 4.5s23.834 8.16699 33.501 15.5s17.334 17.166 23.001 29.499s8.5 27.833 8.5 46.5v392h362v-410c0 -7.33301 -0.166992 -14.833 -0.5 -22.5s-0.833008 -15.167 -1.5 -22.5c28 -10 56.167 -18 84.5 -24s56.166 -9 83.5 -9h105v595h362
v-880h-347c-44.667 0 -85.167 2.33301 -121.5 7s-69.666 11.167 -99.999 19.5s-58 18.333 -83 30s-48.5 24.834 -70.5 39.501c-27.333 -29.333 -62 -52.666 -104 -69.999s-93.333 -26 -154 -26c-73.333 0 -136 5.83301 -188 17.5s-98 28.167 -138 49.5
c-16.667 -73.333 -44.167 -140.5 -82.5 -201.5s-86.333 -113.5 -144 -157.5s-124.334 -78.167 -200.001 -102.5s-159.5 -36.5 -251.5 -36.5c-114.667 0 -213.167 16.333 -295.5 49s-150 76.334 -203 131.001s-92 117.667 -117 189s-37.5 145.333 -37.5 222
c0 34.667 3.16699 72 9.5 112s15.5 80.5 27.5 121.5s26.833 81.667 44.5 122s37.834 78.166 60.501 113.499l149 -79.5l149 -78.5c-28.667 -45.333 -51.334 -93.833 -68.001 -145.5s-25 -99.167 -25 -142.5c0 -42.667 7 -82.167 21 -118.5s34.667 -67.833 62 -94.5
s61.333 -47.667 102 -63s87.667 -23 141 -23c49.333 0 93.5 7.83301 132.5 23.5s72.167 38.5 99.5 68.5s48.333 66.833 63 110.5s22 93.5 22 149.5c0 17.333 -2.16699 40 -6.5 68s-10.5 58.5 -18.5 91.5s-18.167 67.5 -30.5 103.5s-26.5 71 -42.5 105l352 94
c10 -26 20 -54.333 30 -85s19.333 -62.167 28 -94.5s16.667 -64.833 24 -97.5s13 -64 17 -94c32 -12.667 64.333 -22.834 97 -30.501s65 -11.5 97 -11.5zM1433 1327c0 24 4.5 46.333 13.5 67s21.167 38.834 36.5 54.501s33.333 28 54 37s42.667 13.5 66 13.5
s45.166 -4.5 65.499 -13.5s38.166 -21.333 53.499 -37s27.5 -33.834 36.5 -54.501s13.5 -43 13.5 -67s-4.5 -46.333 -13.5 -67s-21.167 -38.667 -36.5 -54s-33.166 -27.5 -53.499 -36.5s-42.166 -13.5 -65.499 -13.5s-45.333 4.5 -66 13.5s-38.667 21.167 -54 36.5
s-27.5 33.333 -36.5 54s-13.5 43 -13.5 67zM1844 1327c0 24 4.49902 46.333 13.499 67s21.167 38.834 36.5 54.501s33.166 28 53.499 37s42.166 13.5 65.499 13.5s45.166 -4.5 65.499 -13.5s38.166 -21.333 53.5 -37c15.333 -15.667 27.5 -33.834 36.5 -54.501
s13.5 -43 13.5 -67s-4.5 -46.333 -13.5 -67s-21.167 -38.667 -36.5 -54s-33.166 -27.5 -53.499 -36.5s-42.166 -13.5 -65.499 -13.5s-45.166 4.5 -65.499 13.5s-38.166 21.167 -53.499 36.5s-27.5 33.333 -36.5 54s-13.5 43 -13.5 67zM1637 1713c0 24 4.5 46.333 13.5 67
s21.167 38.834 36.5 54.501s33.166 28 53.499 37s42.166 13.5 65.499 13.5s45.166 -4.5 65.499 -13.5s38.166 -21.333 53.499 -37s27.5 -33.834 36.5 -54.501s13.5 -43 13.5 -67s-4.5 -46.333 -13.5 -67s-21.167 -38.667 -36.5 -54s-33.166 -27.5 -53.499 -36.5
s-42.166 -13.5 -65.499 -13.5s-45.166 4.5 -65.499 13.5s-38.166 21.167 -53.499 36.5s-27.5 33.333 -36.5 54s-13.5 43 -13.5 67z" />
    <glyph glyph-name="uni0635" unicode="&#x635;" horiz-adv-x="2962" arabic-form="isolated" 
d="M990 236c0 17.333 -2.16895 40 -6.50195 68s-10.5 58.5 -18.5 91.5s-18.167 67.5 -30.5 103.5s-26.5 71 -42.5 105l352 94c10 -26.667 19.833 -55.334 29.5 -86.001s19 -62.167 28 -94.5s17.167 -64.666 24.5 -96.999s13 -63.5 17 -93.5c32 -12 63.667 -21.167 95 -27.5
s59 -10.166 83 -11.499c18.667 42.667 41.5 88.667 68.5 138s58.333 98.666 94 147.999s75.834 96.666 120.501 141.999s93.667 85.5 147 120.5s111.166 63 173.499 84s129.5 31.5 201.5 31.5c87.333 0 162.833 -14 226.5 -42s116.167 -66.5 157.5 -115.5
s72 -106.833 92 -173.5s30 -138.667 30 -216v-405h-1173c-57.333 0 -114.166 5.83301 -170.499 17.5s-108.833 27.834 -157.5 48.501c-16.667 -73.333 -44.167 -140.5 -82.5 -201.5s-86.5 -113.333 -144.5 -157s-124.833 -77.667 -200.5 -102s-159.5 -36.5 -251.5 -36.5
c-114 0 -212.167 16.333 -294.5 49s-150 76.334 -203 131.001s-92 117.667 -117 189s-37.5 145.333 -37.5 222c0 34.667 3 72 9 112s15 80.5 27 121.5s26.833 81.667 44.5 122s37.834 78.166 60.501 113.499l149 -79.5l149 -78.5c-28 -45.333 -50.5 -93.833 -67.5 -145.5
s-25.5 -99.167 -25.5 -142.5c0 -42.667 7 -82.167 21 -118.5s34.667 -67.833 62 -94.5s61.333 -47.667 102 -63s88 -23 142 -23c49.333 0 93.5 7.83301 132.5 23.5s72.167 38.5 99.5 68.5s48.333 66.833 63 110.5s22 93.5 22 149.5zM2471 386
c0 52 -5.16699 95.167 -15.5 129.5s-25.166 62 -44.5 83c-19.333 21 -43 35.833 -71 44.5s-60 13 -96 13s-73.833 -8.5 -113.5 -25.5s-78.5 -41.5 -116.5 -73.5s-73.833 -71 -107.5 -117s-62.5 -97.667 -86.5 -155h651v101z" />
    <glyph glyph-name="uni0636" unicode="&#x636;" horiz-adv-x="2962" arabic-form="isolated" 
d="M990 236c0 17.333 -2.16895 40 -6.50195 68s-10.5 58.5 -18.5 91.5s-18.167 67.5 -30.5 103.5s-26.5 71 -42.5 105l352 94c10 -26.667 19.833 -55.334 29.5 -86.001s19 -62.167 28 -94.5s17.167 -64.666 24.5 -96.999s13 -63.5 17 -93.5c32 -12 63.667 -21.167 95 -27.5
s59 -10.166 83 -11.499c18.667 42.667 41.5 88.667 68.5 138s58.333 98.666 94 147.999s75.834 96.666 120.501 141.999s93.667 85.5 147 120.5s111.166 63 173.499 84s129.5 31.5 201.5 31.5c87.333 0 162.833 -14 226.5 -42s116.167 -66.5 157.5 -115.5
s72 -106.833 92 -173.5s30 -138.667 30 -216v-405h-1173c-57.333 0 -114.166 5.83301 -170.499 17.5s-108.833 27.834 -157.5 48.501c-16.667 -73.333 -44.167 -140.5 -82.5 -201.5s-86.5 -113.333 -144.5 -157s-124.833 -77.667 -200.5 -102s-159.5 -36.5 -251.5 -36.5
c-114 0 -212.167 16.333 -294.5 49s-150 76.334 -203 131.001s-92 117.667 -117 189s-37.5 145.333 -37.5 222c0 34.667 3 72 9 112s15 80.5 27 121.5s26.833 81.667 44.5 122s37.834 78.166 60.501 113.499l149 -79.5l149 -78.5c-28 -45.333 -50.5 -93.833 -67.5 -145.5
s-25.5 -99.167 -25.5 -142.5c0 -42.667 7 -82.167 21 -118.5s34.667 -67.833 62 -94.5s61.333 -47.667 102 -63s88 -23 142 -23c49.333 0 93.5 7.83301 132.5 23.5s72.167 38.5 99.5 68.5s48.333 66.833 63 110.5s22 93.5 22 149.5zM2471 386
c0 52 -5.16699 95.167 -15.5 129.5s-25.166 62 -44.5 83c-19.333 21 -43 35.833 -71 44.5s-60 13 -96 13s-73.833 -8.5 -113.5 -25.5s-78.5 -41.5 -116.5 -73.5s-73.833 -71 -107.5 -117s-62.5 -97.667 -86.5 -155h651v101zM2020 1327c0 24 4.5 46.333 13.5 67
s21.167 38.834 36.5 54.501s33.333 28 54 37s42.667 13.5 66 13.5s45.166 -4.5 65.5 -13.5c20.333 -9 38.166 -21.333 53.5 -37c15.333 -15.667 27.5 -33.834 36.5 -54.501s13.5 -43 13.5 -67s-4.5 -46.333 -13.5 -67s-21.167 -38.667 -36.5 -54s-33.166 -27.5 -53.5 -36.5
c-20.333 -9 -42.166 -13.5 -65.5 -13.5c-23.333 0 -45.333 4.5 -66 13.5s-38.667 21.167 -54 36.5s-27.5 33.333 -36.5 54s-13.5 43 -13.5 67z" />
    <glyph glyph-name="uni0637" unicode="&#x637;" horiz-adv-x="1721" arabic-form="isolated" 
d="M0 0v285h280c9.33301 22 20 45.333 32 70s25.333 49.667 40 75v1011h360v-604c54 34.667 111.833 62.5 173.5 83.5s128.5 31.5 200.5 31.5c86.667 0 161.667 -14 225 -42s115.833 -66.5 157.5 -115.5s72.5 -106.833 92.5 -173.5s30 -138.667 30 -216v-405h-1591z
M1233 386c0 52 -5.33105 95.167 -15.998 129.5s-25.834 62 -45.501 83s-43.834 35.833 -72.501 44.5s-61 13 -97 13c-39.333 0 -79.5 -9.66699 -120.5 -29s-80.333 -45.833 -118 -79.5s-72.5 -73 -104.5 -118s-59 -93.167 -81 -144.5h655v101z" />
    <glyph glyph-name="uni0638" unicode="&#x638;" horiz-adv-x="1721" arabic-form="isolated" 
d="M0 0v285h280c9.33301 22 20 45.333 32 70s25.333 49.667 40 75v1011h360v-604c54 34.667 111.833 62.5 173.5 83.5s128.5 31.5 200.5 31.5c86.667 0 161.667 -14 225 -42s115.833 -66.5 157.5 -115.5s72.5 -106.833 92.5 -173.5s30 -138.667 30 -216v-405h-1591z
M1233 386c0 52 -5.33105 95.167 -15.998 129.5s-25.834 62 -45.501 83s-43.834 35.833 -72.501 44.5s-61 13 -97 13c-39.333 0 -79.5 -9.66699 -120.5 -29s-80.333 -45.833 -118 -79.5s-72.5 -73 -104.5 -118s-59 -93.167 -81 -144.5h655v101zM959.002 1327
c0 24 4.5 46.333 13.5 67s21.167 38.834 36.5 54.501s33.333 28 54 37s42.667 13.5 66 13.5s45.166 -4.5 65.499 -13.5s38.166 -21.333 53.499 -37s27.5 -33.834 36.5 -54.501s13.5 -43 13.5 -67s-4.5 -46.333 -13.5 -67s-21.167 -38.667 -36.5 -54
s-33.166 -27.5 -53.499 -36.5s-42.166 -13.5 -65.499 -13.5s-45.333 4.5 -66 13.5s-38.667 21.167 -54 36.5s-27.5 33.333 -36.5 54s-13.5 43 -13.5 67z" />
    <glyph glyph-name="uni0639" unicode="&#x639;" horiz-adv-x="1174" arabic-form="isolated" 
d="M0 -239c0 55.333 6.50586 106.331 19.5059 152.998s31.5 89.334 55.5 128.001s53 73.334 87 104.001s72.333 57.667 115 81c-23.333 44 -39.333 85.667 -48 125s-13 74.666 -13 105.999c0 63.333 12.167 123.333 36.5 180s58.333 106.334 102 149.001s96 76.5 157 101.5
s128.167 37.5 201.5 37.5c16.667 0 37.334 -1.16699 62.001 -3.5s50.5 -5.66602 77.5 -9.99902s54.167 -9.5 81.5 -15.5s51.666 -13 72.999 -21l-41 -295c-30.667 8 -57.167 14.5 -79.5 19.5s-42 9 -59 12s-32.667 5.16699 -47 6.5s-28.833 2 -43.5 2
c-24.667 0 -47.5 -2.83301 -68.5 -8.5s-39.333 -14.834 -55 -27.501s-27.834 -28.667 -36.501 -48s-13 -42.666 -13 -69.999c0 -26 4.5 -50.167 13.5 -72.5s21.5 -41.666 37.5 -57.999s35.167 -29 57.5 -38s47.166 -13.5 74.499 -13.5h337v-285h-517
c-32 0 -61.5 -5 -88.5 -15s-50.333 -24.333 -70 -43s-34.834 -41.834 -45.501 -69.501s-16 -58.834 -16 -93.501c0 -27.333 5.5 -54 16.5 -80s28.167 -49.167 51.5 -69.5s53.166 -36.833 89.499 -49.5s79.5 -19 129.5 -19c28 0 64.5 2 109.5 6s95.833 11 152.5 21v-286
c-31.333 -7.33301 -60.333 -13 -87 -17s-51.667 -7 -75 -9s-46 -3.33301 -68 -4s-44 -1 -66 -1c-104.667 0 -194.834 14 -270.501 42s-137.834 65 -186.501 111s-84.667 98.333 -108 157s-35 118.667 -35 180z" />
    <glyph glyph-name="uni063A" unicode="&#x63a;" horiz-adv-x="1174" arabic-form="isolated" 
d="M0 -239c0 55.333 6.50586 106.331 19.5059 152.998s31.5 89.334 55.5 128.001s53 73.334 87 104.001s72.333 57.667 115 81c-23.333 44 -39.333 85.667 -48 125s-13 74.666 -13 105.999c0 63.333 12.167 123.333 36.5 180s58.333 106.334 102 149.001s96 76.5 157 101.5
s128.167 37.5 201.5 37.5c16.667 0 37.334 -1.16699 62.001 -3.5s50.5 -5.66602 77.5 -9.99902s54.167 -9.5 81.5 -15.5s51.666 -13 72.999 -21l-41 -295c-30.667 8 -57.167 14.5 -79.5 19.5s-42 9 -59 12s-32.667 5.16699 -47 6.5s-28.833 2 -43.5 2
c-24.667 0 -47.5 -2.83301 -68.5 -8.5s-39.333 -14.834 -55 -27.501s-27.834 -28.667 -36.501 -48s-13 -42.666 -13 -69.999c0 -26 4.5 -50.167 13.5 -72.5s21.5 -41.666 37.5 -57.999s35.167 -29 57.5 -38s47.166 -13.5 74.499 -13.5h337v-285h-517
c-32 0 -61.5 -5 -88.5 -15s-50.333 -24.333 -70 -43s-34.834 -41.834 -45.501 -69.501s-16 -58.834 -16 -93.501c0 -27.333 5.5 -54 16.5 -80s28.167 -49.167 51.5 -69.5s53.166 -36.833 89.499 -49.5s79.5 -19 129.5 -19c28 0 64.5 2 109.5 6s95.833 11 152.5 21v-286
c-31.333 -7.33301 -60.333 -13 -87 -17s-51.667 -7 -75 -9s-46 -3.33301 -68 -4s-44 -1 -66 -1c-104.667 0 -194.834 14 -270.501 42s-137.834 65 -186.501 111s-84.667 98.333 -108 157s-35 118.667 -35 180zM536.006 1327c0 24 4.5 46.333 13.5 67
s21.167 38.834 36.5 54.501s33.333 28 54 37s42.667 13.5 66 13.5s45.166 -4.5 65.499 -13.5s38.166 -21.333 53.499 -37s27.5 -33.834 36.5 -54.501s13.5 -43 13.5 -67s-4.5 -46.333 -13.5 -67s-21.167 -38.667 -36.5 -54s-33.166 -27.5 -53.499 -36.5
s-42.166 -13.5 -65.499 -13.5s-45.333 4.5 -66 13.5s-38.667 21.167 -54 36.5s-27.5 33.333 -36.5 54s-13.5 43 -13.5 67z" />
    <glyph glyph-name="uni0641" unicode="&#x641;" horiz-adv-x="2279" arabic-form="isolated" 
d="M1788 285v136c0 38.667 -4.33301 71 -13 97s-20 46.833 -34 62.5s-29.667 26.834 -47 33.501s-34.333 10 -51 10c-18.667 0 -37 -3.16699 -55 -9.5s-34 -16.333 -48 -30s-25.167 -30.834 -33.5 -51.501s-12.5 -45 -12.5 -73c0 -24 4.33301 -46.5 13 -67.5
s21 -39.5 37 -55.5s35.333 -28.667 58 -38s48 -14 76 -14h110zM628 0c-86.667 0 -162.501 4.99512 -227.501 14.9951s-120.667 24.167 -167 42.5s-84.666 40.333 -114.999 66s-54.166 54 -71.499 85s-29.5 64.167 -36.5 99.5s-10.5 72 -10.5 110c0 13.333 1 30 3 50
s4.5 41.833 7.5 65.5s6.5 48 10.5 73l12 71.5l165 -14.5l165 -14.5l-3 -14c-6 -32 -11.333 -63 -16 -93s-7 -56.333 -7 -79c0 -29.333 4.66699 -55.166 14 -77.499s27.166 -41 53.499 -56s63 -26.167 110 -33.5s107.833 -11 182.5 -11h480
c-4.66699 12.667 -9 26.334 -13 41.001s-7.5 29.667 -10.5 45s-5.33301 30.333 -7 45s-2.5 28 -2.5 40c0 74.667 13.5 140.834 40.5 198.501s64 106 111 145s102.5 68.667 166.5 89s132.667 30.5 206 30.5c72.667 0 138.667 -10.5 198 -31.5s110 -51.167 152 -90.5
s74.333 -87.166 97 -143.499s34 -120.166 34 -191.499v-462h-1521zM1467 1327c0 24 4.5 46.333 13.5 67s21.167 38.834 36.5 54.501s33.333 28 54 37s42.667 13.5 66 13.5s45.166 -4.5 65.499 -13.5s38.166 -21.333 53.499 -37s27.5 -33.834 36.5 -54.501s13.5 -43 13.5 -67
s-4.5 -46.333 -13.5 -67s-21.167 -38.667 -36.5 -54s-33.166 -27.5 -53.499 -36.5s-42.166 -13.5 -65.499 -13.5s-45.333 4.5 -66 13.5s-38.667 21.167 -54 36.5s-27.5 33.333 -36.5 54s-13.5 43 -13.5 67z" />
    <glyph glyph-name="uni0642" unicode="&#x642;" horiz-adv-x="1650" arabic-form="isolated" 
d="M1156 84c-78 -26 -151.335 -38.999 -220.002 -38.999c-60.667 0 -116.167 9.16699 -166.5 27.5s-93.666 44.833 -129.999 79.5s-64.666 76.334 -84.999 125.001s-30.5 103.667 -30.5 165c0 66 12.333 127.667 37 185s59.834 107.333 105.501 150s101 76.167 166 100.5
s137.5 36.5 217.5 36.5c32.667 0 67.167 -2.83301 103.5 -8.5s71.833 -15.834 106.5 -30.501s67.667 -34.334 99 -59.001s59 -55.834 83 -93.501s43 -82.667 57 -135s21 -113.166 21 -182.499v-261c0 -118 -20 -223 -60 -315s-95.333 -169.5 -166 -232.5
s-153.834 -110.833 -249.501 -143.5s-199.5 -49 -311.5 -49c-115.333 0 -218.333 13.5 -309 40.5s-167.5 65.5 -230.5 115.5s-111 110.833 -144 182.5s-49.5 152.167 -49.5 241.5c0 71.333 9.16699 144.333 27.5 219s50.5 150.667 96.5 228l146 -76l146 -76
c-21.333 -48 -36 -93.833 -44 -137.5s-12 -83.5 -12 -119.5c0 -48 9.16699 -91.667 27.5 -131s44.333 -73 78 -101s74.167 -49.667 121.5 -65s100.333 -23 159 -23c50 0 98.667 6.5 146 19.5s90 34.5 128 64.5s69.5 69 94.5 117s40.5 107 46.5 177zM858.998 456.001
c0 -28.667 4.33105 -53.998 12.998 -75.998s20.834 -40.333 36.501 -55s34.167 -25.667 55.5 -33s45 -11 71 -11c19.333 0 39.5 2 60.5 6s42.5 10.333 64.5 19v96c0 76 -12.833 132 -38.5 168s-62.5 54 -110.5 54c-21.333 0 -41.166 -4.16699 -59.499 -12.5
s-34.333 -19.833 -48 -34.5s-24.5 -32.334 -32.5 -53.001s-12 -43.334 -12 -68.001zM634.996 1327c0 24 4.5 46.333 13.5 67s21.167 38.834 36.5 54.501s33.333 28 54 37s42.667 13.5 66 13.5s45.166 -4.5 65.499 -13.5s38.166 -21.333 53.499 -37
s27.5 -33.834 36.5 -54.501s13.5 -43 13.5 -67s-4.5 -46.333 -13.5 -67s-21.167 -38.667 -36.5 -54s-33.166 -27.5 -53.499 -36.5s-42.166 -13.5 -65.499 -13.5s-45.333 4.5 -66 13.5s-38.667 21.167 -54 36.5s-27.5 33.333 -36.5 54s-13.5 43 -13.5 67zM1046 1327
c0 24 4.5 46.333 13.5 67s21.167 38.834 36.5 54.501s33.166 28 53.499 37s42.166 13.5 65.499 13.5s45.166 -4.5 65.499 -13.5s38.166 -21.333 53.499 -37s27.5 -33.834 36.5 -54.501s13.5 -43 13.5 -67s-4.5 -46.333 -13.5 -67s-21.167 -38.667 -36.5 -54
s-33.166 -27.5 -53.499 -36.5s-42.166 -13.5 -65.499 -13.5s-45.166 4.5 -65.499 13.5s-38.166 21.167 -53.499 36.5s-27.5 33.333 -36.5 54s-13.5 43 -13.5 67z" />
    <glyph glyph-name="uni0643" unicode="&#x643;" horiz-adv-x="1996" arabic-form="isolated" 
d="M1486 285l-0.00195312 1154h360v-1439h-1217c-87.333 0 -163.5 5 -228.5 15s-120.667 24.167 -167 42.5s-84.666 40.333 -114.999 66s-54.166 54 -71.499 85s-29.5 64.167 -36.5 99.5s-10.5 72 -10.5 110c-0 13.333 0.833008 30 2.5 50s4 41.833 7 65.5s6.5 48 10.5 73
s8.33301 48.833 13 71.5l162 -14.5l162 -14.5c-6.66699 -35.333 -11.334 -68.5 -14.001 -99.5s-4 -55.167 -4 -72.5c0 -33.333 4.66699 -62 14 -86s27 -43.833 53 -59.5s62.333 -27.334 109 -35.001s107.334 -11.5 182.001 -11.5h789zM1116 806.001
c-15.333 5.33301 -31.0029 8.83301 -47.0029 10.5s-32 2.5 -48 2.5c-24 0 -42.833 -4.5 -56.5 -13.5s-20.5 -19.833 -20.5 -32.5c0 -11.333 3.33301 -20.833 10 -28.5s15.167 -14 25.5 -19s21.833 -8.66699 34.5 -11s25.334 -3.5 38.001 -3.5h86v-159h-424v159h67
c-14.667 27.333 -22 52 -22 74c0 32 6.5 60 19.5 84s30 44 51 60s44.833 27.833 71.5 35.5s53.334 11.5 80.001 11.5c8.66699 0 17.667 -0.166992 27 -0.5s19.833 -0.833008 31.5 -1.5s24.834 -2 39.501 -4l51 -7z" />
    <glyph glyph-name="uni0644" unicode="&#x644;" horiz-adv-x="1500" arabic-form="isolated" 
d="M990 1440l359.996 0.000976562v-1204c0 -96 -16.167 -184.667 -48.5 -266s-78.5 -151.666 -138.5 -210.999s-133.167 -105.833 -219.5 -139.5s-183.5 -50.5 -291.5 -50.5s-202.667 15.333 -284 46s-149.166 72 -203.499 124s-95.333 112.5 -123 181.5
s-41.5 141.833 -41.5 218.5c0 34.667 3 73.167 9 115.5s14.833 85.333 26.5 129s26.334 86.667 44.001 129s38.167 81.166 61.5 116.499l298 -158c-14 -22 -26.667 -45.333 -38 -70s-21.166 -49.667 -29.499 -75s-14.666 -50.333 -18.999 -75s-6.5 -47.334 -6.5 -68.001
c0 -42.667 7.33301 -82.167 22 -118.5s36 -67.833 64 -94.5s62.167 -47.667 102.5 -63s86.5 -23 138.5 -23c54 0 100.833 9 140.5 27s72.5 43.5 98.5 76.5s45.5 72.5 58.5 118.5s19.5 97.333 19.5 154v1180z" />
    <glyph glyph-name="uni0645" unicode="&#x645;" horiz-adv-x="1494" arabic-form="isolated" 
d="M915 -11c-45.333 0 -87.8291 3.50098 -127.496 10.501s-76.334 16.167 -110.001 27.5s-64.334 24.166 -92.001 38.499s-52.167 29.166 -73.5 44.499c-20 -4.66699 -39.167 -12 -57.5 -22s-34.833 -23.5 -49.5 -40.5s-26.334 -38.167 -35.001 -63.5s-13 -56 -13 -92
c0 -32 2.83301 -68.333 8.5 -109s14.334 -84.5 26.001 -131.5s26 -96.833 43 -149.5s37.167 -106.334 60.5 -161.001l-340 -106c-20 54 -39.167 112 -57.5 174s-34.833 122.5 -49.5 181.5s-26.334 114.167 -35.001 165.5s-13 93.666 -13 126.999c0 80 11.5 148.333 34.5 205
s52 104.667 87 144s73.333 71.5 115 96.5s81.5 45.5 119.5 61.5c34 104.667 74.167 190 120.5 256s94.666 117.5 144.999 154.5s100.333 62.167 150 75.5s94.834 20 135.501 20c54 0 103.333 -6.66699 148 -20s84.667 -31.666 120 -54.999s66.166 -50.333 92.499 -81
s48 -63.167 65 -97.5s29.833 -69.833 38.5 -106.5s13 -72 13 -106c0 -51.333 -9.33301 -103.166 -28 -155.499s-47.167 -99.666 -85.5 -141.999s-87 -76.833 -146 -103.5s-128.833 -40 -209.5 -40zM1061 438.001c0 21.333 -3.67188 41.999 -11.0049 61.999
s-18 37.667 -32 53s-31.333 27.666 -52 36.999s-44 14 -70 14c-49.333 0 -94.666 -20.667 -135.999 -62s-76 -108.666 -104 -201.999c14.667 -8.66699 31.334 -16.834 50.001 -24.501s37.834 -14.5 57.501 -20.5s39.334 -10.667 59.001 -14s37.834 -5 54.501 -5
c26 0 50.167 2.83301 72.5 8.5s41.833 14.834 58.5 27.501s29.667 29.334 39 50.001s14 46 14 76z" />
    <glyph glyph-name="uni0646" unicode="&#x646;" horiz-adv-x="1460" arabic-form="isolated" 
d="M990 236c0 17.333 -2.16895 39.9971 -6.50195 67.9971s-10.666 58.5 -18.999 91.5s-18.5 67.5 -30.5 103.5s-26 71 -42 105l351 94c12.667 -33.333 25.334 -70.166 38.001 -110.499s24.167 -81.166 34.5 -122.499s18.666 -81.833 24.999 -121.5s9.5 -75.5 9.5 -107.5
c0 -96 -16 -184.667 -48 -266s-78 -151.666 -138 -210.999s-133.167 -105.833 -219.5 -139.5s-183.833 -50.5 -292.5 -50.5c-114 0 -212.167 16.333 -294.5 49s-150 76.334 -203 131.001s-92 117.667 -117 189s-37.5 145.333 -37.5 222c0 34.667 3 72 9 112
s15 80.5 27 121.5s26.833 81.667 44.5 122s37.834 78.166 60.501 113.499l149 -79.5l149 -78.5c-28 -45.333 -50.5 -93.833 -67.5 -145.5s-25.5 -99.167 -25.5 -142.5c0 -42.667 7 -82.167 21 -118.5s34.667 -67.833 62 -94.5s61.333 -47.667 102 -63s88 -23 142 -23
c49.333 0 93.5 7.83301 132.5 23.5s72.167 38.5 99.5 68.5s48.333 66.833 63 110.5s22 93.5 22 149.5zM507.998 1079c0 24 4.5 46.333 13.5 67s21.167 38.834 36.5 54.501s33.333 28 54 37s42.667 13.5 66 13.5s45.166 -4.5 65.499 -13.5s38.166 -21.333 53.499 -37
s27.5 -33.834 36.5 -54.501s13.5 -43 13.5 -67s-4.5 -46.333 -13.5 -67s-21.167 -38.667 -36.5 -54s-33.166 -27.5 -53.499 -36.5s-42.166 -13.5 -65.499 -13.5s-45.333 4.5 -66 13.5s-38.667 21.167 -54 36.5s-27.5 33.333 -36.5 54s-13.5 43 -13.5 67z" />
    <glyph glyph-name="uni0648" unicode="&#x648;" horiz-adv-x="1216" arabic-form="isolated" 
d="M207 -126c73.333 2.66699 138.001 8.16699 194.001 16.5s105.167 20.833 147.5 37.5s78.833 37.834 109.5 63.501s57 57.5 79 95.5c-42 -14 -83 -24.5 -123 -31.5s-77.333 -10.5 -112 -10.5c-60 0 -115.333 9.16699 -166 27.5s-94.167 44.833 -130.5 79.5
s-64.666 76.334 -84.999 125.001s-30.5 103.667 -30.5 165c0 66 12.333 127.667 37 185s59.834 107.333 105.501 150s101 76.167 166 100.5s137.5 36.5 217.5 36.5c32.667 0 67.167 -2.83301 103.5 -8.5s71.833 -15.834 106.5 -30.501s67.667 -34.334 99 -59.001
s59 -55.834 83 -93.501s43 -82.667 57 -135s21 -113.166 21 -182.499v-163c0 -78.667 -9.33301 -148.667 -28 -210s-45.5 -115.5 -80.5 -162.5s-77.333 -87.333 -127 -121s-105.834 -62.167 -168.501 -85.5s-130.834 -42 -204.501 -56s-151.834 -24.667 -234.501 -32z
M425.001 456c0 -28.667 4.33008 -53.998 12.9971 -75.998s20.834 -40.333 36.501 -55s34.167 -25.667 55.5 -33s45 -11 71 -11c19.333 0 40.333 2 63 6s45.334 10.333 68.001 19v96c0 76 -13.833 132 -41.5 168s-65.5 54 -113.5 54
c-21.333 0 -41.166 -4.16699 -59.499 -12.5s-34.333 -19.833 -48 -34.5s-24.5 -32.334 -32.5 -53.001s-12 -43.334 -12 -68.001z" />
    <glyph glyph-name="uni0649" unicode="&#x649;" horiz-adv-x="1700" arabic-form="isolated" 
d="M1131 54c0 9.33301 -3.16797 19.165 -9.50098 29.498s-14.5 20.666 -24.5 30.999s-21.5 20.833 -34.5 31.5l-39.5 31l-79.5 64c-27 22.667 -51.5 47.667 -73.5 75s-40.167 57.333 -54.5 90s-21.5 69 -21.5 109c0 42.667 7 81.334 21 116.001s33 65.5 57 92.5
s52.167 50.333 84.5 70s66.333 36 102 49s72.334 22.5 110.001 28.5s74.167 9 109.5 9s71.833 -3.16699 109.5 -9.5s72.334 -13.5 104.001 -21.5s58.334 -15.5 80.001 -22.5s34.5 -11.5 38.5 -13.5l-84 -307c-35.333 14 -70 27 -104 39
c-29.333 10 -59.833 19.167 -91.5 27.5s-59.5 12.5 -83.5 12.5c-11.333 0 -22.5 -0.833008 -33.5 -2.5s-21 -4.83398 -30 -9.50098s-16.333 -11.167 -22 -19.5s-8.5 -18.833 -8.5 -31.5c0 -12 3.16699 -23.667 9.5 -35s14.833 -22.5 25.5 -33.5s23 -21.667 37 -32l43 -30.5
c30 -20.667 58.5 -42 85.5 -64s51 -45.333 72 -70s37.667 -50.667 50 -78s18.5 -56.333 18.5 -87c0 -40 -7.33301 -80.5 -22 -121.5s-36.167 -80.667 -64.5 -119s-63.166 -74.333 -104.499 -108s-88.5 -63 -141.5 -88s-111.667 -44.667 -176 -59s-133.5 -21.5 -207.5 -21.5
c-98.667 0 -186.5 8.83301 -263.5 26.5s-144.333 41.334 -202 71.001s-106.334 64 -146.001 103s-71.834 80 -96.501 123s-42.5 86.5 -53.5 130.5s-16.5 86 -16.5 126c0 38 4.5 76.833 13.5 116.5s21.5 79.334 37.5 119.001s35 78.5 57 116.5s46.333 74 73 108l300 -156
c-40.667 -49.333 -70.834 -99.333 -90.501 -150s-29.5 -97 -29.5 -139c0 -40.667 8.16699 -78.667 24.5 -114s41.333 -66.166 75 -92.499s76.5 -47 128.5 -62s114 -22.5 186 -22.5c48.667 0 94.5 4.5 137.5 13.5s80.667 21.5 113 37.5s58 34.667 77 56s28.5 44 28.5 68z" />
    <glyph glyph-name="uni064A" unicode="&#x64a;" horiz-adv-x="1700" arabic-form="isolated" 
d="M1131 54c0 9.33301 -3.16797 19.165 -9.50098 29.498s-14.5 20.666 -24.5 30.999s-21.5 20.833 -34.5 31.5l-39.5 31l-79.5 64c-27 22.667 -51.5 47.667 -73.5 75s-40.167 57.333 -54.5 90s-21.5 69 -21.5 109c0 42.667 7 81.334 21 116.001s33 65.5 57 92.5
s52.167 50.333 84.5 70s66.333 36 102 49s72.334 22.5 110.001 28.5s74.167 9 109.5 9s71.833 -3.16699 109.5 -9.5s72.334 -13.5 104.001 -21.5s58.334 -15.5 80.001 -22.5s34.5 -11.5 38.5 -13.5l-84 -307c-35.333 14 -70 27 -104 39
c-29.333 10 -59.833 19.167 -91.5 27.5s-59.5 12.5 -83.5 12.5c-11.333 0 -22.5 -0.833008 -33.5 -2.5s-21 -4.83398 -30 -9.50098s-16.333 -11.167 -22 -19.5s-8.5 -18.833 -8.5 -31.5c0 -12 3.16699 -23.667 9.5 -35s14.833 -22.5 25.5 -33.5s23 -21.667 37 -32l43 -30.5
c30 -20.667 58.5 -42 85.5 -64s51 -45.333 72 -70s37.667 -50.667 50 -78s18.5 -56.333 18.5 -87c0 -40 -7.33301 -80.5 -22 -121.5s-36.167 -80.667 -64.5 -119s-63.166 -74.333 -104.499 -108s-88.5 -63 -141.5 -88s-111.667 -44.667 -176 -59s-133.5 -21.5 -207.5 -21.5
c-98.667 0 -186.5 8.83301 -263.5 26.5s-144.333 41.334 -202 71.001s-106.334 64 -146.001 103s-71.834 80 -96.501 123s-42.5 86.5 -53.5 130.5s-16.5 86 -16.5 126c0 38 4.5 76.833 13.5 116.5s21.5 79.334 37.5 119.001s35 78.5 57 116.5s46.333 74 73 108l300 -156
c-40.667 -49.333 -70.834 -99.333 -90.501 -150s-29.5 -97 -29.5 -139c0 -40.667 8.16699 -78.667 24.5 -114s41.333 -66.166 75 -92.499s76.5 -47 128.5 -62s114 -22.5 186 -22.5c48.667 0 94.5 4.5 137.5 13.5s80.667 21.5 113 37.5s58 34.667 77 56s28.5 44 28.5 68z
M397.999 -794.001c0 24 4.5 46.333 13.5 67s21.167 38.834 36.5 54.501s33.333 28 54 37s42.667 13.5 66 13.5s45.166 -4.5 65.499 -13.5s38.166 -21.333 53.499 -37s27.5 -33.834 36.5 -54.501s13.5 -43 13.5 -67s-4.5 -46.333 -13.5 -67s-21.167 -38.667 -36.5 -54
s-33.166 -27.5 -53.499 -36.5s-42.166 -13.5 -65.499 -13.5s-45.333 4.5 -66 13.5s-38.667 21.167 -54 36.5s-27.5 33.333 -36.5 54s-13.5 43 -13.5 67zM808.999 -794.001c0 24 4.5 46.333 13.5 67s21.167 38.834 36.5 54.501s33.166 28 53.499 37s42.166 13.5 65.499 13.5
s45.166 -4.5 65.499 -13.5s38.166 -21.333 53.499 -37s27.5 -33.834 36.5 -54.501s13.5 -43 13.5 -67s-4.5 -46.333 -13.5 -67s-21.167 -38.667 -36.5 -54s-33.166 -27.5 -53.499 -36.5s-42.166 -13.5 -65.499 -13.5s-45.166 4.5 -65.499 13.5s-38.166 21.167 -53.499 36.5
s-27.5 33.333 -36.5 54s-13.5 43 -13.5 67z" />
    <glyph glyph-name="uni0671" unicode="&#x671;" horiz-adv-x="661" arabic-form="isolated" 
d="M150 1440h361v-1440h-361v1440zM24 1512l-0.000976562 132.003h86v226h131v-45c18.667 14 37.334 25.167 56.001 33.5s36.167 14.666 52.5 18.999s31.5 7.16602 45.5 8.49902s26 2 36 2c29.333 0 56.166 -4.33301 80.499 -13s45.333 -21.667 63 -39
s31.334 -38.833 41.001 -64.5s14.5 -55.834 14.5 -90.501v-169h-606zM469.999 1683c0 35.333 -7.66797 59.667 -23.001 73s-35 20 -59 20c-13.333 0 -27.666 -3.66699 -42.999 -11s-29.5 -17 -42.5 -29s-23.667 -25.833 -32 -41.5s-12.5 -32.167 -12.5 -49.5h212v38z" />
    <glyph glyph-name="uni0679" unicode="&#x679;" horiz-adv-x="1996" arabic-form="isolated" 
d="M1486 285l-0.00195312 595.001h360v-880h-1217c-87.333 0 -163.5 5 -228.5 15s-120.667 24.167 -167 42.5s-84.666 40.333 -114.999 66s-54.166 54 -71.499 85s-29.5 64.167 -36.5 99.5s-10.5 72 -10.5 110c-0 13.333 0.833008 30 2.5 50s4 41.833 7 65.5s6.5 48 10.5 73
s8.33301 48.833 13 71.5l162 -14.5l162 -14.5c-6.66699 -35.333 -11.334 -68.5 -14.001 -99.5s-4 -55.167 -4 -72.5c0 -33.333 4.66699 -62 14 -86s27 -43.833 53 -59.5s62.333 -27.334 109 -35.001s107.334 -11.5 182.001 -11.5h789zM634.998 949.001l0.000976562 140h105
v551h169v-297c25.333 16 52.333 28.667 81 38s60 14 94 14c40 0 74.833 -6.66699 104.5 -20s54.167 -31.5 73.5 -54.5s33.666 -50 42.999 -81s14 -64.5 14 -100.5v-190h-684zM1152 1130c0 24 -2.50098 44.168 -7.50098 60.501s-12.167 29.333 -21.5 39
s-20.666 16.5 -33.999 20.5s-28.333 6 -45 6c-18.667 0 -37.5 -4.16699 -56.5 -12.5s-37.333 -19.833 -55 -34.5s-34 -32.334 -49 -53.001s-27.5 -43 -37.5 -67h306v41z" />
    <glyph glyph-name="uni067E" unicode="&#x67e;" horiz-adv-x="1996" arabic-form="isolated" 
d="M1486 285l-0.00195312 595.001h360v-880h-1217c-87.333 0 -163.5 5 -228.5 15s-120.667 24.167 -167 42.5s-84.666 40.333 -114.999 66s-54.166 54 -71.499 85s-29.5 64.167 -36.5 99.5s-10.5 72 -10.5 110c-0 13.333 0.833008 30 2.5 50s4 41.833 7 65.5s6.5 48 10.5 73
s8.33301 48.833 13 71.5l162 -14.5l162 -14.5c-6.66699 -35.333 -11.334 -68.5 -14.001 -99.5s-4 -55.167 -4 -72.5c0 -33.333 4.66699 -62 14 -86s27 -43.833 53 -59.5s62.333 -27.334 109 -35.001s107.334 -11.5 182.001 -11.5h789zM607.998 -370.999
c0 24 4.5 46.333 13.5 67s21.167 38.834 36.5 54.501s33.333 28 54 37s42.667 13.5 66 13.5s45.166 -4.5 65.499 -13.5s38.166 -21.333 53.499 -37s27.5 -33.834 36.5 -54.501s13.5 -43 13.5 -67s-4.5 -46.333 -13.5 -67s-21.167 -38.667 -36.5 -54
s-33.166 -27.5 -53.499 -36.5s-42.166 -13.5 -65.499 -13.5s-45.333 4.5 -66 13.5s-38.667 21.167 -54 36.5s-27.5 33.333 -36.5 54s-13.5 43 -13.5 67zM1019 -370.999c0 24 4.5 46.333 13.5 67s21.167 38.834 36.5 54.501s33.166 28 53.499 37s42.166 13.5 65.499 13.5
s45.166 -4.5 65.499 -13.5s38.166 -21.333 53.499 -37s27.5 -33.834 36.5 -54.501s13.5 -43 13.5 -67s-4.5 -46.333 -13.5 -67s-21.167 -38.667 -36.5 -54s-33.166 -27.5 -53.499 -36.5s-42.166 -13.5 -65.499 -13.5s-45.166 4.5 -65.499 13.5s-38.166 21.167 -53.499 36.5
s-27.5 33.333 -36.5 54s-13.5 43 -13.5 67zM811.998 -754.999c0 24 4.5 46.333 13.5 67s21.167 38.834 36.5 54.501s33.166 28 53.499 37s42.166 13.5 65.499 13.5s45.166 -4.5 65.499 -13.5s38.166 -21.333 53.499 -37s27.5 -33.834 36.5 -54.501s13.5 -43 13.5 -67
s-4.5 -46.333 -13.5 -67s-21.167 -38.667 -36.5 -54s-33.166 -27.5 -53.499 -36.5s-42.166 -13.5 -65.499 -13.5s-45.166 4.5 -65.499 13.5s-38.166 21.167 -53.499 36.5s-27.5 33.333 -36.5 54s-13.5 43 -13.5 67z" />
    <glyph glyph-name="uni0686" unicode="&#x686;" horiz-adv-x="1268" arabic-form="isolated" 
d="M742 300c-7.33301 12.667 -12.832 25.166 -16.499 37.499s-7.16699 26.833 -10.5 43.5c-6 34.667 -12.333 68 -19 100s-17.5 60.167 -32.5 84.5s-35.833 43.833 -62.5 58.5s-62.667 22 -108 22c-7.33301 0 -19.166 -0.5 -35.499 -1.5s-35.833 -2.83301 -58.5 -5.5
s-48 -6.5 -76 -11.5s-57.333 -11.833 -88 -20.5v267c59.333 16 117.166 30.167 173.499 42.5s115.166 18.5 176.499 18.5c64.667 0 122.834 -8.66699 174.501 -26s96.334 -42.166 134.001 -74.499s68 -71.333 91 -117s38.167 -96.834 45.5 -153.501c4 -32 9 -63.667 15 -95
s14.167 -59.5 24.5 -84.5s24.166 -45.167 41.499 -60.5s39.666 -23.333 66.999 -24v-300h-599c-34.667 0 -66.334 -4.5 -95.001 -13.5s-53.167 -22.833 -73.5 -41.5s-36.166 -41.834 -47.499 -69.501s-17 -59.834 -17 -96.501c0 -29.333 5.5 -57.166 16.5 -83.499
s28.167 -49.5 51.5 -69.5s53.5 -35.833 90.5 -47.5s81.5 -17.5 133.5 -17.5h12c4.66699 0 9.66699 0.333008 15 1l10 -287c-13.333 -1.33301 -26.833 -2.33301 -40.5 -3s-27.5 -1 -41.5 -1c-108 0 -199.5 14.833 -274.5 44.5s-136.167 68.834 -183.5 117.501
s-81.666 103.5 -102.999 164.5s-32 123.167 -32 186.5c0 80.667 14.167 152.834 42.5 216.501s68.5 117.667 120.5 162s114.667 78.333 188 102s154.666 35.5 243.999 35.5h147zM540.001 -229.001c0 18.667 3.5 36.5 10.5 53.5s16.667 31.667 29 44
s26.833 22.166 43.5 29.499s34.334 11 53.001 11s36.167 -3.66699 52.5 -11s30.666 -17.166 42.999 -29.499s22 -27 29 -44s10.5 -34.833 10.5 -53.5c0 -19.333 -3.5 -37.166 -10.5 -53.499s-16.667 -30.833 -29 -43.5s-26.666 -22.5 -42.999 -29.5
s-33.833 -10.5 -52.5 -10.5s-36.334 3.5 -53.001 10.5s-31.167 16.833 -43.5 29.5s-22 27.167 -29 43.5s-10.5 34.166 -10.5 53.499zM869.001 -229.001c0 18.667 3.5 36.5 10.5 53.5s16.667 31.667 29 44s26.666 22.166 42.999 29.499s33.833 11 52.5 11
s36.167 -3.66699 52.5 -11s30.666 -17.166 42.999 -29.499s22 -27 29 -44s10.5 -34.833 10.5 -53.5c0 -19.333 -3.5 -37.166 -10.5 -53.499s-16.667 -30.833 -29 -43.5s-26.666 -22.5 -42.999 -29.5s-33.833 -10.5 -52.5 -10.5s-36.167 3.5 -52.5 10.5
s-30.666 16.833 -42.999 29.5s-22 27.167 -29 43.5s-10.5 34.166 -10.5 53.499zM703.001 -536.001c0 18.667 3.5 36.5 10.5 53.5s16.667 31.667 29 44s26.666 22.166 42.999 29.499s33.833 11 52.5 11s36.167 -3.66699 52.5 -11s30.666 -17.166 42.999 -29.499
s22 -27 29 -44s10.5 -34.833 10.5 -53.5c0 -19.333 -3.5 -37.166 -10.5 -53.499s-16.667 -30.833 -29 -43.5s-26.666 -22.5 -42.999 -29.5s-33.833 -10.5 -52.5 -10.5s-36.167 3.5 -52.5 10.5s-30.666 16.833 -42.999 29.5s-22 27.167 -29 43.5s-10.5 34.166 -10.5 53.499z
" />
    <glyph glyph-name="uni0688" unicode="&#x688;" horiz-adv-x="1048" arabic-form="isolated" 
d="M43 0v285h413c30.667 0 56 3.33301 76 10s35.667 15.334 47 26.001s19.333 22.5 24 35.5s7 26.167 7 39.5c0 22 -10.5 48.667 -31.5 80s-48.5 65 -82.5 101s-72.5 72.667 -115.5 110s-86.5 72.666 -130.5 105.999l250 245c67.333 -57.333 128 -114 182 -170
s100 -110.667 138 -164s67.167 -105.333 87.5 -156s30.5 -99.334 30.5 -146.001c0 -53.333 -8 -104.166 -24 -152.499s-43 -91 -81 -128s-88.167 -66.5 -150.5 -88.5s-139.5 -33 -231.5 -33h-408zM121 1129l0.000976562 140h105v551h169v-297c25.333 16 52.333 28.667 81 38
s60 14 94 14c40 0 74.833 -6.66699 104.5 -20s54.167 -31.5 73.5 -54.5s33.666 -50 42.999 -81s14 -64.5 14 -100.5v-190h-684zM638.001 1310c0 24 -2.50098 44.168 -7.50098 60.501s-12.167 29.333 -21.5 39s-20.666 16.5 -33.999 20.5s-28.333 6 -45 6
c-18.667 0 -37.5 -4.16699 -56.5 -12.5s-37.333 -19.833 -55 -34.5s-34 -32.334 -49 -53.001s-27.5 -43 -37.5 -67h306v41z" />
    <glyph glyph-name="uni0691" unicode="&#x691;" horiz-adv-x="747" arabic-form="isolated" 
d="M-3 -156c58 12 103.001 28.668 135.001 50.001s55.667 46 71 74s24.666 59 27.999 93s5 70.333 5 109v710h361v-661c0 -96.667 -9.16699 -183 -27.5 -259s-49 -142.167 -92 -198.5s-100.167 -102.833 -171.5 -139.5s-160 -63.334 -266 -80.001zM24.001 1145
l0.000976562 140h105v551h169v-297c25.333 16 52.333 28.667 81 38s60 14 94 14c40 0 74.833 -6.66699 104.5 -20s54.167 -31.5 73.5 -54.5s33.666 -50 42.999 -81s14 -64.5 14 -100.5v-190h-684zM541.002 1326c0 24 -2.50098 44.168 -7.50098 60.501
s-12.167 29.333 -21.5 39s-20.666 16.5 -33.999 20.5s-28.333 6 -45 6c-18.667 0 -37.5 -4.16699 -56.5 -12.5s-37.333 -19.833 -55 -34.5s-34 -32.334 -49 -53.001s-27.5 -43 -37.5 -67h306v41z" />
    <glyph glyph-name="uni0698" unicode="&#x698;" horiz-adv-x="747" arabic-form="isolated" 
d="M-3 -156c58 12 103.001 28.668 135.001 50.001s55.667 46 71 74s24.666 59 27.999 93s5 70.333 5 109v710h361v-661c0 -96.667 -9.16699 -183 -27.5 -259s-49 -142.167 -92 -198.5s-100.167 -102.833 -171.5 -139.5s-160 -63.334 -266 -80.001zM49.001 1327
c0 24 4.5 46.333 13.5 67s21.167 38.834 36.5 54.501s33.333 28 54 37s42.667 13.5 66 13.5s45.166 -4.5 65.499 -13.5s38.166 -21.333 53.499 -37s27.5 -33.834 36.5 -54.501s13.5 -43 13.5 -67s-4.5 -46.333 -13.5 -67s-21.167 -38.667 -36.5 -54
s-33.166 -27.5 -53.499 -36.5s-42.166 -13.5 -65.499 -13.5s-45.333 4.5 -66 13.5s-38.667 21.167 -54 36.5s-27.5 33.333 -36.5 54s-13.5 43 -13.5 67zM460.001 1327c0 24 4.5 46.333 13.5 67s21.167 38.834 36.5 54.501s33.166 28 53.499 37s42.166 13.5 65.499 13.5
s45.166 -4.5 65.499 -13.5s38.166 -21.333 53.499 -37s27.5 -33.834 36.5 -54.501s13.5 -43 13.5 -67s-4.5 -46.333 -13.5 -67s-21.167 -38.667 -36.5 -54s-33.166 -27.5 -53.499 -36.5s-42.166 -13.5 -65.499 -13.5s-45.166 4.5 -65.499 13.5s-38.166 21.167 -53.499 36.5
s-27.5 33.333 -36.5 54s-13.5 43 -13.5 67zM253.001 1713c0 24 4.5 46.333 13.5 67s21.167 38.834 36.5 54.501s33.166 28 53.499 37s42.166 13.5 65.499 13.5s45.166 -4.5 65.499 -13.5s38.166 -21.333 53.499 -37s27.5 -33.834 36.5 -54.501s13.5 -43 13.5 -67
s-4.5 -46.333 -13.5 -67s-21.167 -38.667 -36.5 -54s-33.166 -27.5 -53.499 -36.5s-42.166 -13.5 -65.499 -13.5s-45.166 4.5 -65.499 13.5s-38.166 21.167 -53.499 36.5s-27.5 33.333 -36.5 54s-13.5 43 -13.5 67z" />
    <glyph glyph-name="uni06A4" unicode="&#x6a4;" horiz-adv-x="2279" arabic-form="isolated" 
d="M1788 285v136c0 38.667 -4.33301 71 -13 97s-20 46.833 -34 62.5s-29.667 26.834 -47 33.501s-34.333 10 -51 10c-18.667 0 -37 -3.16699 -55 -9.5s-34 -16.333 -48 -30s-25.167 -30.834 -33.5 -51.501s-12.5 -45 -12.5 -73c0 -24 4.33301 -46.5 13 -67.5
s21 -39.5 37 -55.5s35.333 -28.667 58 -38s48 -14 76 -14h110zM628 0c-86.667 0 -162.501 4.99512 -227.501 14.9951s-120.667 24.167 -167 42.5s-84.666 40.333 -114.999 66s-54.166 54 -71.499 85s-29.5 64.167 -36.5 99.5s-10.5 72 -10.5 110c0 13.333 1 30 3 50
s4.5 41.833 7.5 65.5s6.5 48 10.5 73l12 71.5l165 -14.5l165 -14.5l-3 -14c-6 -32 -11.333 -63 -16 -93s-7 -56.333 -7 -79c0 -29.333 4.66699 -55.166 14 -77.499s27.166 -41 53.499 -56s63 -26.167 110 -33.5s107.833 -11 182.5 -11h480
c-4.66699 12.667 -9 26.334 -13 41.001s-7.5 29.667 -10.5 45s-5.33301 30.333 -7 45s-2.5 28 -2.5 40c0 74.667 13.5 140.834 40.5 198.501s64 106 111 145s102.5 68.667 166.5 89s132.667 30.5 206 30.5c72.667 0 138.667 -10.5 198 -31.5s110 -51.167 152 -90.5
s74.333 -87.166 97 -143.499s34 -120.166 34 -191.499v-462h-1521zM1261 1327c0 24 4.5 46.333 13.5 67s21.167 38.834 36.5 54.501s33.333 28 54 37s42.667 13.5 66 13.5s45.166 -4.5 65.499 -13.5s38.166 -21.333 53.499 -37s27.5 -33.834 36.5 -54.501s13.5 -43 13.5 -67
s-4.5 -46.333 -13.5 -67s-21.167 -38.667 -36.5 -54s-33.166 -27.5 -53.499 -36.5s-42.166 -13.5 -65.499 -13.5s-45.333 4.5 -66 13.5s-38.667 21.167 -54 36.5s-27.5 33.333 -36.5 54s-13.5 43 -13.5 67zM1672 1327c0 24 4.5 46.333 13.5 67s21.167 38.834 36.5 54.501
s33.166 28 53.499 37s42.166 13.5 65.499 13.5s45.166 -4.5 65.499 -13.5s38.166 -21.333 53.499 -37s27.5 -33.834 36.5 -54.501s13.5 -43 13.5 -67s-4.5 -46.333 -13.5 -67s-21.167 -38.667 -36.5 -54s-33.166 -27.5 -53.499 -36.5s-42.166 -13.5 -65.499 -13.5
s-45.166 4.5 -65.499 13.5s-38.166 21.167 -53.499 36.5s-27.5 33.333 -36.5 54s-13.5 43 -13.5 67zM1465 1713c0 24 4.5 46.333 13.5 67s21.167 38.834 36.5 54.501s33.166 28 53.499 37s42.166 13.5 65.499 13.5s45.166 -4.5 65.499 -13.5s38.166 -21.333 53.499 -37
s27.5 -33.834 36.5 -54.501s13.5 -43 13.5 -67s-4.5 -46.333 -13.5 -67s-21.167 -38.667 -36.5 -54s-33.166 -27.5 -53.499 -36.5s-42.166 -13.5 -65.499 -13.5s-45.166 4.5 -65.499 13.5s-38.166 21.167 -53.499 36.5s-27.5 33.333 -36.5 54s-13.5 43 -13.5 67z" />
    <glyph glyph-name="uni06A9" unicode="&#x6a9;" horiz-adv-x="1892" arabic-form="isolated" 
d="M629 0c-87.333 0 -163.501 5 -228.501 15s-120.667 24.167 -167 42.5s-84.666 40.333 -114.999 66s-54.166 54 -71.499 85s-29.5 64.167 -36.5 99.5s-10.5 72 -10.5 110c0 13.333 0.833008 30 2.5 50s4 41.833 7 65.5s6.5 48 10.5 73s8.33301 48.833 13 71.5l162 -14.5
l162 -14.5c-6.66699 -35.333 -11.334 -68.5 -14.001 -99.5s-4 -55.167 -4 -72.5c0 -33.333 4.66699 -62 14 -86s27 -43.833 53 -59.5s62.333 -27.334 109 -35.001s107.334 -11.5 182.001 -11.5h578c30.667 0 56 2.66699 76 8s35.667 12.333 47 21s19.166 18.667 23.499 30
s6.5 23 6.5 35c0 46 -34.167 98.667 -102.5 158s-167.833 126 -298.5 200l480 770l275 -171l-315 -519c47.333 -29.333 90 -60.666 128 -93.999s70.167 -68.333 96.5 -105s46.5 -75.167 60.5 -115.5s21 -82.5 21 -126.5c0 -51.333 -8.83301 -99.833 -26.5 -145.5
s-45.5 -85.5 -83.5 -119.5s-86.833 -61 -146.5 -81s-131.5 -30 -215.5 -30h-672z" />
    <glyph glyph-name="uni06AF" unicode="&#x6af;" horiz-adv-x="1892" arabic-form="isolated" 
d="M657 936l491 777l255 -154l-480 -770zM629 0c-87.333 0 -163.501 5 -228.501 15s-120.667 24.167 -167 42.5s-84.666 40.333 -114.999 66s-54.166 54 -71.499 85s-29.5 64.167 -36.5 99.5s-10.5 72 -10.5 110c0 13.333 0.833008 30 2.5 50s4 41.833 7 65.5
s6.5 48 10.5 73s8.33301 48.833 13 71.5l162 -14.5l162 -14.5c-6.66699 -35.333 -11.334 -68.5 -14.001 -99.5s-4 -55.167 -4 -72.5c0 -33.333 4.66699 -62 14 -86s27 -43.833 53 -59.5s62.333 -27.334 109 -35.001s107.334 -11.5 182.001 -11.5h578
c30.667 0 56 2.66699 76 8s35.667 12.333 47 21s19.166 18.667 23.499 30s6.5 23 6.5 35c0 46 -34.167 98.667 -102.5 158s-167.833 126 -298.5 200l480 770l275 -171l-315 -519c47.333 -29.333 90 -60.666 128 -93.999s70.167 -68.333 96.5 -105s46.5 -75.167 60.5 -115.5
s21 -82.5 21 -126.5c0 -51.333 -8.83301 -99.833 -26.5 -145.5s-45.5 -85.5 -83.5 -119.5s-86.833 -61 -146.5 -81s-131.5 -30 -215.5 -30h-672z" />
    <glyph glyph-name="uni06BA" unicode="&#x6ba;" horiz-adv-x="1460" arabic-form="isolated" 
d="M990 236c0 17.333 -2.16895 39.9971 -6.50195 67.9971s-10.666 58.5 -18.999 91.5s-18.5 67.5 -30.5 103.5s-26 71 -42 105l351 94c12.667 -33.333 25.334 -70.166 38.001 -110.499s24.167 -81.166 34.5 -122.499s18.666 -81.833 24.999 -121.5s9.5 -75.5 9.5 -107.5
c0 -96 -16 -184.667 -48 -266s-78 -151.666 -138 -210.999s-133.167 -105.833 -219.5 -139.5s-183.833 -50.5 -292.5 -50.5c-114 0 -212.167 16.333 -294.5 49s-150 76.334 -203 131.001s-92 117.667 -117 189s-37.5 145.333 -37.5 222c0 34.667 3 72 9 112
s15 80.5 27 121.5s26.833 81.667 44.5 122s37.834 78.166 60.501 113.499l149 -79.5l149 -78.5c-28 -45.333 -50.5 -93.833 -67.5 -145.5s-25.5 -99.167 -25.5 -142.5c0 -42.667 7 -82.167 21 -118.5s34.667 -67.833 62 -94.5s61.333 -47.667 102 -63s88 -23 142 -23
c49.333 0 93.5 7.83301 132.5 23.5s72.167 38.5 99.5 68.5s48.333 66.833 63 110.5s22 93.5 22 149.5z" />
    <glyph glyph-name="uni06BE" unicode="&#x6be;" horiz-adv-x="1642" arabic-form="isolated" 
d="M779 285c6.66699 12.667 12.667 27.001 18 43.001s9.5 32.833 12.5 50.5s5.33301 35.5 7 53.5s2.5 35.333 2.5 52c0 30 -2.83301 59.167 -8.5 87.5s-14 53.333 -25 75s-24.833 39.167 -41.5 52.5s-36 20 -58 20c-23.333 0 -43.333 -5.83301 -60 -17.5
s-30.5 -27.334 -41.5 -47.001s-19.167 -42 -24.5 -67s-8 -50.833 -8 -77.5c0 -20.667 1.5 -42 4.5 -64s7.33301 -43.167 13 -63.5s12.667 -39 21 -56s17.833 -30.833 28.5 -41.5h160zM1195 285.001c3.33301 10 5.33398 21.667 6.00098 35s1 24 1 32
c0 31.333 -4.5 61.666 -13.5 90.999s-23.5 56.833 -43.5 82.5s-46.333 48.834 -79 69.501s-72.334 38 -119.001 52c13.333 -21.333 23.833 -46.333 31.5 -75s13.5 -59 17.5 -91s6.5 -64.833 7.5 -98.5s1.5 -66.167 1.5 -97.5h190zM72.001 -189.999
c-20 36 -37.001 75.1621 -51.001 117.495s-21 83.5 -21 123.5c0 48.667 8.16699 88.334 24.5 119.001s38.5 54.5 66.5 71.5s60.333 28.5 97 34.5s75.667 9 117 9h12c-5.33301 14.667 -10 30 -14 46s-7.33301 31.5 -10 46.5s-4.66699 29.5 -6 43.5s-2 26.333 -2 37
c0 54.667 12.167 110.334 36.5 167.001s56.5 109 96.5 157l-62 13c10.667 28.667 21.667 54.5 33 77.5s23.5 44.5 36.5 64.5s26.833 39.167 41.5 57.5s31 36.5 49 54.5c174.667 -33.333 324.667 -70.166 450 -110.499s228.5 -88.166 309.5 -143.499s140.667 -120 179 -194
s57.5 -161.333 57.5 -262c0 -3.33301 -0.166992 -11.166 -0.5 -23.499s-1 -31.5 -2 -57.5l-4 -102l-6.5 -156h-1169c-20 0 -36 -4.5 -48 -13.5s-21 -21.833 -27 -38.5s-10.167 -36.667 -12.5 -60s-4.16602 -49.333 -5.49902 -78h-165z" />
    <glyph glyph-name="uni06C1" unicode="&#x6c1;" horiz-adv-x="1073" arabic-form="isolated" 
d="M461 0c-73.333 0 -138.499 10.5029 -195.499 31.5029s-105.167 49.833 -144.5 86.5s-69.333 79.5 -90 128.5s-31 101.5 -31 157.5c0 59.333 7 113.833 21 163.5s33.167 94.5 57.5 134.5s52.666 75 84.999 105s66.5 55.167 102.5 75.5s72.833 35.666 110.5 45.999
s74.5 15.5 110.5 15.5c56.667 0 113.5 -11 170.5 -33s108 -55.5 153 -100.5s81.667 -101.333 110 -169s42.5 -146.834 42.5 -237.501c0 -52 -10.5 -102.333 -31.5 -151s-51 -91.834 -90 -129.501s-86.167 -67.667 -141.5 -90s-117.333 -33.5 -186 -33.5h-53z
M324.001 437.003c0 -23.333 2.83203 -44.332 8.49902 -62.999s14.667 -34.5 27 -47.5s28.333 -23.167 48 -30.5s43.834 -11 72.501 -11c28 0 51.5 4.33301 70.5 13s34 20.167 45 34.5s18.833 30.666 23.5 48.999s7 36.833 7 55.5c0 36.667 -3.83301 69.167 -11.5 97.5
s-18.334 52 -32.001 71s-29.667 33.333 -48 43s-37.833 14.5 -58.5 14.5c-18 0 -36.167 -4.66699 -54.5 -14s-34.666 -23.333 -48.999 -42s-26 -42.167 -35 -70.5s-13.5 -61.5 -13.5 -99.5z" />
    <glyph glyph-name="uni06C2.fina" unicode="&#x6c2;" horiz-adv-x="864" 
d="M635 1176c-22.667 7.33301 -45.502 12.6709 -68.502 16.0039s-45.833 5 -68.5 5c-33.333 0 -59.333 -6.33301 -78 -19s-28 -27.667 -28 -45c0 -16 4.5 -29.333 13.5 -40s20.667 -19.334 35 -26.001s30.333 -11.5 48 -14.5s35.167 -4.5 52.5 -4.5h127v-232h-609v232h93
c-9.33301 17.333 -16.666 34.666 -21.999 51.999s-8 34.333 -8 51c0 46 9.5 86.167 28.5 120.5s43.667 62.666 74 84.999s64.5 39 102.5 50s76 16.5 114 16.5c12.667 0 25.834 -0.166992 39.501 -0.5s28.667 -1.33301 45 -3s35 -3.83398 56 -6.50098s45.5 -6 73.5 -10z
M19.998 -56.9951c-5.33301 20.667 -9.33496 38.3291 -12.002 52.9961s-4.5 28.834 -5.5 42.501s-1.66699 28.167 -2 43.5s-0.5 34 -0.5 56c0 62.667 10.167 121.5 30.5 176.5s47.666 102.833 81.999 143.5s74.166 72.834 119.499 96.501s93 35.5 143 35.5
c40 0 75.167 -4.66699 105.5 -14s57.5 -22 81.5 -38s46 -34.333 66 -55l60 -65c14.667 -17.333 29.334 -33.833 44.001 -49.5s29.334 -29.834 44.001 -42.501s29.334 -22.667 44.001 -30s29.667 -11 45 -11s27.5 -2.16699 36.5 -6.5s15.667 -11 20 -20s7 -20.833 8 -35.5
s1.5 -32 1.5 -52v-53c0 -26 -1.16699 -46.833 -3.5 -62.5s-6 -27.5 -11 -35.5s-11.667 -13.333 -20 -16s-18.833 -4 -31.5 -4h-45c-40 0 -75.167 7.33301 -105.5 22s-57.5 32.834 -81.5 54.501s-45.667 45.334 -65 71.001s-38.166 49.334 -56.499 71.001
s-37 39.834 -56 54.501s-40.167 22 -63.5 22c-10.667 0 -22.667 -3.33301 -36 -10s-25.833 -17.834 -37.5 -33.501s-21.5 -36.334 -29.5 -62.001s-12 -57.5 -12 -95.5c0 -43.333 6.33301 -93.666 19 -150.999h-276z" />
    <glyph glyph-name="uni06C3.fina" unicode="&#x6c3;" horiz-adv-x="1205" 
d="M633 638c-43.333 -11.333 -82.499 -23.832 -117.499 -37.499s-64.667 -28.834 -89 -45.501s-43.166 -35 -56.499 -55s-20 -42 -20 -66c0 -28.667 11.667 -51.334 35 -68.001s54 -25 92 -25c27.333 0 54.166 2.83301 80.499 8.5s51.166 13.834 74.499 24.501z
M992.001 361.001c0 -14.667 0.666992 -26.833 2 -36.5s3.83301 -17.5 7.5 -23.5s8.66699 -10.167 15 -12.5s14.833 -3.5 25.5 -3.5h163c15.333 0 27.5 -2.16699 36.5 -6.5s15.667 -11 20 -20s7 -20.833 8 -35.5s1.5 -32 1.5 -52v-53c0 -26 -1.16699 -46.833 -3.5 -62.5
s-6 -27.5 -11 -35.5s-11.667 -13.333 -20 -16s-18.833 -4 -31.5 -4h-209c-44 0 -83 2.66699 -117 8s-63.5 12.666 -88.5 21.999s-46.5 20.833 -64.5 34.5s-33 29.167 -45 46.5c-42 -15.333 -82.333 -26.666 -121 -33.999s-78 -11 -118 -11
c-51.333 0 -103.166 6.83301 -155.499 20.5s-99.833 34.834 -142.5 63.501s-77.334 65.5 -104.001 110.5s-40 98.833 -40 161.5c0 51.333 9.66699 97.833 29 139.5s45.166 79.5 77.499 113.5s69.833 64.167 112.5 90.5s87.334 49.5 134.001 69.5s94 37.333 142 52
s93.333 27 136 37c0 19.333 0.333008 39.166 1 59.499s1 40.5 1 60.5h359v-683zM274.001 1383c0 24 4.5 46.333 13.5 67s21.167 38.834 36.5 54.501s33.333 28 54 37s42.667 13.5 66 13.5s45.166 -4.5 65.499 -13.5s38.166 -21.333 53.499 -37s27.5 -33.834 36.5 -54.501
s13.5 -43 13.5 -67s-4.5 -46.333 -13.5 -67s-21.167 -38.667 -36.5 -54s-33.166 -27.5 -53.499 -36.5s-42.166 -13.5 -65.499 -13.5s-45.333 4.5 -66 13.5s-38.667 21.167 -54 36.5s-27.5 33.333 -36.5 54s-13.5 43 -13.5 67zM685.001 1383c0 24 4.5 46.333 13.5 67
s21.167 38.834 36.5 54.501s33.166 28 53.499 37s42.166 13.5 65.499 13.5s45.166 -4.5 65.499 -13.5s38.166 -21.333 53.499 -37s27.5 -33.834 36.5 -54.501s13.5 -43 13.5 -67s-4.5 -46.333 -13.5 -67s-21.167 -38.667 -36.5 -54s-33.166 -27.5 -53.499 -36.5
s-42.166 -13.5 -65.499 -13.5s-45.166 4.5 -65.499 13.5s-38.166 21.167 -53.499 36.5s-27.5 33.333 -36.5 54s-13.5 43 -13.5 67z" />
    <glyph glyph-name="uni06CC" unicode="&#x6cc;" horiz-adv-x="1700" arabic-form="isolated" 
d="M1131 54c0 9.33301 -3.16797 19.165 -9.50098 29.498s-14.5 20.666 -24.5 30.999s-21.5 20.833 -34.5 31.5l-39.5 31l-79.5 64c-27 22.667 -51.5 47.667 -73.5 75s-40.167 57.333 -54.5 90s-21.5 69 -21.5 109c0 42.667 7 81.334 21 116.001s33 65.5 57 92.5
s52.167 50.333 84.5 70s66.333 36 102 49s72.334 22.5 110.001 28.5s74.167 9 109.5 9s71.833 -3.16699 109.5 -9.5s72.334 -13.5 104.001 -21.5s58.334 -15.5 80.001 -22.5s34.5 -11.5 38.5 -13.5l-84 -307c-35.333 14 -70 27 -104 39
c-29.333 10 -59.833 19.167 -91.5 27.5s-59.5 12.5 -83.5 12.5c-11.333 0 -22.5 -0.833008 -33.5 -2.5s-21 -4.83398 -30 -9.50098s-16.333 -11.167 -22 -19.5s-8.5 -18.833 -8.5 -31.5c0 -12 3.16699 -23.667 9.5 -35s14.833 -22.5 25.5 -33.5s23 -21.667 37 -32l43 -30.5
c30 -20.667 58.5 -42 85.5 -64s51 -45.333 72 -70s37.667 -50.667 50 -78s18.5 -56.333 18.5 -87c0 -40 -7.33301 -80.5 -22 -121.5s-36.167 -80.667 -64.5 -119s-63.166 -74.333 -104.499 -108s-88.5 -63 -141.5 -88s-111.667 -44.667 -176 -59s-133.5 -21.5 -207.5 -21.5
c-98.667 0 -186.5 8.83301 -263.5 26.5s-144.333 41.334 -202 71.001s-106.334 64 -146.001 103s-71.834 80 -96.501 123s-42.5 86.5 -53.5 130.5s-16.5 86 -16.5 126c0 38 4.5 76.833 13.5 116.5s21.5 79.334 37.5 119.001s35 78.5 57 116.5s46.333 74 73 108l300 -156
c-40.667 -49.333 -70.834 -99.333 -90.501 -150s-29.5 -97 -29.5 -139c0 -40.667 8.16699 -78.667 24.5 -114s41.333 -66.166 75 -92.499s76.5 -47 128.5 -62s114 -22.5 186 -22.5c48.667 0 94.5 4.5 137.5 13.5s80.667 21.5 113 37.5s58 34.667 77 56s28.5 44 28.5 68z" />
    <glyph glyph-name="uni06D2" unicode="&#x6d2;" horiz-adv-x="2174" arabic-form="isolated" 
d="M902 552c-193.333 -47.333 -335.838 -91.332 -427.505 -131.999s-137.5 -77 -137.5 -109c0 -14 8.5 -25.667 25.5 -35s46 -16.833 87 -22.5s95.833 -9.66699 164.5 -12s154.334 -3.5 257.001 -3.5c52 0 108.333 1.16699 169 3.5s122.834 5.66602 186.501 9.99902
s128 9.5 193 15.5s128 12.5 189 19.5s119 14.5 174 22.5s104.5 16.333 148.5 25l-24 -313c-58.667 -10.667 -120.167 -20.167 -184.5 -28.5s-129.166 -15.833 -194.499 -22.5s-130 -12.334 -194 -17.001s-125.333 -8.5 -184 -11.5s-113.334 -5.16699 -164.001 -6.5
s-95 -2 -133 -2c-166 0 -303.833 8.66699 -413.5 26s-197 41 -262 71s-110.833 65.667 -137.5 107s-40 86 -40 134c0 46.667 10.833 90.334 32.5 131.001s51.334 78.667 89.001 114s82.334 68.333 134.001 99s107.334 59 167.001 85s122 50 187 72s130.167 42.333 195.5 61z
" />
    <glyph glyph-name="uni06D3" unicode="&#x6d3;" horiz-adv-x="2174" arabic-form="isolated" 
d="M902 552c-193.333 -47.333 -335.838 -91.332 -427.505 -131.999s-137.5 -77 -137.5 -109c0 -14 8.5 -25.667 25.5 -35s46 -16.833 87 -22.5s95.833 -9.66699 164.5 -12s154.334 -3.5 257.001 -3.5c52 0 108.333 1.16699 169 3.5s122.834 5.66602 186.501 9.99902
s128 9.5 193 15.5s128 12.5 189 19.5s119 14.5 174 22.5s104.5 16.333 148.5 25l-24 -313c-58.667 -10.667 -120.167 -20.167 -184.5 -28.5s-129.166 -15.833 -194.499 -22.5s-130 -12.334 -194 -17.001s-125.333 -8.5 -184 -11.5s-113.334 -5.16699 -164.001 -6.5
s-95 -2 -133 -2c-166 0 -303.833 8.66699 -413.5 26s-197 41 -262 71s-110.833 65.667 -137.5 107s-40 86 -40 134c0 46.667 10.833 90.334 32.5 131.001s51.334 78.667 89.001 114s82.334 68.333 134.001 99s107.334 59 167.001 85s122 50 187 72s130.167 42.333 195.5 61z
M595.995 1313c-22.667 7.33301 -45.502 12.6709 -68.502 16.0039s-45.833 5 -68.5 5c-33.333 0 -59.333 -6.33301 -78 -19s-28 -27.667 -28 -45c0 -16 4.5 -29.333 13.5 -40s20.667 -19.334 35 -26.001s30.333 -11.5 48 -14.5s35.167 -4.5 52.5 -4.5h127v-232h-609v232h93
c-9.33301 17.333 -16.666 34.666 -21.999 51.999s-8 34.333 -8 51c0 46 9.5 86.167 28.5 120.5s43.667 62.666 74 84.999s64.5 39 102.5 50s76 16.5 114 16.5c12.667 0 25.834 -0.166992 39.501 -0.5s28.667 -1.33301 45 -3s35 -3.83398 56 -6.50098s45.5 -6 73.5 -10z" />
    <glyph glyph-name="uni06D5.fina" unicode="&#x6d5;" horiz-adv-x="1205" 
d="M633 638c-43.333 -11.333 -82.499 -23.832 -117.499 -37.499s-64.667 -28.834 -89 -45.501s-43.166 -35 -56.499 -55s-20 -42 -20 -66c0 -28.667 11.667 -51.334 35 -68.001s54 -25 92 -25c27.333 0 54.166 2.83301 80.499 8.5s51.166 13.834 74.499 24.501z
M992.001 361.001c0 -14.667 0.666992 -26.833 2 -36.5s3.83301 -17.5 7.5 -23.5s8.66699 -10.167 15 -12.5s14.833 -3.5 25.5 -3.5h163c15.333 0 27.5 -2.16699 36.5 -6.5s15.667 -11 20 -20s7 -20.833 8 -35.5s1.5 -32 1.5 -52v-53c0 -26 -1.16699 -46.833 -3.5 -62.5
s-6 -27.5 -11 -35.5s-11.667 -13.333 -20 -16s-18.833 -4 -31.5 -4h-209c-44 0 -83 2.66699 -117 8s-63.5 12.666 -88.5 21.999s-46.5 20.833 -64.5 34.5s-33 29.167 -45 46.5c-42 -15.333 -82.333 -26.666 -121 -33.999s-78 -11 -118 -11
c-51.333 0 -103.166 6.83301 -155.499 20.5s-99.833 34.834 -142.5 63.501s-77.334 65.5 -104.001 110.5s-40 98.833 -40 161.5c0 51.333 9.66699 97.833 29 139.5s45.166 79.5 77.499 113.5s69.833 64.167 112.5 90.5s87.334 49.5 134.001 69.5s94 37.333 142 52
s93.333 27 136 37c0 19.333 0.333008 39.166 1 59.499s1 40.5 1 60.5h359v-683z" />
    <glyph glyph-name="uniFB51" unicode="&#x671;" horiz-adv-x="734" arabic-form="final" 
d="M150 1440h361v-1022c0 -46.667 8.33301 -80.5 25 -101.5s44.334 -31.5 83.001 -31.5h115c16 0 28.333 -2.16699 37 -6.5s15.334 -11 20.001 -20s7.5 -20.833 8.5 -35.5s1.5 -32 1.5 -52v-53c0 -26 -1.16699 -46.833 -3.5 -62.5s-6 -27.5 -11 -35.5
s-11.833 -13.333 -20.5 -16s-19.334 -4 -32.001 -4h-215c-64.667 0 -120.334 8 -167.001 24s-85 39.5 -115 70.5s-52 69.167 -66 114.5s-21 97.333 -21 156v1075zM11 1512l-0.000976562 132.003h86v226h131v-45c18.667 14 37.334 25.167 56.001 33.5
s36.167 14.666 52.5 18.999s31.5 7.16602 45.5 8.49902s26 2 36 2c29.333 0 56.166 -4.33301 80.499 -13s45.333 -21.667 63 -39s31.334 -38.833 41.001 -64.5s14.5 -55.834 14.5 -90.501v-169h-606zM456.999 1683c0 35.333 -7.66797 59.667 -23.001 73s-35 20 -59 20
c-13.333 0 -27.666 -3.66699 -42.999 -11s-29.5 -17 -42.5 -29s-23.667 -25.833 -32 -41.5s-12.5 -32.167 -12.5 -49.5h212v38z" />
    <glyph glyph-name="uniFB57" unicode="&#x67e;" horiz-adv-x="1988" arabic-form="final" 
d="M628 0c-86.667 0 -162.503 5.00195 -227.503 15.002s-120.833 24.167 -167.5 42.5s-85 40.333 -115 66s-53.667 54 -71 85s-29.5 64.167 -36.5 99.5s-10.5 72 -10.5 110c0 13.333 0.833008 30 2.5 50s4 41.833 7 65.5s6.33301 48 10 73s7.83398 48.833 12.501 71.5
l162 -14.5l162 -14.5c-6.66699 -35.333 -11.334 -68.5 -14.001 -99.5s-4 -55.167 -4 -72.5c0 -33.333 4.66699 -62 14 -86s27.166 -43.833 53.499 -59.5s62.833 -27.334 109.5 -35.001s107.334 -11.5 182.001 -11.5h599c42 0 72.667 10.333 92 31s29 49.667 29 87v477h362
v-517v-19.5c0 -6.33301 -0.333008 -12.833 -1 -19.5c32.667 -14.667 66.834 -24.834 102.501 -30.501s69.834 -8.5 102.501 -8.5h5c16 0 28.333 -2.16699 37 -6.5s15.334 -11 20.001 -20s7.5 -20.833 8.5 -35.5s1.5 -32 1.5 -52v-53c0 -26 -1.16699 -46.833 -3.5 -62.5
s-6 -27.5 -11 -35.5s-11.833 -13.333 -20.5 -16s-19.334 -4 -32.001 -4h-8c-46.667 0 -94.334 9 -143.001 27s-94 43.667 -136 77c-27.333 -32 -62.666 -57.333 -105.999 -76s-97.666 -28 -162.999 -28h-804zM592.997 -370.998c0 24 4.5 46.333 13.5 67
s21.167 38.834 36.5 54.501s33.333 28 54 37s42.667 13.5 66 13.5s45.166 -4.5 65.499 -13.5s38.166 -21.333 53.499 -37s27.5 -33.834 36.5 -54.501s13.5 -43 13.5 -67s-4.5 -46.333 -13.5 -67s-21.167 -38.667 -36.5 -54s-33.166 -27.5 -53.499 -36.5
s-42.166 -13.5 -65.499 -13.5s-45.333 4.5 -66 13.5s-38.667 21.167 -54 36.5s-27.5 33.333 -36.5 54s-13.5 43 -13.5 67zM1004 -370.998c0 24 4.5 46.333 13.5 67s21.167 38.834 36.5 54.501s33.166 28 53.499 37s42.166 13.5 65.499 13.5s45.166 -4.5 65.499 -13.5
s38.166 -21.333 53.499 -37s27.5 -33.834 36.5 -54.501s13.5 -43 13.5 -67s-4.5 -46.333 -13.5 -67s-21.167 -38.667 -36.5 -54s-33.166 -27.5 -53.499 -36.5s-42.166 -13.5 -65.499 -13.5s-45.166 4.5 -65.499 13.5s-38.166 21.167 -53.499 36.5s-27.5 33.333 -36.5 54
s-13.5 43 -13.5 67zM796.997 -754.998c0 24 4.5 46.333 13.5 67s21.167 38.834 36.5 54.501s33.166 28 53.499 37s42.166 13.5 65.499 13.5s45.166 -4.5 65.499 -13.5s38.166 -21.333 53.499 -37s27.5 -33.834 36.5 -54.501s13.5 -43 13.5 -67s-4.5 -46.333 -13.5 -67
s-21.167 -38.667 -36.5 -54s-33.166 -27.5 -53.499 -36.5s-42.166 -13.5 -65.499 -13.5s-45.166 4.5 -65.499 13.5s-38.166 21.167 -53.499 36.5s-27.5 33.333 -36.5 54s-13.5 43 -13.5 67z" />
    <glyph glyph-name="uniFB58" unicode="&#x67e;" horiz-adv-x="819" arabic-form="initial" 
d="M-2 0c-12.667 0 -23.334 1.33301 -32.001 4s-15.5 8 -20.5 16s-8.66699 19.833 -11 35.5s-3.5 36.5 -3.5 62.5v53c0 20 0.5 37.333 1.5 52s3.83301 26.5 8.5 35.5s11.334 15.667 20.001 20s21 6.5 37 6.5h308v595h362v-880h-670zM47 -371c0 24 4.5 46.333 13.5 67
s21.167 38.834 36.5 54.501s33.333 28 54 37s42.667 13.5 66 13.5s45.166 -4.5 65.499 -13.5s38.166 -21.333 53.499 -37s27.5 -33.834 36.5 -54.501s13.5 -43 13.5 -67s-4.5 -46.333 -13.5 -67s-21.167 -38.667 -36.5 -54s-33.166 -27.5 -53.499 -36.5
s-42.166 -13.5 -65.499 -13.5s-45.333 4.5 -66 13.5s-38.667 21.167 -54 36.5s-27.5 33.333 -36.5 54s-13.5 43 -13.5 67zM458 -371c0 24 4.5 46.333 13.5 67s21.167 38.834 36.5 54.501s33.166 28 53.499 37s42.166 13.5 65.499 13.5s45.166 -4.5 65.499 -13.5
s38.166 -21.333 53.499 -37s27.5 -33.834 36.5 -54.501s13.5 -43 13.5 -67s-4.5 -46.333 -13.5 -67s-21.167 -38.667 -36.5 -54s-33.166 -27.5 -53.499 -36.5s-42.166 -13.5 -65.499 -13.5s-45.166 4.5 -65.499 13.5s-38.166 21.167 -53.499 36.5s-27.5 33.333 -36.5 54
s-13.5 43 -13.5 67zM251 -755c0 24 4.5 46.333 13.5 67s21.167 38.834 36.5 54.501s33.166 28 53.499 37s42.166 13.5 65.499 13.5s45.166 -4.5 65.499 -13.5s38.166 -21.333 53.499 -37s27.5 -33.834 36.5 -54.501s13.5 -43 13.5 -67s-4.5 -46.333 -13.5 -67
s-21.167 -38.667 -36.5 -54s-33.166 -27.5 -53.499 -36.5s-42.166 -13.5 -65.499 -13.5s-45.166 4.5 -65.499 13.5s-38.166 21.167 -53.499 36.5s-27.5 33.333 -36.5 54s-13.5 43 -13.5 67z" />
    <glyph glyph-name="uniFB59" unicode="&#x67e;" horiz-adv-x="817" arabic-form="medial" 
d="M577 363l0.000976562 -11.999c0 -4 -0.333008 -7.66699 -1 -11c36 -20.667 74.833 -35 116.5 -43s81.5 -12 119.5 -12h5c16 0 28.333 -2.16699 37 -6.5s15.334 -11 20.001 -20s7.5 -20.833 8.5 -35.5s1.5 -32 1.5 -52v-53c0 -26 -1.16699 -46.833 -3.5 -62.5
s-6 -27.5 -11 -35.5s-11.833 -13.333 -20.5 -16s-19.334 -4 -32.001 -4h-8c-50.667 0 -102.334 10.667 -155.001 32s-101 51.333 -145 90c-26.667 -36.667 -62.5 -66.167 -107.5 -88.5s-102.167 -33.5 -171.5 -33.5h-232c-12.667 0 -23.334 1.33301 -32.001 4
s-15.5 8 -20.5 16s-8.66699 19.833 -11 35.5s-3.5 36.5 -3.5 62.5v53c0 20 0.5 37.333 1.5 52s3.83301 26.5 8.5 35.5s11.334 15.667 20.001 20s21 6.5 37 6.5h140c28 0 47.833 6.66699 59.5 20s17.5 38.666 17.5 75.999v499h362v-517zM19.001 -370.999
c0 24 4.5 46.333 13.5 67s21.167 38.834 36.5 54.501s33.333 28 54 37s42.667 13.5 66 13.5s45.166 -4.5 65.499 -13.5s38.166 -21.333 53.499 -37s27.5 -33.834 36.5 -54.501s13.5 -43 13.5 -67s-4.5 -46.333 -13.5 -67s-21.167 -38.667 -36.5 -54
s-33.166 -27.5 -53.499 -36.5s-42.166 -13.5 -65.499 -13.5s-45.333 4.5 -66 13.5s-38.667 21.167 -54 36.5s-27.5 33.333 -36.5 54s-13.5 43 -13.5 67zM430.001 -370.999c0 24 4.5 46.333 13.5 67s21.167 38.834 36.5 54.501s33.166 28 53.499 37s42.166 13.5 65.499 13.5
s45.166 -4.5 65.499 -13.5s38.166 -21.333 53.499 -37s27.5 -33.834 36.5 -54.501s13.5 -43 13.5 -67s-4.5 -46.333 -13.5 -67s-21.167 -38.667 -36.5 -54s-33.166 -27.5 -53.499 -36.5s-42.166 -13.5 -65.499 -13.5s-45.166 4.5 -65.499 13.5s-38.166 21.167 -53.499 36.5
s-27.5 33.333 -36.5 54s-13.5 43 -13.5 67zM223.001 -754.999c0 24 4.5 46.333 13.5 67s21.167 38.834 36.5 54.501s33.166 28 53.499 37s42.166 13.5 65.499 13.5s45.166 -4.5 65.499 -13.5s38.166 -21.333 53.499 -37s27.5 -33.834 36.5 -54.501s13.5 -43 13.5 -67
s-4.5 -46.333 -13.5 -67s-21.167 -38.667 -36.5 -54s-33.166 -27.5 -53.499 -36.5s-42.166 -13.5 -65.499 -13.5s-45.166 4.5 -65.499 13.5s-38.166 21.167 -53.499 36.5s-27.5 33.333 -36.5 54s-13.5 43 -13.5 67z" />
    <glyph glyph-name="uniFB67" unicode="&#x679;" horiz-adv-x="1988" arabic-form="final" 
d="M628 0c-86.667 0 -162.503 5.00195 -227.503 15.002s-120.833 24.167 -167.5 42.5s-85 40.333 -115 66s-53.667 54 -71 85s-29.5 64.167 -36.5 99.5s-10.5 72 -10.5 110c0 13.333 0.833008 30 2.5 50s4 41.833 7 65.5s6.33301 48 10 73s7.83398 48.833 12.501 71.5
l162 -14.5l162 -14.5c-6.66699 -35.333 -11.334 -68.5 -14.001 -99.5s-4 -55.167 -4 -72.5c0 -33.333 4.66699 -62 14 -86s27.166 -43.833 53.499 -59.5s62.833 -27.334 109.5 -35.001s107.334 -11.5 182.001 -11.5h599c42 0 72.667 10.333 92 31s29 49.667 29 87v477h362
v-517v-19.5c0 -6.33301 -0.333008 -12.833 -1 -19.5c32.667 -14.667 66.834 -24.834 102.501 -30.501s69.834 -8.5 102.501 -8.5h5c16 0 28.333 -2.16699 37 -6.5s15.334 -11 20.001 -20s7.5 -20.833 8.5 -35.5s1.5 -32 1.5 -52v-53c0 -26 -1.16699 -46.833 -3.5 -62.5
s-6 -27.5 -11 -35.5s-11.833 -13.333 -20.5 -16s-19.334 -4 -32.001 -4h-8c-46.667 0 -94.334 9 -143.001 27s-94 43.667 -136 77c-27.333 -32 -62.666 -57.333 -105.999 -76s-97.666 -28 -162.999 -28h-804zM624.997 949.002l0.000976562 140h105v551h169v-297
c25.333 16 52.333 28.667 81 38s60 14 94 14c40 0 74.833 -6.66699 104.5 -20s54.167 -31.5 73.5 -54.5s33.666 -50 42.999 -81s14 -64.5 14 -100.5v-190h-684zM1142 1130c0 24 -2.50098 44.168 -7.50098 60.501s-12.167 29.333 -21.5 39s-20.666 16.5 -33.999 20.5
s-28.333 6 -45 6c-18.667 0 -37.5 -4.16699 -56.5 -12.5s-37.333 -19.833 -55 -34.5s-34 -32.334 -49 -53.001s-27.5 -43 -37.5 -67h306v41z" />
    <glyph glyph-name="uniFB68" unicode="&#x679;" horiz-adv-x="731" arabic-form="initial" 
d="M-2 0c-12.667 0 -23.334 1.33301 -32.001 4s-15.5 8 -20.5 16s-8.66699 19.833 -11 35.5s-3.5 36.5 -3.5 62.5v53c0 20 0.5 37.333 1.5 52s3.83301 26.5 8.5 35.5s11.334 15.667 20.001 20s21 6.5 37 6.5h221v595h362v-880h-583zM15 1060l0.000976562 140h105v551h169
v-297c25.333 16 52.333 28.667 81 38s60 14 94 14c40 0 74.833 -6.66699 104.5 -20s54.167 -31.5 73.5 -54.5s33.666 -50 42.999 -81s14 -64.5 14 -100.5v-190h-684zM532.001 1241c0 24 -2.50098 44.168 -7.50098 60.501s-12.167 29.333 -21.5 39s-20.666 16.5 -33.999 20.5
s-28.333 6 -45 6c-18.667 0 -37.5 -4.16699 -56.5 -12.5s-37.333 -19.833 -55 -34.5s-34 -32.334 -49 -53.001s-27.5 -43 -37.5 -67h306v41z" />
    <glyph glyph-name="uniFB69" unicode="&#x679;" horiz-adv-x="817" arabic-form="medial" 
d="M577 363l0.000976562 -11.999c0 -4 -0.333008 -7.66699 -1 -11c36 -20.667 74.833 -35 116.5 -43s81.5 -12 119.5 -12h5c16 0 28.333 -2.16699 37 -6.5s15.334 -11 20.001 -20s7.5 -20.833 8.5 -35.5s1.5 -32 1.5 -52v-53c0 -26 -1.16699 -46.833 -3.5 -62.5
s-6 -27.5 -11 -35.5s-11.833 -13.333 -20.5 -16s-19.334 -4 -32.001 -4h-8c-50.667 0 -102.334 10.667 -155.001 32s-101 51.333 -145 90c-26.667 -36.667 -62.5 -66.167 -107.5 -88.5s-102.167 -33.5 -171.5 -33.5h-232c-12.667 0 -23.334 1.33301 -32.001 4
s-15.5 8 -20.5 16s-8.66699 19.833 -11 35.5s-3.5 36.5 -3.5 62.5v53c0 20 0.5 37.333 1.5 52s3.83301 26.5 8.5 35.5s11.334 15.667 20.001 20s21 6.5 37 6.5h140c28 0 47.833 6.66699 59.5 20s17.5 38.666 17.5 75.999v499h362v-517zM49.001 1060l0.000976562 140h105v551
h169v-297c25.333 16 52.333 28.667 81 38s60 14 94 14c40 0 74.833 -6.66699 104.5 -20s54.167 -31.5 73.5 -54.5s33.666 -50 42.999 -81s14 -64.5 14 -100.5v-190h-684zM566.002 1241c0 24 -2.50098 44.168 -7.50098 60.501s-12.167 29.333 -21.5 39
s-20.666 16.5 -33.999 20.5s-28.333 6 -45 6c-18.667 0 -37.5 -4.16699 -56.5 -12.5s-37.333 -19.833 -55 -34.5s-34 -32.334 -49 -53.001s-27.5 -43 -37.5 -67h306v41z" />
    <glyph glyph-name="uniFB6B" unicode="&#x6a4;" horiz-adv-x="2272" arabic-form="final" 
d="M2272 285c16 0 28.3369 -2.16797 37.0039 -6.50098s15.334 -11 20 -20c4.66699 -9 7.5 -20.833 8.5 -35.5s1.5 -32 1.5 -52v-53c0 -26 -1.16699 -46.833 -3.5 -62.5s-6 -27.5 -11 -35.5s-11.833 -13.333 -20.5 -16s-19.334 -4 -32 -4h-162
c-34 0 -69.167 0.833008 -105.5 2.5s-72 3.83398 -107 6.50098s-68.833 5.66699 -101.5 9s-62.334 7 -89.001 11c-30 -3.33301 -66 -6.33301 -108 -9s-86.833 -5 -134.5 -7s-96.834 -3.83301 -147.501 -5.5s-99.834 -3 -147.501 -4s-92.167 -1.83301 -133.5 -2.5
s-76.666 -1 -105.999 -1h-301c-87.333 0 -163.5 5 -228.5 15s-120.833 24.167 -167.5 42.5s-85 40.333 -115 66s-53.833 54 -71.5 85s-29.834 64.167 -36.501 99.5s-10 72 -10 110c0 13.333 0.833008 30 2.5 50s4 41.833 7 65.5s6.5 48 10.5 73s8.33301 48.833 13 71.5
l166 -14.5l165 -14.5c-6.66699 -34 -12.5 -67.667 -17.5 -101s-7.5 -61.666 -7.5 -84.999c0 -29.333 4.66699 -55.166 14 -77.499s27 -41 53 -56s62.333 -26.167 109 -33.5s107.667 -11 183 -11h484c-16 34 -27.667 68.333 -35 103s-11 62.667 -11 84
c0 60 12.333 117 37 171s60 101.5 106 142.5s101.667 73.5 167 97.5s138.666 36 219.999 36c82 0 152.5 -10.833 211.5 -32.5s107.5 -51.167 145.5 -88.5s66 -80.833 84 -130.5s27 -102.5 27 -158.5c0 -17.333 -1.33301 -35.833 -4 -55.5s-6 -39.334 -10 -59.001
s-8.66699 -38.834 -14 -57.501s-10.666 -36 -16 -52h182zM1485 491.999c0 -28.667 5.66797 -55.6641 17.001 -80.9971s26.833 -47.333 46.5 -66s42.5 -33.334 68.5 -44.001s53.667 -16 83 -16h22c6 11.333 11.833 24.666 17.5 39.999s10.667 31.666 15 48.999
s8 34.833 11 52.5s4.5 34.5 4.5 50.5c0 52 -13.167 91.667 -39.5 119s-59.5 41 -99.5 41c-18 0 -35.667 -2.83301 -53 -8.5s-32.833 -14.5 -46.5 -26.5s-24.834 -27.167 -33.501 -45.5s-13 -39.833 -13 -64.5zM1252 1327c0 24 4.5 46.333 13.5 67s21.167 38.834 36.5 54.501
s33.333 28 54 37s42.667 13.5 66 13.5s45.166 -4.5 65.499 -13.5s38.166 -21.333 53.499 -37s27.5 -33.834 36.5 -54.501s13.5 -43 13.5 -67s-4.5 -46.333 -13.5 -67s-21.167 -38.667 -36.5 -54s-33.166 -27.5 -53.499 -36.5s-42.166 -13.5 -65.499 -13.5
s-45.333 4.5 -66 13.5s-38.667 21.167 -54 36.5s-27.5 33.333 -36.5 54s-13.5 43 -13.5 67zM1663 1327c0 24 4.5 46.333 13.5 67s21.167 38.834 36.5 54.501s33.166 28 53.499 37s42.166 13.5 65.499 13.5s45.166 -4.5 65.499 -13.5s38.166 -21.333 53.499 -37
s27.5 -33.834 36.5 -54.501s13.5 -43 13.5 -67s-4.5 -46.333 -13.5 -67s-21.167 -38.667 -36.5 -54s-33.166 -27.5 -53.499 -36.5s-42.166 -13.5 -65.499 -13.5s-45.166 4.5 -65.499 13.5s-38.166 21.167 -53.499 36.5s-27.5 33.333 -36.5 54s-13.5 43 -13.5 67zM1456 1713
c0 24 4.5 46.333 13.5 67s21.167 38.834 36.5 54.501s33.166 28 53.499 37s42.166 13.5 65.499 13.5s45.166 -4.5 65.499 -13.5s38.166 -21.333 53.499 -37s27.5 -33.834 36.5 -54.501s13.5 -43 13.5 -67s-4.5 -46.333 -13.5 -67s-21.167 -38.667 -36.5 -54
s-33.166 -27.5 -53.499 -36.5s-42.166 -13.5 -65.499 -13.5s-45.166 4.5 -65.499 13.5s-38.166 21.167 -53.499 36.5s-27.5 33.333 -36.5 54s-13.5 43 -13.5 67z" />
    <glyph glyph-name="uniFB6C" unicode="&#x6a4;" horiz-adv-x="1282" arabic-form="initial" 
d="M180 285c-4 12.667 -8.00195 26.3301 -12.002 40.9971s-7.5 29.667 -10.5 45s-5.33301 30.333 -7 45s-2.5 28 -2.5 40c0 74.667 13.5 140.834 40.5 198.501s64 106 111 145s102.333 68.667 166 89s132.167 30.5 205.5 30.5c72.667 0 138.667 -10.5 198 -31.5
s110 -51.167 152 -90.5s74.333 -87.166 97 -143.499s34 -120.166 34 -191.499v-462h-1154c-12.667 -0 -23.167 1.33301 -31.5 4s-15.166 8 -20.499 16s-9.16602 19.833 -11.499 35.5s-3.5 36.5 -3.5 62.5v53c0 20 0.5 37.333 1.5 52s3.83301 26.5 8.5 35.5
s11.5 15.667 20.5 20s21.167 6.5 36.5 6.5h182zM790.998 284.996l0.000976562 136c0 38.667 -4.33301 71 -13 97s-19.834 46.833 -33.501 62.5s-29.167 26.834 -46.5 33.501s-34.333 10 -51 10c-19.333 0 -38 -3.16699 -56 -9.5s-34 -16.333 -48 -30
s-25.167 -30.834 -33.5 -51.501s-12.5 -45 -12.5 -73c0 -24 4.33301 -46.5 13 -67.5s21 -39.5 37 -55.5s35.333 -28.667 58 -38s48 -14 76 -14h110zM296.999 1327c0 24 4.5 46.333 13.5 67s21.167 38.834 36.5 54.501s33.333 28 54 37s42.667 13.5 66 13.5
s45.166 -4.5 65.499 -13.5s38.166 -21.333 53.499 -37s27.5 -33.834 36.5 -54.501s13.5 -43 13.5 -67s-4.5 -46.333 -13.5 -67s-21.167 -38.667 -36.5 -54s-33.166 -27.5 -53.499 -36.5s-42.166 -13.5 -65.499 -13.5s-45.333 4.5 -66 13.5s-38.667 21.167 -54 36.5
s-27.5 33.333 -36.5 54s-13.5 43 -13.5 67zM707.999 1327c0 24 4.5 46.333 13.5 67s21.167 38.834 36.5 54.501s33.166 28 53.499 37s42.166 13.5 65.499 13.5s45.166 -4.5 65.499 -13.5s38.166 -21.333 53.499 -37s27.5 -33.834 36.5 -54.501s13.5 -43 13.5 -67
s-4.5 -46.333 -13.5 -67s-21.167 -38.667 -36.5 -54s-33.166 -27.5 -53.499 -36.5s-42.166 -13.5 -65.499 -13.5s-45.166 4.5 -65.499 13.5s-38.166 21.167 -53.499 36.5s-27.5 33.333 -36.5 54s-13.5 43 -13.5 67zM500.999 1713c0 24 4.5 46.333 13.5 67
s21.167 38.834 36.5 54.501s33.166 28 53.499 37s42.166 13.5 65.499 13.5s45.166 -4.5 65.499 -13.5s38.166 -21.333 53.499 -37s27.5 -33.834 36.5 -54.501s13.5 -43 13.5 -67s-4.5 -46.333 -13.5 -67s-21.167 -38.667 -36.5 -54s-33.166 -27.5 -53.499 -36.5
s-42.166 -13.5 -65.499 -13.5s-45.166 4.5 -65.499 13.5s-38.166 21.167 -53.499 36.5s-27.5 33.333 -36.5 54s-13.5 43 -13.5 67z" />
    <glyph glyph-name="uniFB6D" unicode="&#x6a4;" horiz-adv-x="1278" arabic-form="medial" 
d="M1121 0c-76.667 0 -150.169 2.83496 -220.502 8.50195s-132.166 12.5 -185.499 20.5c-39.333 -4.66699 -82.166 -8.66699 -128.499 -12s-94 -6.33301 -143 -9s-98 -4.66699 -147 -6s-95.833 -2 -140.5 -2h-156c-12.667 0 -23.334 1.33301 -32.001 4s-15.5 8 -20.5 16
s-8.66699 19.833 -11 35.5s-3.5 36.5 -3.5 62.5v53c0 20 0.5 37.333 1.5 52s3.83301 26.5 8.5 35.5s11.334 15.667 20.001 20s21 6.5 37 6.5h188c-16 34 -27.667 68.333 -35 103s-11 62.667 -11 84c0 60 12.333 117 37 171s60 101.5 106 142.5s101.667 73.5 167 97.5
s138.666 36 219.999 36c82 0 152.5 -10.833 211.5 -32.5s107.5 -51.167 145.5 -88.5s66 -80.833 84 -130.5s27 -102.5 27 -158.5c0 -17.333 -1.33301 -35.833 -4 -55.5s-6 -39.334 -10 -59.001s-8.66699 -38.834 -14 -57.501s-10.666 -36 -15.999 -52h182
c16 0 28.333 -2.16699 37 -6.5s15.334 -11 20.001 -20s7.5 -20.833 8.5 -35.5s1.5 -32 1.5 -52v-53c0 -26 -1.16699 -46.833 -3.5 -62.5s-6 -27.5 -11 -35.5s-11.833 -13.333 -20.5 -16s-19.334 -4 -32.001 -4h-157zM491.998 492.002
c0 -28.667 5.66797 -55.6641 17.001 -80.9971s26.666 -47.333 45.999 -66s42 -33.334 68 -44.001s53.667 -16 83 -16h22c6 11.333 11.833 24.666 17.5 39.999s10.667 31.666 15 48.999s8 34.833 11 52.5s4.5 34.5 4.5 50.5c0 52 -13.167 91.667 -39.5 119s-59.5 41 -99.5 41
c-18 0 -35.667 -2.83301 -53 -8.5s-32.833 -14.5 -46.5 -26.5s-24.667 -27.167 -33 -45.5s-12.5 -39.833 -12.5 -64.5zM244.999 1327c0 24 4.5 46.333 13.5 67s21.167 38.834 36.5 54.501s33.333 28 54 37s42.667 13.5 66 13.5s45.166 -4.5 65.499 -13.5
s38.166 -21.333 53.499 -37s27.5 -33.834 36.5 -54.501s13.5 -43 13.5 -67s-4.5 -46.333 -13.5 -67s-21.167 -38.667 -36.5 -54s-33.166 -27.5 -53.499 -36.5s-42.166 -13.5 -65.499 -13.5s-45.333 4.5 -66 13.5s-38.667 21.167 -54 36.5s-27.5 33.333 -36.5 54
s-13.5 43 -13.5 67zM655.999 1327c0 24 4.5 46.333 13.5 67s21.167 38.834 36.5 54.501s33.166 28 53.499 37s42.166 13.5 65.499 13.5s45.166 -4.5 65.499 -13.5s38.166 -21.333 53.499 -37s27.5 -33.834 36.5 -54.501s13.5 -43 13.5 -67s-4.5 -46.333 -13.5 -67
s-21.167 -38.667 -36.5 -54s-33.166 -27.5 -53.499 -36.5s-42.166 -13.5 -65.499 -13.5s-45.166 4.5 -65.499 13.5s-38.166 21.167 -53.499 36.5s-27.5 33.333 -36.5 54s-13.5 43 -13.5 67zM448.999 1713c0 24 4.5 46.333 13.5 67s21.167 38.834 36.5 54.501
s33.166 28 53.499 37s42.166 13.5 65.499 13.5s45.166 -4.5 65.499 -13.5s38.166 -21.333 53.499 -37s27.5 -33.834 36.5 -54.501s13.5 -43 13.5 -67s-4.5 -46.333 -13.5 -67s-21.167 -38.667 -36.5 -54s-33.166 -27.5 -53.499 -36.5s-42.166 -13.5 -65.499 -13.5
s-45.166 4.5 -65.499 13.5s-38.166 21.167 -53.499 36.5s-27.5 33.333 -36.5 54s-13.5 43 -13.5 67z" />
    <glyph glyph-name="uniFB7B" unicode="&#x686;" horiz-adv-x="1190" arabic-form="final" 
d="M1178 300c18 0 32.1641 -2.16406 42.4971 -6.49707s18.333 -11 24 -20s9.16699 -20.833 10.5 -35.5s2 -32 2 -52v-68c0 -26 -1.16699 -46.833 -3.5 -62.5s-6 -27.5 -11 -35.5s-11.833 -13.333 -20.5 -16s-19.334 -4 -32.001 -4h-607c-35.333 0 -67.5 -4.5 -96.5 -13.5
s-54 -22.833 -75 -41.5s-37.333 -41.834 -49 -69.501s-17.5 -59.834 -17.5 -96.501c0 -29.333 5.33301 -57.166 16 -83.499s27.5 -49.5 50.5 -69.5s52.333 -35.833 88 -47.5s78.5 -17.5 128.5 -17.5h15.5c5.66699 0 12.834 0.333008 21.501 1l12 -287
c-13.333 -1.33301 -26.5 -2.33301 -39.5 -3s-26.5 -1 -40.5 -1c-71.333 0 -135.666 6.83301 -192.999 20.5s-108.166 32.334 -152.499 56.001s-82.333 51.667 -114 84s-57.667 67.166 -78 104.499s-35.333 76.166 -45 116.499s-14.5 80.833 -14.5 121.5
c0 86 14.333 161.833 43 227.5s69.334 120.667 122.001 165s115.834 77.666 189.501 99.999s155.167 33.5 244.5 33.5h143c-7.33301 12.667 -12.833 25.167 -16.5 37.5s-7.16699 26.833 -10.5 43.5c-6 34.667 -12.333 68 -19 100s-17.5 60.167 -32.5 84.5
s-35.833 43.833 -62.5 58.5s-62.667 22 -108 22c-7.33301 0 -19.166 -0.5 -35.499 -1.5s-35.833 -2.83301 -58.5 -5.5s-48 -6.5 -76 -11.5s-57.333 -11.833 -88 -20.5v267c59.333 16 117.166 30.167 173.499 42.5s115.166 18.5 176.499 18.5
c64.667 0 122.834 -8.66699 174.501 -26s96.334 -42.166 134.001 -74.499s68 -71.333 91 -117s38.167 -96.834 45.5 -153.501c4 -32 9 -63.667 15 -95s14.167 -59.5 24.5 -84.5s24.166 -45.167 41.499 -60.5s39.666 -23.333 66.999 -24zM552.997 -228.997
c0 18.667 3.5 36.5 10.5 53.5s16.667 31.667 29 44s26.833 22.166 43.5 29.499s34.334 11 53.001 11s36.167 -3.66699 52.5 -11s30.666 -17.166 42.999 -29.499s22 -27 29 -44s10.5 -34.833 10.5 -53.5c0 -19.333 -3.5 -37.166 -10.5 -53.499s-16.667 -30.833 -29 -43.5
s-26.666 -22.5 -42.999 -29.5s-33.833 -10.5 -52.5 -10.5s-36.334 3.5 -53.001 10.5s-31.167 16.833 -43.5 29.5s-22 27.167 -29 43.5s-10.5 34.166 -10.5 53.499zM881.997 -228.997c0 18.667 3.5 36.5 10.5 53.5s16.667 31.667 29 44s26.666 22.166 42.999 29.499
s33.833 11 52.5 11s36.167 -3.66699 52.5 -11s30.666 -17.166 42.999 -29.499s22 -27 29 -44s10.5 -34.833 10.5 -53.5c0 -19.333 -3.5 -37.166 -10.5 -53.499s-16.667 -30.833 -29 -43.5s-26.666 -22.5 -42.999 -29.5s-33.833 -10.5 -52.5 -10.5s-36.167 3.5 -52.5 10.5
s-30.666 16.833 -42.999 29.5s-22 27.167 -29 43.5s-10.5 34.166 -10.5 53.499zM715.997 -535.997c0 18.667 3.5 36.5 10.5 53.5s16.667 31.667 29 44s26.666 22.166 42.999 29.499s33.833 11 52.5 11s36.167 -3.66699 52.5 -11s30.666 -17.166 42.999 -29.499
s22 -27 29 -44s10.5 -34.833 10.5 -53.5c0 -19.333 -3.5 -37.166 -10.5 -53.499s-16.667 -30.833 -29 -43.5s-26.666 -22.5 -42.999 -29.5s-33.833 -10.5 -52.5 -10.5s-36.167 3.5 -52.5 10.5s-30.666 16.833 -42.999 29.5s-22 27.167 -29 43.5s-10.5 34.166 -10.5 53.499z
" />
    <glyph glyph-name="uniFB7C" unicode="&#x686;" horiz-adv-x="1162" arabic-form="initial" 
d="M636 285c-7.33301 12.667 -12.832 27.667 -16.499 45l-10.5 51c-6 34.667 -12.333 68 -19 100s-17.5 60.167 -32.5 84.5s-35.833 43.833 -62.5 58.5s-62.667 22 -108 22c-7.33301 0 -19.166 -0.5 -35.499 -1.5s-35.833 -2.83301 -58.5 -5.5s-48 -6.5 -76 -11.5
s-57.333 -11.833 -88 -20.5v267c59.333 16 117.166 30.167 173.499 42.5s115.166 18.5 176.499 18.5c64.667 0 122.834 -8.66699 174.501 -26s96.334 -42.166 134.001 -74.499s68 -71.333 91 -117s38.167 -96.834 45.5 -153.501c4 -32 9 -64.5 15 -97.5
s14.167 -62.833 24.5 -89.5s24.166 -48.5 41.499 -65.5s39.666 -25.833 66.999 -26.5v-285h-1075c-12.667 -0 -23.167 1.33301 -31.5 4s-15 8 -20 16s-8.66699 19.833 -11 35.5s-3.5 36.5 -3.5 62.5v53c0 20 0.5 37.333 1.5 52s3.66699 26.5 8 35.5s11 15.667 20 20
s21.167 6.5 36.5 6.5h639zM153.001 -371c0 24 4.5 46.333 13.5 67s21.167 38.834 36.5 54.501s33.333 28 54 37s42.667 13.5 66 13.5s45.166 -4.5 65.499 -13.5s38.166 -21.333 53.499 -37s27.5 -33.834 36.5 -54.501s13.5 -43 13.5 -67s-4.5 -46.333 -13.5 -67
s-21.167 -38.667 -36.5 -54s-33.166 -27.5 -53.499 -36.5s-42.166 -13.5 -65.499 -13.5s-45.333 4.5 -66 13.5s-38.667 21.167 -54 36.5s-27.5 33.333 -36.5 54s-13.5 43 -13.5 67zM564.001 -371c0 24 4.5 46.333 13.5 67s21.167 38.834 36.5 54.501s33.166 28 53.499 37
s42.166 13.5 65.499 13.5s45.166 -4.5 65.499 -13.5s38.166 -21.333 53.499 -37s27.5 -33.834 36.5 -54.501s13.5 -43 13.5 -67s-4.5 -46.333 -13.5 -67s-21.167 -38.667 -36.5 -54s-33.166 -27.5 -53.499 -36.5s-42.166 -13.5 -65.499 -13.5s-45.166 4.5 -65.499 13.5
s-38.166 21.167 -53.499 36.5s-27.5 33.333 -36.5 54s-13.5 43 -13.5 67zM357.001 -755c0 24 4.5 46.333 13.5 67s21.167 38.834 36.5 54.501s33.166 28 53.499 37s42.166 13.5 65.499 13.5s45.166 -4.5 65.499 -13.5s38.166 -21.333 53.499 -37s27.5 -33.834 36.5 -54.501
s13.5 -43 13.5 -67s-4.5 -46.333 -13.5 -67s-21.167 -38.667 -36.5 -54s-33.166 -27.5 -53.499 -36.5s-42.166 -13.5 -65.499 -13.5s-45.166 4.5 -65.499 13.5s-38.166 21.167 -53.499 36.5s-27.5 33.333 -36.5 54s-13.5 43 -13.5 67z" />
    <glyph glyph-name="uniFB7D" unicode="&#x686;" horiz-adv-x="1084" arabic-form="medial" 
d="M638 285c-7.33301 12.667 -12.835 27.667 -16.502 45l-10.5 51c-6 34.667 -12.333 68 -19 100s-17.5 60.167 -32.5 84.5s-35.833 43.833 -62.5 58.5s-62.667 22 -108 22c-7.33301 0 -19.166 -0.5 -35.499 -1.5s-35.833 -2.83301 -58.5 -5.5s-48 -6.5 -76 -11.5
s-57.333 -11.833 -88 -20.5v267c59.333 16 117.166 30.167 173.499 42.5s115.166 18.5 176.499 18.5c64.667 0 122.834 -8.66699 174.501 -26s96.334 -42.166 134.001 -74.499s68 -71.333 91 -117s38.167 -96.834 45.5 -153.501c4 -32 9 -64.667 15 -98
s14.667 -63.333 26 -90s26.166 -48.5 44.499 -65.5s42.5 -25.5 72.5 -25.5c16 0 28.333 -2.16699 37 -6.5s15.334 -11 20.001 -20s7.5 -20.833 8.5 -35.5s1.5 -32 1.5 -52v-53c0 -26 -1.16699 -46.833 -3.5 -62.5s-6 -27.5 -11 -35.5s-11.833 -13.333 -20.5 -16
s-19.334 -4 -32.001 -4h-1086c-12.667 -0 -23.167 1.33301 -31.5 4s-15.166 8 -20.499 16s-9.16602 19.833 -11.499 35.5s-3.5 36.5 -3.5 62.5v53c0 20 0.5 37.333 1.5 52s3.83301 26.5 8.5 35.5s11.5 15.667 20.5 20s21.167 6.5 36.5 6.5h640zM151.998 -371
c0 24 4.5 46.333 13.5 67s21.167 38.834 36.5 54.501s33.333 28 54 37s42.667 13.5 66 13.5s45.166 -4.5 65.499 -13.5s38.166 -21.333 53.499 -37s27.5 -33.834 36.5 -54.501s13.5 -43 13.5 -67s-4.5 -46.333 -13.5 -67s-21.167 -38.667 -36.5 -54
s-33.166 -27.5 -53.499 -36.5s-42.166 -13.5 -65.499 -13.5s-45.333 4.5 -66 13.5s-38.667 21.167 -54 36.5s-27.5 33.333 -36.5 54s-13.5 43 -13.5 67zM562.998 -371c0 24 4.5 46.333 13.5 67s21.167 38.834 36.5 54.501s33.166 28 53.499 37s42.166 13.5 65.499 13.5
s45.166 -4.5 65.499 -13.5s38.166 -21.333 53.499 -37s27.5 -33.834 36.5 -54.501s13.5 -43 13.5 -67s-4.5 -46.333 -13.5 -67s-21.167 -38.667 -36.5 -54s-33.166 -27.5 -53.499 -36.5s-42.166 -13.5 -65.499 -13.5s-45.166 4.5 -65.499 13.5s-38.166 21.167 -53.499 36.5
s-27.5 33.333 -36.5 54s-13.5 43 -13.5 67zM355.998 -755c0 24 4.5 46.333 13.5 67s21.167 38.834 36.5 54.501s33.166 28 53.499 37s42.166 13.5 65.499 13.5s45.166 -4.5 65.499 -13.5s38.166 -21.333 53.499 -37s27.5 -33.834 36.5 -54.501s13.5 -43 13.5 -67
s-4.5 -46.333 -13.5 -67s-21.167 -38.667 -36.5 -54s-33.166 -27.5 -53.499 -36.5s-42.166 -13.5 -65.499 -13.5s-45.166 4.5 -65.499 13.5s-38.166 21.167 -53.499 36.5s-27.5 33.333 -36.5 54s-13.5 43 -13.5 67z" />
    <glyph glyph-name="uniFB89" unicode="&#x688;" horiz-adv-x="1168" arabic-form="final" 
d="M42 0l0.000976562 284.998h413c30.667 0 56 3.33301 76 10s35.833 15.334 47.5 26.001s19.667 22.5 24 35.5s6.5 26.167 6.5 39.5c0 22 -10.5 48.667 -31.5 80s-48.5 65 -82.5 101s-72.5 72.667 -115.5 110s-86.5 72.666 -130.5 105.999l250 245
c68 -57.333 129 -114 183 -170s99.833 -110.667 137.5 -164s66.667 -105.333 87 -156s30.5 -99.334 30.5 -146.001c0 -11.333 -0.333008 -22.333 -1 -33s-1.66699 -21.667 -3 -33c35.333 -19.333 73.166 -32.666 113.499 -39.999s78.833 -11 115.5 -11h5
c16 0 28.333 -2.16699 37 -6.5s15.334 -11 20.001 -20s7.5 -20.833 8.5 -35.5s1.5 -32 1.5 -52v-53c0 -26 -1.16699 -46.833 -3.5 -62.5s-6 -27.5 -11 -35.5s-11.833 -13.333 -20.5 -16s-19.334 -4 -32.001 -4h-8c-54 0 -108.667 11.833 -164 35.5
s-105.333 56.834 -150 99.501c-38 -41.333 -88.833 -74.166 -152.5 -98.499s-144.5 -36.5 -242.5 -36.5h-408zM95.001 1129l0.000976562 140h105v551h169v-297c25.333 16 52.333 28.667 81 38s60 14 94 14c40 0 74.833 -6.66699 104.5 -20s54.167 -31.5 73.5 -54.5
s33.666 -50 42.999 -81s14 -64.5 14 -100.5v-190h-684zM612.002 1310c0 24 -2.50098 44.168 -7.50098 60.501s-12.167 29.333 -21.5 39s-20.666 16.5 -33.999 20.5s-28.333 6 -45 6c-18.667 0 -37.5 -4.16699 -56.5 -12.5s-37.333 -19.833 -55 -34.5
s-34 -32.334 -49 -53.001s-27.5 -43 -37.5 -67h306v41z" />
    <glyph glyph-name="uniFB8B" unicode="&#x698;" horiz-adv-x="815" arabic-form="final" 
d="M-6 -156c58.667 12 104.167 28.499 136.5 49.499s56.333 45.5 72 73.5s25.167 59.167 28.5 93.5s5 70.833 5 109.5v710h361v-595h218c16 0 28.333 -2.16699 37 -6.5s15.334 -11 20.001 -20s7.5 -20.833 8.5 -35.5s1.5 -32 1.5 -52v-53c0 -26 -1.16699 -46.833 -3.5 -62.5
s-6 -27.5 -11 -35.5s-11.833 -13.333 -20.5 -16s-19.334 -4 -32.001 -4h-237c-12 -63.333 -30.833 -120.166 -56.5 -170.499s-60 -94.5 -103 -132.5s-95.333 -70 -157 -96s-134.5 -45.667 -218.5 -59zM49 1327c0 24 4.5 46.333 13.5 67s21.167 38.834 36.5 54.501
s33.333 28 54 37s42.667 13.5 66 13.5s45.166 -4.5 65.499 -13.5s38.166 -21.333 53.499 -37s27.5 -33.834 36.5 -54.501s13.5 -43 13.5 -67s-4.5 -46.333 -13.5 -67s-21.167 -38.667 -36.5 -54s-33.166 -27.5 -53.499 -36.5s-42.166 -13.5 -65.499 -13.5
s-45.333 4.5 -66 13.5s-38.667 21.167 -54 36.5s-27.5 33.333 -36.5 54s-13.5 43 -13.5 67zM460 1327c0 24 4.5 46.333 13.5 67s21.167 38.834 36.5 54.501s33.166 28 53.499 37s42.166 13.5 65.499 13.5s45.166 -4.5 65.499 -13.5s38.166 -21.333 53.499 -37
s27.5 -33.834 36.5 -54.501s13.5 -43 13.5 -67s-4.5 -46.333 -13.5 -67s-21.167 -38.667 -36.5 -54s-33.166 -27.5 -53.499 -36.5s-42.166 -13.5 -65.499 -13.5s-45.166 4.5 -65.499 13.5s-38.166 21.167 -53.499 36.5s-27.5 33.333 -36.5 54s-13.5 43 -13.5 67zM253 1713
c0 24 4.5 46.333 13.5 67s21.167 38.834 36.5 54.501s33.166 28 53.499 37s42.166 13.5 65.499 13.5s45.166 -4.5 65.499 -13.5s38.166 -21.333 53.499 -37s27.5 -33.834 36.5 -54.501s13.5 -43 13.5 -67s-4.5 -46.333 -13.5 -67s-21.167 -38.667 -36.5 -54
s-33.166 -27.5 -53.499 -36.5s-42.166 -13.5 -65.499 -13.5s-45.166 4.5 -65.499 13.5s-38.166 21.167 -53.499 36.5s-27.5 33.333 -36.5 54s-13.5 43 -13.5 67z" />
    <glyph glyph-name="uniFB8D" unicode="&#x691;" horiz-adv-x="815" arabic-form="final" 
d="M-6 -156c58.667 12 104.167 28.499 136.5 49.499s56.333 45.5 72 73.5s25.167 59.167 28.5 93.5s5 70.833 5 109.5v710h361v-595h218c16 0 28.333 -2.16699 37 -6.5s15.334 -11 20.001 -20s7.5 -20.833 8.5 -35.5s1.5 -32 1.5 -52v-53c0 -26 -1.16699 -46.833 -3.5 -62.5
s-6 -27.5 -11 -35.5s-11.833 -13.333 -20.5 -16s-19.334 -4 -32.001 -4h-237c-12 -63.333 -30.833 -120.166 -56.5 -170.499s-60 -94.5 -103 -132.5s-95.333 -70 -157 -96s-134.5 -45.667 -218.5 -59zM24 1145l0.000976562 140h105v551h169v-297
c25.333 16 52.333 28.667 81 38s60 14 94 14c40 0 74.833 -6.66699 104.5 -20s54.167 -31.5 73.5 -54.5s33.666 -50 42.999 -81s14 -64.5 14 -100.5v-190h-684zM541.001 1326c0 24 -2.50098 44.168 -7.50098 60.501s-12.167 29.333 -21.5 39s-20.666 16.5 -33.999 20.5
s-28.333 6 -45 6c-18.667 0 -37.5 -4.16699 -56.5 -12.5s-37.333 -19.833 -55 -34.5s-34 -32.334 -49 -53.001s-27.5 -43 -37.5 -67h306v41z" />
    <glyph glyph-name="uniFB8F" unicode="&#x6a9;" horiz-adv-x="2002" arabic-form="final" 
d="M629 0c-87.333 0 -163.499 5 -228.499 15s-120.667 24.167 -167 42.5s-84.666 40.333 -114.999 66s-54.166 54 -71.499 85s-29.5 64.167 -36.5 99.5s-10.5 72 -10.5 110c0 13.333 0.833008 30 2.5 50s4 41.833 7 65.5s6.5 48 10.5 73s8.33301 48.833 13 71.5l162 -14.5
l162 -14.5c-6.66699 -35.333 -11.334 -68.5 -14.001 -99.5s-4 -55.167 -4 -72.5c0 -33.333 4.66699 -62 14 -86s27 -43.833 53 -59.5s62.333 -27.334 109 -35.001s107.334 -11.5 182.001 -11.5h578c30.667 0 56 2.66699 76 8s35.667 12.333 47 21s19.166 18.667 23.499 30
s6.5 23 6.5 35c0 46 -34.167 98.667 -102.5 158s-167.833 126 -298.5 200l480 770l275 -171l-315 -519c47.333 -29.333 90 -60.666 128 -93.999s70.167 -68.333 96.5 -105s46.5 -75.167 60.5 -115.5s21 -82.5 21 -126.5c0 -7.33301 -0.166992 -14.333 -0.5 -21
s-0.833008 -13.667 -1.5 -21c35.333 -18 72.666 -30.667 111.999 -38s77 -11 113 -11h5c16 0 28.333 -2.16699 37 -6.5s15.334 -11 20.001 -20s7.5 -20.833 8.5 -35.5s1.5 -32 1.5 -52v-53c0 -26 -1.16699 -46.833 -3.5 -62.5s-6 -27.5 -11 -35.5s-11.833 -13.333 -20.5 -16
s-19.334 -4 -32.001 -4h-8c-52.667 0 -106.334 11.5 -161.001 34.5s-104.334 55.167 -149.001 96.5c-37.333 -40 -87.166 -71.833 -149.499 -95.5s-139.833 -35.5 -232.5 -35.5h-672z" />
    <glyph glyph-name="uniFB90" unicode="&#x6a9;" horiz-adv-x="942" arabic-form="initial" 
d="M-2 0c-12.667 0 -23.333 1.33203 -32 3.99902s-15.5 8 -20.5 16s-8.66699 19.833 -11 35.5s-3.5 36.5 -3.5 62.5v53c0 20 0.5 37.333 1.5 52s3.83301 26.5 8.5 35.5s11.334 15.667 20.001 20s21 6.5 37 6.5h327c30.667 0 56 2.66699 76 8s35.667 12.333 47 21
s19.166 18.667 23.499 30s6.5 23 6.5 35c0 46 -34.167 98.667 -102.5 158s-167.833 126 -298.5 200l480 770l275 -171l-315 -519c47.333 -29.333 90 -60.666 128 -93.999s70.167 -68.333 96.5 -105s46.5 -75.167 60.5 -115.5s21 -82.5 21 -126.5
c0 -51.333 -8.83301 -99.833 -26.5 -145.5s-45.5 -85.5 -83.5 -119.5s-86.833 -61 -146.5 -81s-131.5 -30 -215.5 -30h-353z" />
    <glyph glyph-name="uniFB91" unicode="&#x6a9;" horiz-adv-x="1061" arabic-form="medial" 
d="M-3 0c-12.667 0 -23.168 1.33203 -31.501 3.99902s-15 8 -20 16s-8.66699 19.833 -11 35.5s-3.5 36.5 -3.5 62.5v53c0 20 0.5 37.333 1.5 52s3.66699 26.5 8 35.5s11 15.667 20 20s21.167 6.5 36.5 6.5h339c30.667 0 55.834 2.66699 75.501 8s35.167 12.333 46.5 21
s19.166 18.667 23.499 30s6.5 23 6.5 35c0 46 -34.167 98.667 -102.5 158s-167.5 126 -297.5 200l479 770l273 -171l-314 -519c48 -29.333 90.833 -60.666 128.5 -93.999s69.834 -68.333 96.501 -105s47 -75.167 61 -115.5s21 -82.5 21 -126.5
c0 -7.33301 -0.166992 -14.333 -0.5 -21s-0.833008 -13.667 -1.5 -21c34.667 -18 71.667 -30.667 111 -38s77 -11 113 -11h5c16 0 28.333 -2.16699 37 -6.5s15.334 -11 20.001 -20s7.5 -20.833 8.5 -35.5s1.5 -32 1.5 -52v-53c0 -26 -1.16699 -46.833 -3.5 -62.5
s-6 -27.5 -11 -35.5s-11.833 -13.333 -20.5 -16s-19.334 -4 -32.001 -4h-8c-52.667 -0 -106.167 11.333 -160.5 34s-103.833 54.667 -148.5 96c-37.333 -39.333 -87.5 -70.833 -150.5 -94.5s-140.833 -35.5 -233.5 -35.5h-362z" />
    <glyph glyph-name="uniFB93" unicode="&#x6af;" horiz-adv-x="2002" arabic-form="final" 
d="M657 936l491 777l255 -154l-480 -770zM629 0c-87.333 0 -163.499 5 -228.499 15s-120.667 24.167 -167 42.5s-84.666 40.333 -114.999 66s-54.166 54 -71.499 85s-29.5 64.167 -36.5 99.5s-10.5 72 -10.5 110c0 13.333 0.833008 30 2.5 50s4 41.833 7 65.5
s6.5 48 10.5 73s8.33301 48.833 13 71.5l162 -14.5l162 -14.5c-6.66699 -35.333 -11.334 -68.5 -14.001 -99.5s-4 -55.167 -4 -72.5c0 -33.333 4.66699 -62 14 -86s27 -43.833 53 -59.5s62.333 -27.334 109 -35.001s107.334 -11.5 182.001 -11.5h578
c30.667 0 56 2.66699 76 8s35.667 12.333 47 21s19.166 18.667 23.499 30s6.5 23 6.5 35c0 46 -34.167 98.667 -102.5 158s-167.833 126 -298.5 200l480 770l275 -171l-315 -519c47.333 -29.333 90 -60.666 128 -93.999s70.167 -68.333 96.5 -105s46.5 -75.167 60.5 -115.5
s21 -82.5 21 -126.5c0 -7.33301 -0.166992 -14.333 -0.5 -21s-0.833008 -13.667 -1.5 -21c35.333 -18 72.666 -30.667 111.999 -38s77 -11 113 -11h5c16 0 28.333 -2.16699 37 -6.5s15.334 -11 20.001 -20s7.5 -20.833 8.5 -35.5s1.5 -32 1.5 -52v-53
c0 -26 -1.16699 -46.833 -3.5 -62.5s-6 -27.5 -11 -35.5s-11.833 -13.333 -20.5 -16s-19.334 -4 -32.001 -4h-8c-52.667 0 -106.334 11.5 -161.001 34.5s-104.334 55.167 -149.001 96.5c-37.333 -40 -87.166 -71.833 -149.499 -95.5s-139.833 -35.5 -232.5 -35.5h-672z" />
    <glyph glyph-name="uniFB94" unicode="&#x6af;" horiz-adv-x="1140" arabic-form="initial" 
d="M-69 936l491 777l255 -154l-480 -770zM15 0c-12.667 0 -23.333 1.33203 -32 3.99902s-15.5 8 -20.5 16s-8.66699 19.833 -11 35.5s-3.5 36.5 -3.5 62.5v53c0 20 0.5 37.333 1.5 52s3.83301 26.5 8.5 35.5s11.334 15.667 20.001 20s21 6.5 37 6.5h508
c30.667 0 56 2.66699 76 8s35.667 12.333 47 21s19.166 18.667 23.499 30s6.5 23 6.5 35c0 46 -34.167 98.667 -102.5 158s-167.833 126 -298.5 200l480 770l275 -171l-315 -519c47.333 -29.333 90 -60.666 128 -93.999s70.167 -68.333 96.5 -105s46.5 -75.167 60.5 -115.5
s21 -82.5 21 -126.5c0 -51.333 -8.83301 -99.833 -26.5 -145.5s-45.5 -85.5 -83.5 -119.5s-86.833 -61 -146.5 -81s-131.5 -30 -215.5 -30h-534z" />
    <glyph glyph-name="uniFB95" unicode="&#x6af;" horiz-adv-x="1185" arabic-form="medial" 
d="M15 0c-12.667 0 -23.332 1.33203 -31.999 3.99902s-15.5 8 -20.5 16s-8.66699 19.833 -11 35.5s-3.5 36.5 -3.5 62.5v53c0 20 0.5 37.333 1.5 52s3.83301 26.5 8.5 35.5s11.334 15.667 20.001 20s21 6.5 37 6.5h508c30.667 0 56 2.66699 76 8s35.667 12.333 47 21
s19.166 18.667 23.499 30s6.5 23 6.5 35c0 46 -34.167 98.667 -102.5 158s-167.833 126 -298.5 200l480 770l275 -171l-315 -519c47.333 -29.333 90 -60.666 128 -93.999s70.167 -68.333 96.5 -105s46.5 -75.167 60.5 -115.5s21 -82.5 21 -126.5
c0 -11.333 -0.5 -22.5 -1.5 -33.5s-2.16699 -22.167 -3.5 -33.5c27.333 -8.66699 54.833 -14.834 82.5 -18.501s54.5 -5.5 80.5 -5.5h5c16 0 28.333 -2.16699 37 -6.5s15.334 -11 20.001 -20s7.5 -20.833 8.5 -35.5s1.5 -32 1.5 -52v-53c0 -26 -1.16699 -46.833 -3.5 -62.5
s-6 -27.5 -11 -35.5s-11.833 -13.333 -20.5 -16s-19.334 -4 -32.001 -4h-8c-46 0 -93 8.83301 -141 26.5s-93 42.834 -135 75.501c-38 -32 -85.833 -57 -143.5 -75s-126.834 -27 -207.501 -27h-534zM-68.998 935.999l491 777l255 -154l-480 -770z" />
    <glyph glyph-name="uniFB9F" unicode="&#x6ba;" horiz-adv-x="1596" arabic-form="final" 
d="M1014 236c0 17.333 -2.16699 40.001 -6.5 68.001s-10.5 58.5 -18.5 91.5s-18 67.5 -30 103.5s-26 71 -42 105l352 94c9.33301 -26 18.833 -54 28.5 -84s19 -60.833 28 -92.5s17 -63.5 24 -95.5s12.833 -62.667 17.5 -92c34.667 -18 71.667 -30.667 111 -38
s77 -11 113 -11h5c16 0 28.333 -2.16699 37 -6.5s15.334 -11 20.001 -20s7.5 -20.833 8.5 -35.5s1.5 -32 1.5 -52v-53c0 -26 -1.16699 -46.833 -3.5 -62.5s-6 -27.5 -11 -35.5s-11.833 -13.333 -20.5 -16s-19.334 -4 -32.001 -4h-8c-38 0 -76.667 6 -116 18
s-77.333 29.333 -114 52c-16 -73.333 -42.833 -140 -80.5 -200s-85 -111.5 -142 -154.5s-123.167 -76.333 -198.5 -100s-159 -35.5 -251 -35.5c-118.667 0 -221.167 15.833 -307.5 47.5s-157.5 74.167 -213.5 127.5s-97.5 115 -124.5 185s-40.5 143.333 -40.5 220
c-0 34.667 4.33301 72 13 112s20.5 80.5 35.5 121.5s32.5 81.667 52.5 122s41.333 78.166 64 113.499l298 -158c-14.667 -22.667 -27.667 -46.334 -39 -71.001s-21 -49.5 -29 -74.5s-14 -49.667 -18 -74s-6 -47.166 -6 -68.499c0 -42.667 7.83301 -82.167 23.5 -118.5
s38.167 -67.833 67.5 -94.5s65 -47.667 107 -63s89.667 -23 143 -23c99.333 0 174.5 30.333 225.5 91s76.5 147.667 76.5 261z" />
    <glyph glyph-name="uniFBA5" unicode="&#x6c0;" horiz-adv-x="1205" arabic-form="final" 
d="M633 638c-43.333 -11.333 -82.499 -23.832 -117.499 -37.499s-64.667 -28.834 -89 -45.501s-43.166 -35 -56.499 -55s-20 -42 -20 -66c0 -28.667 11.667 -51.334 35 -68.001s54 -25 92 -25c27.333 0 54.166 2.83301 80.499 8.5s51.166 13.834 74.499 24.501z
M992.001 361.001c0 -14.667 0.666992 -26.833 2 -36.5s3.83301 -17.5 7.5 -23.5s8.66699 -10.167 15 -12.5s14.833 -3.5 25.5 -3.5h163c15.333 0 27.5 -2.16699 36.5 -6.5s15.667 -11 20 -20s7 -20.833 8 -35.5s1.5 -32 1.5 -52v-53c0 -26 -1.16699 -46.833 -3.5 -62.5
s-6 -27.5 -11 -35.5s-11.667 -13.333 -20 -16s-18.833 -4 -31.5 -4h-209c-44 0 -83 2.66699 -117 8s-63.5 12.666 -88.5 21.999s-46.5 20.833 -64.5 34.5s-33 29.167 -45 46.5c-42 -15.333 -82.333 -26.666 -121 -33.999s-78 -11 -118 -11
c-51.333 0 -103.166 6.83301 -155.499 20.5s-99.833 34.834 -142.5 63.501s-77.334 65.5 -104.001 110.5s-40 98.833 -40 161.5c0 51.333 9.66699 97.833 29 139.5s45.166 79.5 77.499 113.5s69.833 64.167 112.5 90.5s87.334 49.5 134.001 69.5s94 37.333 142 52
s93.333 27 136 37c0 19.333 0.333008 39.166 1 59.499s1 40.5 1 60.5h359v-683zM801.001 1611c-22.667 7.33301 -45.502 12.6709 -68.502 16.0039s-45.833 5 -68.5 5c-33.333 0 -59.333 -6.33301 -78 -19s-28 -27.667 -28 -45c0 -16 4.5 -29.333 13.5 -40
s20.667 -19.334 35 -26.001s30.333 -11.5 48 -14.5s35.167 -4.5 52.5 -4.5h127v-232h-609v232h93c-9.33301 17.333 -16.666 34.666 -21.999 51.999s-8 34.333 -8 51c0 46 9.5 86.167 28.5 120.5s43.667 62.666 74 84.999s64.5 39 102.5 50s76 16.5 114 16.5
c12.667 0 25.834 -0.166992 39.501 -0.5s28.667 -1.33301 45 -3s35 -3.83398 56 -6.50098s45.5 -6 73.5 -10z" />
    <glyph glyph-name="uniFBA7" unicode="&#x6c1;" horiz-adv-x="864" arabic-form="final" 
d="M20 -57c-5.33301 20.667 -9.33496 38.3291 -12.002 52.9961s-4.5 28.834 -5.5 42.501s-1.66699 28.167 -2 43.5s-0.5 34 -0.5 56c0 62.667 10.167 121.5 30.5 176.5s47.666 102.833 81.999 143.5s74.166 72.834 119.499 96.501s93 35.5 143 35.5
c40 0 75.167 -4.66699 105.5 -14s57.5 -22 81.5 -38s46 -34.333 66 -55l60 -65c14.667 -17.333 29.334 -33.833 44.001 -49.5s29.334 -29.834 44.001 -42.501s29.334 -22.667 44.001 -30s29.667 -11 45 -11s27.5 -2.16699 36.5 -6.5s15.667 -11 20 -20s7 -20.833 8 -35.5
s1.5 -32 1.5 -52v-53c0 -26 -1.16699 -46.833 -3.5 -62.5s-6 -27.5 -11 -35.5s-11.667 -13.333 -20 -16s-18.833 -4 -31.5 -4h-45c-40 0 -75.167 7.33301 -105.5 22s-57.5 32.834 -81.5 54.501s-45.667 45.334 -65 71.001s-38.166 49.334 -56.499 71.001
s-37 39.834 -56 54.501s-40.167 22 -63.5 22c-10.667 0 -22.667 -3.33301 -36 -10s-25.833 -17.834 -37.5 -33.501s-21.5 -36.334 -29.5 -62.001s-12 -57.5 -12 -95.5c0 -43.333 6.33301 -93.666 19 -150.999h-276z" />
    <glyph glyph-name="uniFBA8" unicode="&#x6c1;" horiz-adv-x="731" arabic-form="initial" 
d="M462 0c-21.333 -26 -34.998 -50.835 -40.998 -74.502s-9 -44.167 -9 -61.5c0 -9.33301 1.33301 -18.666 4 -27.999s7.16699 -17.666 13.5 -24.999s14.666 -13.333 24.999 -18s23.5 -7 39.5 -7c18 0 41 4 69 12c-27.333 -62.667 -61.166 -110.5 -101.499 -143.5
s-90.833 -49.5 -151.5 -49.5c-18 0 -37.333 2.66699 -58 8s-39.834 14.5 -57.501 27.5s-32.334 30.833 -44.001 53.5s-17.5 51 -17.5 85c0 16 1 32.167 3 48.5s5.5 33.333 10.5 51s11.667 36.5 20 56.5s18.833 41.667 31.5 65h-200c-12.667 -0 -23.334 1.33301 -32.001 4
s-15.5 8 -20.5 16s-8.66699 19.833 -11 35.5s-3.5 36.5 -3.5 62.5v53c0 20 0.5 37.333 1.5 52s3.83301 26.5 8.5 35.5s11.334 15.667 20.001 20s21 6.5 37 6.5h221v595h362v-880h-119z" />
    <glyph glyph-name="uniFBA9" unicode="&#x6c1;" horiz-adv-x="1054" arabic-form="medial" 
d="M1121 118c0 -26 -1.16406 -46.8311 -3.49707 -62.498s-6 -27.5 -11 -35.5s-11.667 -13.333 -20 -16s-18.833 -4 -31.5 -4h-54c-42 0 -82.167 -11.333 -120.5 -34s-73.5 -61.667 -105.5 -117s-60.333 -129.166 -85 -221.499s-44.334 -207.833 -59.001 -346.5
c-90 23.333 -167.167 56.166 -231.5 98.499s-117.333 89.833 -159 142.5s-72.167 108.167 -91.5 166.5s-29 115.5 -29 171.5c0 20 1 41.5 3 64.5s5.33301 48.167 10 75.5h-136c-12.667 0 -23.167 1.33301 -31.5 4s-15 8 -20 16s-8.66699 19.833 -11 35.5
s-3.5 36.5 -3.5 62.5v53c0 20 0.5 37.333 1.5 52s3.66699 26.5 8 35.5s11 15.667 20 20s21.167 6.5 36.5 6.5h474c-15.333 -34.667 -27.833 -69.5 -37.5 -104.5s-17.167 -67.833 -22.5 -98.5s-9.16602 -57.834 -11.499 -81.501s-3.5 -41.167 -3.5 -52.5
c0 -26 2 -52.167 6 -78.5s9.66699 -51.333 17 -75s16.666 -45.834 27.999 -66.501s24.666 -38.667 39.999 -54h10c20 97.333 44.5 184 73.5 260s64.5 140 106.5 192s91.167 91.5 147.5 118.5s121.166 40.5 194.499 40.5h36c15.333 0 27.5 -2.16699 36.5 -6.5
s15.667 -11 20 -20s7 -20.833 8 -35.5s1.5 -32 1.5 -52v-53z" />
    <glyph glyph-name="uniFBAB" unicode="&#x6be;" horiz-adv-x="1407" arabic-form="final" 
d="M980 447c0 19.333 -2.66797 38.1699 -8.00098 56.5029s-12.666 34.666 -21.999 48.999s-20.333 25.833 -33 34.5s-26 13 -40 13c-21.333 0 -42.5 -9 -63.5 -27s-40.833 -41.833 -59.5 -71.5s-35.667 -63.334 -51 -101.001s-28 -76.167 -38 -115.5h168
c22 0 42 4.5 60 13.5s33.5 21 46.5 36s23 32.167 30 51.5s10.5 39.666 10.5 60.999zM664.999 0.00390625c6.66699 -48 17.168 -89.998 31.501 -125.998s30.666 -65.833 48.999 -89.5s37.666 -41.334 57.999 -53.001s39.5 -17.5 57.5 -17.5
c14.667 0 28.334 3.16699 41.001 9.5s23.5 14.666 32.5 24.999s16 22.333 21 36s7.5 28.167 7.5 43.5c0 22 -3.33301 43.333 -10 64s-16 39 -28 55s-26.5 28.833 -43.5 38.5s-35.833 14.5 -56.5 14.5h-160zM358 285.006c17.333 74 39.335 140.664 66.002 199.997
s56 112 88 158s65.833 85.333 101.5 118s71.167 59.5 106.5 80.5s69.666 36.5 102.999 46.5s64 15 92 15c51.333 0 99.166 -12.333 143.499 -37s83 -56.834 116 -96.501s58.833 -84.667 77.5 -135s28 -100.833 28 -151.5c0 -31.333 -4.5 -64.833 -13.5 -100.5
s-21.167 -68.167 -36.5 -97.5h178c15.333 0 27.5 -2.16699 36.5 -6.5s15.667 -11 20 -20s7 -20.833 8 -35.5s1.5 -32 1.5 -52v-53c0 -26 -1.16699 -46.833 -3.5 -62.5s-6 -27.5 -11 -35.5s-11.667 -13.333 -20 -16s-18.833 -4 -31.5 -4h-198
c15.333 -28 28.333 -58.167 39 -90.5s16 -65.5 16 -99.5c0 -62 -12.5 -117.333 -37.5 -166s-57 -89.667 -96 -123s-82 -58.666 -129 -75.999s-92.5 -26 -136.5 -26c-31.333 0 -65 4.33301 -101 13s-72.167 22.334 -108.5 41.001s-71.833 43 -106.5 73s-66 66.667 -94 110
s-51.833 93.333 -71.5 150s-32.834 121.334 -39.501 194.001h-15c-20 0 -36 -4.5 -48 -13.5s-21 -21.833 -27 -38.5s-10.167 -36.667 -12.5 -60s-4.16602 -49.333 -5.49902 -78h-165c-20 36 -37 75.167 -51 117.5s-21 83.5 -21 123.5c0 48.667 8.16699 88.334 24.5 119.001
s38.5 54.5 66.5 71.5s60.333 28.5 97 34.5s75.667 9 117 9h53z" />
    <glyph glyph-name="uniFBAC" unicode="&#x6be;" horiz-adv-x="1530" arabic-form="initial" 
d="M-2 0c-12.667 0 -23.334 1.3291 -32.001 3.99609s-15.5 8 -20.5 16s-8.66699 19.833 -11 35.5s-3.5 36.5 -3.5 62.5v53c0 20 0.5 37.333 1.5 52s3.83301 26.5 8.5 35.5s11.334 15.667 20.001 20s21 6.5 37 6.5h207c-5.33301 14.667 -10 30 -14 46s-7.33301 31.5 -10 46.5
s-4.66699 29.5 -6 43.5s-2 26.333 -2 37c0 54.667 12.167 110.334 36.5 167.001s56.5 109 96.5 157l-62 13c10.667 28.667 21.667 54.5 33 77.5s23.5 44.5 36.5 64.5s26.833 39.167 41.5 57.5s31 36.5 49 54.5c174.667 -33.333 324.667 -70.166 450 -110.499
s228.5 -88.166 309.5 -143.499s140.667 -120 179 -194s57.5 -161.333 57.5 -262c0 -3.33301 -0.166992 -11.166 -0.5 -23.499s-1 -31.5 -2 -57.5l-4 -102l-6.5 -156h-1389zM556 718.996c-23.333 0 -43.333 -5.83203 -60 -17.499s-30.5 -27.334 -41.5 -47.001
s-19.167 -42 -24.5 -67s-8 -50.833 -8 -77.5c0 -20.667 1.5 -42 4.5 -64s7.33301 -43.167 13 -63.5s12.667 -39 21 -56s17.833 -30.833 28.5 -41.5h160c6.66699 12.667 12.667 27 18 43s9.5 32.833 12.5 50.5s5.33301 35.5 7 53.5s2.5 35.333 2.5 52
c0 30 -2.83301 59.167 -8.5 87.5s-14 53.333 -25 75s-24.833 39.167 -41.5 52.5s-36 20 -58 20zM1087 288.997c1.33301 8 2.16797 18.5 2.50098 31.5s0.5 23.5 0.5 31.5c0 31.333 -4.5 61.666 -13.5 90.999s-23.5 56.833 -43.5 82.5s-46.333 48.834 -79 69.501
s-72.334 38 -119.001 52c13.333 -21.333 23.833 -46.333 31.5 -75s13.5 -59 17.5 -91s6.5 -64.833 7.5 -98.5s1.5 -66.167 1.5 -97.5h190z" />
    <glyph glyph-name="uniFBAD" unicode="&#x6be;" horiz-adv-x="1325" arabic-form="medial" 
d="M1391 118c0 -26 -1.16406 -46.835 -3.49707 -62.502s-6 -27.5 -11 -35.5s-11.667 -13.333 -20 -16s-18.833 -4 -31.5 -4h-278c15.333 -28 28.333 -58.167 39 -90.5s16 -65.5 16 -99.5c0 -62 -12.5 -117.333 -37.5 -166s-57 -89.667 -96 -123s-82 -58.666 -129 -75.999
s-92.5 -26 -136.5 -26c-31.333 0 -65 4.33301 -101 13s-72.167 22.334 -108.5 41.001s-71.833 43 -106.5 73s-66 66.667 -94 110s-51.833 93.333 -71.5 150s-32.834 121.334 -39.501 194.001h-184c-12.667 0 -23.334 1.33301 -32.001 4s-15.5 8 -20.5 16
s-8.66699 19.833 -11 35.5s-3.5 36.5 -3.5 62.5v53c0 20 0.5 37.333 1.5 52s3.83301 26.5 8.5 35.5s11.334 15.667 20.001 20s21 6.5 37 6.5h197c17.333 74 39.333 140.667 66 200s56 112 88 158s65.833 85.333 101.5 118s71.167 59.5 106.5 80.5s69.666 36.5 102.999 46.5
s64 15 92 15c51.333 0 99.166 -12.333 143.499 -37s83 -56.834 116 -96.501s58.833 -84.667 77.5 -135s28 -100.833 28 -151.5c0 -31.333 -4.5 -64.833 -13.5 -100.5s-21.167 -68.167 -36.5 -97.5h258c15.333 0 27.5 -2.16699 36.5 -6.5s15.667 -11 20 -20
s7 -20.833 8 -35.5s1.5 -32 1.5 -52v-53zM670.003 284.998c22 0 41.999 4.50391 59.999 13.5039s33.5 21 46.5 36s23 32.167 30 51.5s10.5 39.666 10.5 60.999c0 19.333 -2.66699 38.166 -8 56.499s-12.666 34.666 -21.999 48.999s-20.333 25.833 -33 34.5s-26 13 -40 13
c-21.333 0 -42.5 -9 -63.5 -27s-40.833 -41.833 -59.5 -71.5s-35.667 -63.334 -51 -101.001s-28 -76.167 -38 -115.5h168zM502.002 0.00195312c6.66699 -48 17.168 -89.998 31.501 -125.998s30.666 -65.833 48.999 -89.5s37.666 -41.334 57.999 -53.001
s39.5 -17.5 57.5 -17.5c14.667 0 28.334 3.16699 41.001 9.5s23.5 14.666 32.5 24.999s16 22.333 21 36s7.5 28.167 7.5 43.5c0 22 -3.33301 43.333 -10 64s-16 39 -28 55s-26.5 28.833 -43.5 38.5s-35.833 14.5 -56.5 14.5h-160z" />
    <glyph glyph-name="uniFBAF" unicode="&#x6d2;" horiz-adv-x="1014" arabic-form="final" 
d="M1016 285c15.333 0 27.5 -2.16699 36.5 -6.5s15.667 -11 20 -20s7 -20.833 8 -35.5s1.5 -32 1.5 -52v-53c0 -26 -1.16699 -46.833 -3.5 -62.5s-6 -27.5 -11 -35.5s-11.667 -13.333 -20 -16s-18.833 -4 -31.5 -4h-372c-69.333 0 -124.5 -2.33301 -165.5 -7
s-72.167 -10.667 -93.5 -18s-35.166 -15.5 -41.499 -24.5s-9.5 -17.833 -9.5 -26.5c0 -13.333 6 -25.833 18 -37.5s35 -22.167 69 -31.5s81.5 -16.666 142.5 -21.999s140.833 -8 239.5 -8c89.333 0 176.333 1.66699 261 5s169.834 8.33301 255.501 15s173.167 15 262.5 25
s183 21.667 281 35c-5.33301 -49.333 -9.83301 -98 -13.5 -146s-7.83398 -96.667 -12.501 -146c-146 -24.667 -310 -45 -492 -61s-375.667 -24 -581 -24c-144 0 -264.833 9.83301 -362.5 29.5s-176.334 46.667 -236.001 81s-102.167 74.666 -127.5 120.999
s-38 96.166 -38 149.499c-0 66.667 17.333 123.834 52 171.501s84.834 86.667 150.501 117s145.667 52.5 240 66.5s201.166 21 320.499 21h253z" />
    <glyph glyph-name="uniFBB1" unicode="&#x6d3;" horiz-adv-x="1040" arabic-form="final" 
d="M1016 285c15.333 0 27.5 -2.16699 36.5 -6.5s15.667 -11 20 -20s7 -20.833 8 -35.5s1.5 -32 1.5 -52v-53c0 -26 -1.16699 -46.833 -3.5 -62.5s-6 -27.5 -11 -35.5s-11.667 -13.333 -20 -16s-18.833 -4 -31.5 -4h-372c-69.333 0 -124.5 -2.33301 -165.5 -7
s-72.167 -10.667 -93.5 -18s-35.166 -15.5 -41.499 -24.5s-9.5 -17.833 -9.5 -26.5c0 -13.333 6 -25.833 18 -37.5s35 -22.167 69 -31.5s81.5 -16.666 142.5 -21.999s140.833 -8 239.5 -8c89.333 0 176.333 1.66699 261 5s169.834 8.33301 255.501 15s173.167 15 262.5 25
s183 21.667 281 35c-5.33301 -49.333 -9.83301 -98 -13.5 -146s-7.83398 -96.667 -12.501 -146c-146 -24.667 -310 -45 -492 -61s-375.667 -24 -581 -24c-144 0 -264.833 9.83301 -362.5 29.5s-176.334 46.667 -236.001 81s-102.167 74.666 -127.5 120.999
s-38 96.166 -38 149.499c-0 66.667 17.333 123.834 52 171.501s84.834 86.667 150.501 117s145.667 52.5 240 66.5s201.166 21 320.499 21h253zM606 892c-22.667 7.33301 -45.502 12.6709 -68.502 16.0039s-45.833 5 -68.5 5c-33.333 0 -59.333 -6.33301 -78 -19
s-28 -27.667 -28 -45c0 -16 4.5 -29.333 13.5 -40s20.667 -19.334 35 -26.001s30.333 -11.5 48 -14.5s35.167 -4.5 52.5 -4.5h127v-232h-609v232h93c-9.33301 17.333 -16.666 34.666 -21.999 51.999s-8 34.333 -8 51c0 46 9.5 86.167 28.5 120.5s43.667 62.666 74 84.999
s64.5 39 102.5 50s76 16.5 114 16.5c12.667 0 25.834 -0.166992 39.501 -0.5s28.667 -1.33301 45 -3s35 -3.83398 56 -6.50098s45.5 -6 73.5 -10z" />
    <glyph glyph-name="uniFBE8" unicode="&#x649;" horiz-adv-x="731" arabic-form="initial" 
d="M-2 0c-12.667 0 -23.334 1.33301 -32.001 4s-15.5 8 -20.5 16s-8.66699 19.833 -11 35.5s-3.5 36.5 -3.5 62.5v53c0 20 0.5 37.333 1.5 52s3.83301 26.5 8.5 35.5s11.334 15.667 20.001 20s21 6.5 37 6.5h221v595h362v-880h-583z" />
    <glyph glyph-name="uniFBE9" unicode="&#x649;" horiz-adv-x="817" arabic-form="medial" 
d="M577 363l0.000976562 -11.999c0 -4 -0.333008 -7.66699 -1 -11c36 -20.667 74.833 -35 116.5 -43s81.5 -12 119.5 -12h5c16 0 28.333 -2.16699 37 -6.5s15.334 -11 20.001 -20s7.5 -20.833 8.5 -35.5s1.5 -32 1.5 -52v-53c0 -26 -1.16699 -46.833 -3.5 -62.5
s-6 -27.5 -11 -35.5s-11.833 -13.333 -20.5 -16s-19.334 -4 -32.001 -4h-8c-50.667 0 -102.334 10.667 -155.001 32s-101 51.333 -145 90c-26.667 -36.667 -62.5 -66.167 -107.5 -88.5s-102.167 -33.5 -171.5 -33.5h-232c-12.667 0 -23.334 1.33301 -32.001 4
s-15.5 8 -20.5 16s-8.66699 19.833 -11 35.5s-3.5 36.5 -3.5 62.5v53c0 20 0.5 37.333 1.5 52s3.83301 26.5 8.5 35.5s11.334 15.667 20.001 20s21 6.5 37 6.5h140c28 0 47.833 6.66699 59.5 20s17.5 38.666 17.5 75.999v499h362v-517z" />
    <glyph glyph-name="uniFBFD" unicode="&#x6cc;" horiz-adv-x="2260" arabic-form="final" 
d="M1131 429c0 151.333 44.6689 264.501 134.002 339.501s221.666 112.5 396.999 112.5h384v-479c0 -42 10.167 -72 30.5 -90s47.5 -27 81.5 -27h102c15.333 0 27.5 -2.16699 36.5 -6.5s15.667 -11 20 -20s7 -20.833 8 -35.5s1.5 -32 1.5 -52v-53
c0 -26 -1.16699 -46.833 -3.5 -62.5s-6 -27.5 -11 -35.5s-11.667 -13.333 -20 -16s-18.833 -4 -31.5 -4h-223c-44 0 -87 5.83301 -129 17.5s-79.5 31 -112.5 58s-59.5 62.667 -79.5 107s-30 98.833 -30 163.5v241h-50c-44.667 0 -79.834 -13.5 -105.501 -40.5
s-38.5 -72.833 -38.5 -137.5v-289c0 -68.667 -16.167 -135.667 -48.5 -201s-79.166 -123.5 -140.499 -174.5s-136.333 -92 -225 -123s-189.334 -46.5 -302.001 -46.5c-105.333 0 -197.833 10 -277.5 30s-148.167 46.167 -205.5 78.5s-104.833 69.166 -142.5 110.499
s-67.667 83.5 -90 126.5s-38 85 -47 126s-13.5 77.167 -13.5 108.5c0 38.667 4.66699 78.334 14 119.001s22 80.667 38 120s35.167 77.5 57.5 114.5s46.5 71.5 72.5 103.5l292 -151c-16.667 -22 -31.834 -45.667 -45.501 -71s-25.5 -50.833 -35.5 -76.5
s-17.667 -50.834 -23 -75.501s-8 -47.334 -8 -68.001c0 -18.667 2.16699 -38.667 6.5 -60s12.166 -42.833 23.499 -64.5s26.833 -42.5 46.5 -62.5s44.834 -37.667 75.501 -53s67.5 -27.666 110.5 -36.999s93.5 -14 151.5 -14c56 0 105.833 6.16699 149.5 18.5
s80.834 29.5 111.501 51.5s54 48 70 78s24 62.667 24 98v304z" />
    <glyph glyph-name="uniFBFE" unicode="&#x6cc;" horiz-adv-x="818" arabic-form="initial" 
d="M-2 0c-12.667 0 -23.334 1.33301 -32.001 4s-15.5 8 -20.5 16s-8.66699 19.833 -11 35.5s-3.5 36.5 -3.5 62.5v53c0 20 0.5 37.333 1.5 52s3.83301 26.5 8.5 35.5s11.334 15.667 20.001 20s21 6.5 37 6.5h308v595h362v-880h-670zM56 -371c0 24 4.5 46.333 13.5 67
s21.167 38.834 36.5 54.501s33.333 28 54 37s42.667 13.5 66 13.5s45.166 -4.5 65.499 -13.5s38.166 -21.333 53.499 -37s27.5 -33.834 36.5 -54.501s13.5 -43 13.5 -67s-4.5 -46.333 -13.5 -67s-21.167 -38.667 -36.5 -54s-33.166 -27.5 -53.499 -36.5
s-42.166 -13.5 -65.499 -13.5s-45.333 4.5 -66 13.5s-38.667 21.167 -54 36.5s-27.5 33.333 -36.5 54s-13.5 43 -13.5 67zM467 -371c0 24 4.5 46.333 13.5 67s21.167 38.834 36.5 54.501s33.166 28 53.499 37s42.166 13.5 65.499 13.5s45.166 -4.5 65.499 -13.5
s38.166 -21.333 53.499 -37s27.5 -33.834 36.5 -54.501s13.5 -43 13.5 -67s-4.5 -46.333 -13.5 -67s-21.167 -38.667 -36.5 -54s-33.166 -27.5 -53.499 -36.5s-42.166 -13.5 -65.499 -13.5s-45.166 4.5 -65.499 13.5s-38.166 21.167 -53.499 36.5s-27.5 33.333 -36.5 54
s-13.5 43 -13.5 67z" />
    <glyph glyph-name="uniFBFF" unicode="&#x6cc;" horiz-adv-x="817" arabic-form="medial" 
d="M577 363l0.000976562 -11.999c0 -4 -0.333008 -7.66699 -1 -11c36 -20.667 74.833 -35 116.5 -43s81.5 -12 119.5 -12h5c16 0 28.333 -2.16699 37 -6.5s15.334 -11 20.001 -20s7.5 -20.833 8.5 -35.5s1.5 -32 1.5 -52v-53c0 -26 -1.16699 -46.833 -3.5 -62.5
s-6 -27.5 -11 -35.5s-11.833 -13.333 -20.5 -16s-19.334 -4 -32.001 -4h-8c-50.667 0 -102.334 10.667 -155.001 32s-101 51.333 -145 90c-26.667 -36.667 -62.5 -66.167 -107.5 -88.5s-102.167 -33.5 -171.5 -33.5h-232c-12.667 0 -23.334 1.33301 -32.001 4
s-15.5 8 -20.5 16s-8.66699 19.833 -11 35.5s-3.5 36.5 -3.5 62.5v53c0 20 0.5 37.333 1.5 52s3.83301 26.5 8.5 35.5s11.334 15.667 20.001 20s21 6.5 37 6.5h140c28 0 47.833 6.66699 59.5 20s17.5 38.666 17.5 75.999v499h362v-517zM4.00098 -370.999
c0 24 4.5 46.333 13.5 67s21.167 38.834 36.5 54.501s33.333 28 54 37s42.667 13.5 66 13.5s45.166 -4.5 65.499 -13.5s38.166 -21.333 53.499 -37s27.5 -33.834 36.5 -54.501s13.5 -43 13.5 -67s-4.5 -46.333 -13.5 -67s-21.167 -38.667 -36.5 -54
s-33.166 -27.5 -53.499 -36.5s-42.166 -13.5 -65.499 -13.5s-45.333 4.5 -66 13.5s-38.667 21.167 -54 36.5s-27.5 33.333 -36.5 54s-13.5 43 -13.5 67zM415.001 -370.999c0 24 4.5 46.333 13.5 67s21.167 38.834 36.5 54.501s33.166 28 53.499 37s42.166 13.5 65.499 13.5
s45.166 -4.5 65.499 -13.5s38.166 -21.333 53.499 -37s27.5 -33.834 36.5 -54.501s13.5 -43 13.5 -67s-4.5 -46.333 -13.5 -67s-21.167 -38.667 -36.5 -54s-33.166 -27.5 -53.499 -36.5s-42.166 -13.5 -65.499 -13.5s-45.166 4.5 -65.499 13.5s-38.166 21.167 -53.499 36.5
s-27.5 33.333 -36.5 54s-13.5 43 -13.5 67z" />
    <glyph glyph-name="uni064C0651" unicode="&#xfc5e;" horiz-adv-x="0" arabic-form="isolated" 
d="M139 1693c-26.667 0 -52.167 5.83301 -76.5 17.5s-45.166 26.167 -62.499 43.5c-18 -17.333 -39.5 -31.833 -64.5 -43.5s-50.833 -17.5 -77.5 -17.5c-32 0 -61 5.16699 -87 15.5s-48.167 25 -66.5 44s-32.5 41.833 -42.5 68.5s-15 56.334 -15 89.001v201h141v-205
c0 -25.333 7 -43.666 21 -54.999s31 -17 51 -17c19.333 0 36.166 7 50.499 21s21.5 31 21.5 51v178h134v-178c0 -20 7 -37 21 -51s31 -21 51 -21s37 5.66699 51 17s21 29.666 21 54.999v206h140v-202c0 -32.667 -5.33301 -62.334 -16 -89.001s-25.5 -49.5 -44.5 -68.5
s-41.333 -33.667 -67 -44s-53.5 -15.5 -83.5 -15.5zM28 2348c7.33301 0 14.665 0.333008 21.998 1s15.333 2 24 4c-22.667 24 -39.5 49.167 -50.5 75.5s-16.5 52.166 -16.5 77.5c0 27.333 5 52.833 15 76.5s23.5 44 40.5 61s36.5 30.333 58.5 40s45.333 14.5 70 14.5
s47.834 -3.66699 69.501 -11s40.5 -18.5 56.5 -33.5s28.5 -34.167 37.5 -57.5s13.5 -50.666 13.5 -82c0 -47.333 -11.667 -89.333 -35 -126s-52.333 -67.667 -87 -93s-71.667 -44.666 -111 -58c-39.333 -13.333 -75.333 -20 -108 -20c-19.333 0 -38.833 1.66699 -58.5 5
s-39 9.33301 -58 18s-37.833 20.334 -56.5 35c-18.667 14.667 -36.667 33 -54 55l-101 -97l-82 90l190 192c16 -22.667 32.833 -44 50.5 -64s35.834 -37.667 54.501 -53s37.667 -27.5 57 -36.5s39 -13.5 59 -13.5zM132.999 2509c0 -14 3.83398 -29 11.501 -45
s22.5 -34.667 44.5 -56c15.333 13.333 28.166 28.333 38.499 45s15.5 35.334 15.5 56c0 19.333 -5.33301 34.333 -16 45s-22.667 16 -36 16c-16.667 0 -30.5 -5.66699 -41.5 -17s-16.5 -26 -16.5 -44z" />
    <glyph glyph-name="uni064D0651" unicode="&#xfc5f;" horiz-adv-x="0" arabic-form="isolated" 
d="M139 2213c-26.667 0 -52.167 5.83301 -76.5 17.5s-45.166 26.167 -62.499 43.5c-18 -17.333 -39.5 -31.833 -64.5 -43.5s-50.833 -17.5 -77.5 -17.5c-32 0 -61 5.16699 -87 15.5s-48.167 25 -66.5 44s-32.5 41.833 -42.5 68.5s-15 56.334 -15 89v201h141v-205
c0 -25.333 7 -43.666 21 -55c14 -11.333 31 -17 51 -17c19.333 0 36.166 7 50.499 21s21.5 31 21.5 51v178h134v-178c0 -20 7 -37 21 -51s31 -21 51 -21s37 5.66699 51 17s21 29.666 21 55v206h140v-202c0 -32.667 -5.33301 -62.334 -16 -89
c-10.667 -26.667 -25.5 -49.5 -44.5 -68.5s-41.333 -33.667 -67 -44s-53.5 -15.5 -83.5 -15.5zM-287 1838h568v-145h-568v145zM-287 2063h568v-145h-568v145z" />
    <glyph glyph-name="uni064E0651" unicode="&#xfc60;" horiz-adv-x="0" arabic-form="isolated" 
d="M139 1693c-26.667 0 -52.167 5.83301 -76.5 17.5s-45.166 26.167 -62.499 43.5c-18 -17.333 -39.5 -31.833 -64.5 -43.5s-50.833 -17.5 -77.5 -17.5c-32 0 -61 5.16699 -87 15.5s-48.167 25 -66.5 44s-32.5 41.833 -42.5 68.5s-15 56.334 -15 89.001v201h141v-205
c0 -25.333 7 -43.666 21 -54.999s31 -17 51 -17c19.333 0 36.166 7 50.499 21s21.5 31 21.5 51v178h134v-178c0 -20 7 -37 21 -51s31 -21 51 -21s37 5.66699 51 17s21 29.666 21 54.999v206h140v-202c0 -32.667 -5.33301 -62.334 -16 -89.001s-25.5 -49.5 -44.5 -68.5
s-41.333 -33.667 -67 -44s-53.5 -15.5 -83.5 -15.5zM-287 2388h568v-145h-568v145z" />
    <glyph glyph-name="uni064F0651" unicode="&#xfc61;" horiz-adv-x="0" arabic-form="isolated" 
d="M139 1693c-26.667 0 -52.167 5.83301 -76.5 17.5s-45.166 26.167 -62.499 43.5c-18 -17.333 -39.5 -31.833 -64.5 -43.5s-50.833 -17.5 -77.5 -17.5c-32 0 -61 5.16699 -87 15.5s-48.167 25 -66.5 44s-32.5 41.833 -42.5 68.5s-15 56.334 -15 89.001v201h141v-205
c0 -25.333 7 -43.666 21 -54.999s31 -17 51 -17c19.333 0 36.166 7 50.499 21s21.5 31 21.5 51v178h134v-178c0 -20 7 -37 21 -51s31 -21 51 -21s37 5.66699 51 17s21 29.666 21 54.999v206h140v-202c0 -32.667 -5.33301 -62.334 -16 -89.001s-25.5 -49.5 -44.5 -68.5
s-41.333 -33.667 -67 -44s-53.5 -15.5 -83.5 -15.5zM-11 2394c16 0 32.998 2 50.998 6c-22 24 -38.5 49 -49.5 75s-16.5 51.667 -16.5 77c0 27.333 5 52.833 15 76.5s23.5 44 40.5 61s36.5 30.333 58.5 40s45.333 14.5 70 14.5s47.834 -3.66699 69.501 -11
s40.5 -18.5 56.5 -33.5s28.5 -34.167 37.5 -57.5s13.5 -50.666 13.5 -82c0 -31.333 -5.5 -60.5 -16.5 -87.5s-25.5 -51.5 -43.5 -73.5s-39 -41.5 -63 -58.5s-49 -31.167 -75 -42.5s-52.167 -20 -78.5 -26s-51.166 -9 -74.499 -9c-46 0 -92 4.16699 -138 12.5
s-90.667 19.833 -134 34.5l30 128c44 -14 85 -24.833 123 -32.5s79.333 -11.5 124 -11.5zM99.998 2555c0 -14 4.00098 -29 12.001 -45s22.667 -34.333 44 -55c15.333 12.667 28.166 27.334 38.499 44c10.333 16.667 15.5 35.334 15.5 56c0 19.333 -5.33301 34.333 -16 45
s-22.667 16 -36 16c-16.667 0 -30.5 -5.66699 -41.5 -17s-16.5 -26 -16.5 -44z" />
    <glyph glyph-name="uni06500651" unicode="&#xfc62;" horiz-adv-x="0" arabic-form="isolated" 
d="M139 1963c-26.667 0 -52.167 5.83301 -76.5 17.5s-45.166 26.167 -62.499 43.5c-18 -17.333 -39.5 -31.833 -64.5 -43.5s-50.833 -17.5 -77.5 -17.5c-32 0 -61 5.16699 -87 15.5s-48.167 25 -66.5 44s-32.5 41.833 -42.5 68.5s-15 56.334 -15 89v201h141v-205
c0 -25.333 7 -43.666 21 -55c14 -11.333 31 -17 51 -17c19.333 0 36.166 7 50.499 21s21.5 31 21.5 51v178h134v-178c0 -20 7 -37 21 -51s31 -21 51 -21s37 5.66699 51 17s21 29.666 21 55v206h140v-202c0 -32.667 -5.33301 -62.334 -16 -89
c-10.667 -26.667 -25.5 -49.5 -44.5 -68.5s-41.333 -33.667 -67 -44s-53.5 -15.5 -83.5 -15.5zM-287 1838h568v-145h-568v145z" />
    <glyph glyph-name="uni06510670" unicode="&#xfc63;" horiz-adv-x="0" arabic-form="isolated" 
d="M139 1693c-26.667 0 -52.167 5.83301 -76.5 17.5s-45.166 26.167 -62.499 43.5c-18 -17.333 -39.5 -31.833 -64.5 -43.5s-50.833 -17.5 -77.5 -17.5c-32 0 -61 5.16699 -87 15.5s-48.167 25 -66.5 44s-32.5 41.833 -42.5 68.5s-15 56.334 -15 89.001v201h141v-205
c0 -25.333 7 -43.666 21 -54.999s31 -17 51 -17c19.333 0 36.166 7 50.499 21s21.5 31 21.5 51v178h134v-178c0 -20 7 -37 21 -51s31 -21 51 -21s37 5.66699 51 17s21 29.666 21 54.999v206h140v-202c0 -32.667 -5.33301 -62.334 -16 -89.001s-25.5 -49.5 -44.5 -68.5
s-41.333 -33.667 -67 -44s-53.5 -15.5 -83.5 -15.5zM-80 2687h152v-475h-152v475z" />
    <glyph glyph-name="uniFDF2" unicode="&#xfdf2;" horiz-adv-x="3403" arabic-form="isolated" 
d="M1785 363l0.000976562 -11.998c0 -4 -0.333008 -7.66699 -1 -11c36 -20.667 74.5 -35 115.5 -43s80.5 -12 118.5 -12h211v1155h362v-1440h-574c-50.667 0 -102.334 10.667 -155.001 32s-101 51.333 -145 90c-26.667 -36.667 -62.5 -66.167 -107.5 -88.5
s-102.167 -33.5 -171.5 -33.5h-442c-44 0 -83 2.66699 -117 8s-63.5 12.666 -88.5 21.999s-46.5 20.833 -64.5 34.5s-33 29.167 -45 46.5c-42 -15.333 -82.333 -26.666 -121 -33.999s-78 -11 -118 -11c-51.333 0 -103.166 6.83301 -155.499 20.5
s-99.833 34.834 -142.5 63.501s-77.334 65.5 -104.001 110.5s-40 98.833 -40 161.5c0 51.333 9.66699 97.833 29 139.5s45.166 79.5 77.499 113.5s69.833 64.167 112.5 90.5s87.334 49.5 134.001 69.5s94 37.333 142 52s93.333 27 136 37c0 19.333 0.333008 39.166 1 59.499
s1 40.5 1 60.5h359v-683c0 -14.667 0.666992 -26.834 2 -36.501s3.83301 -17.5 7.5 -23.5s8.66699 -10.167 15 -12.5s14.833 -3.5 25.5 -3.5h304c28 0 47.833 6.66699 59.5 20s17.5 38.666 17.5 75.999v1059h362v-1077zM633.001 638.002
c-43.333 -11.333 -82.499 -23.832 -117.499 -37.499s-64.667 -28.834 -89 -45.501s-43.166 -35 -56.499 -55s-20 -42 -20 -66c0 -28.667 11.667 -51.334 35 -68.001s54 -25 92 -25c27.333 0 54.166 2.83301 80.499 8.5s51.166 13.834 74.499 24.501zM2892 1440h361v-1440
h-361v1440z" />
    <glyph glyph-name="uniFDFA" unicode="&#xfdfa;" horiz-adv-x="2165" arabic-form="isolated" 
d="M2083 895c0 -19.333 -10.6699 -45.6631 -32.0029 -78.9961s-42.666 -54.666 -63.999 -63.999c-62 -28.667 -141.333 -43 -238 -43c-15.333 0 -31.166 0.333008 -47.499 1s-33.166 1.66699 -50.499 3c-32.667 -64.667 -58.667 -97 -78 -97c-5.33301 0 -8 4.33301 -8 13
c0 20 15 52 45 96c-56.667 22 -89.667 39.667 -99 53c-53.333 -35.333 -87.333 -53 -102 -53c9.33301 -192 26.333 -312.333 51 -361c25.333 -49.333 82.666 -76.333 171.999 -81l4 4c-28.667 20.667 -43 50 -43 88c0 46 22 97.667 66 155c32.667 44 74.334 66 125.001 66
c38.667 0 74.667 -11.667 108 -35c33.333 -22 50 -43 50 -63c-35.333 12 -71 18 -107 18c-48.667 0 -93 -9.66699 -133 -29c-35.333 -19.333 -53 -37.666 -53 -54.999c0 -19.333 17 -46 51 -80c34.667 -34.667 64.667 -54.334 90 -59.001c24.667 2.66699 71 14.667 139 36
c68.667 22 114.334 39.333 137.001 52l-34 -76c-138 -72 -268.667 -108 -392 -108c-130.667 0 -211.667 49.667 -243 149c-40.667 -88.667 -79.667 -133 -117 -133c-35.333 0 -81 30 -137 90c-86.667 -76.667 -221.334 -115 -404.001 -115c-28 0 -53.667 1 -77 3
s-45.333 4.66699 -66 8c5.33301 -45.333 11.333 -81 18 -107c12.667 -49.333 28.667 -83.333 48 -102c60 -60 180 -90 360 -90c154.667 0 267.334 21.667 338.001 65c20.667 50.667 39.667 76 57 76c5.33301 0 8 -5.33301 8 -16c0 -20 -8 -50.333 -24 -91
c8 -17.333 26.333 -26 55 -26c35.333 0 68.666 8 99.999 24c28.667 90.667 51.334 136 68.001 136c5.33301 0 8 -7.66699 8 -23c0 -24 -6.66699 -53.333 -20 -88c42 -18 72 -27 90 -27c10 0 15.333 2.33301 16 7c1.33301 4.66699 -4 31 -16 79l35 74
c16 -49.333 24 -84.666 24 -105.999c0 -92 -30 -138 -90 -138c-31.333 0 -64 13 -98 39c-21.333 -35.333 -61.666 -53 -120.999 -53c-65.333 0 -98 17.667 -98 53c-25.333 -18.667 -69 -35 -131 -49c-68.667 -14.667 -151.334 -22 -248.001 -22
c-132.667 0 -230.334 19 -293.001 57c-79.333 48 -120.333 134 -123 258l-45 -66c-23.333 -34 -41 -51.667 -53 -53c16 -29.333 24 -57.333 24 -84c0 -34 -10.667 -62.667 -32 -86c-10.667 -10.667 -25 -16 -43 -16c-26.667 0 -68.334 15.667 -125.001 47
c-18 -42.667 -46.667 -74.667 -86 -96c-10 -5.33301 -26.333 -8.33301 -49 -9c-22.667 -1.33301 -37.334 -3.33301 -44.001 -6l-22 -8c-8 0 -12 3.33301 -12 10c0 8 16.333 18.333 49 31c20.667 8.66699 37.5 16.167 50.5 22.5s22.833 11.833 29.5 16.5l69 53
c-13.333 25.333 -20 52.666 -20 81.999s12.333 57.666 37 84.999c24.667 28 47.667 42 69 42c4 0 8.33301 -1.33301 13 -4c25.333 -13.333 45 -20 59 -20c24 0 48.667 15.667 74 47l47 86c-53.333 16 -91 34.333 -113 55c-40 36 -66.667 94 -80 174h-4
c-39.333 -68 -93.333 -102 -162 -102c-27.333 0 -53.666 5.33301 -78.999 16c-22 8.66699 -33 17 -33 25c0 34 29.333 73.333 88 118c55.333 42.667 113.333 73 174 91l-4 34l41 68c5.33301 -74 11.666 -134.833 18.999 -182.5s15.666 -82.834 24.999 -105.501
c18.667 -44 56.667 -75 114 -93l-27 270l39 88l35 -368c72 -8 136.667 -12 194 -12c142 0 263 27 363 81c16.667 52 29.667 78 39 78c5.33301 0 8 -6 8 -18c0 -11.333 -2.66699 -28.333 -8 -51c48.667 -48 88.667 -72 120 -72c36.667 0 65.334 29.333 86.001 88l-26 330
c-101.333 -4 -161.333 46.333 -180 151h-4c-5.33301 -20.667 -10.5 -38 -15.5 -52s-9.5 -25.333 -13.5 -34c-14.667 -33.333 -33 -53.666 -55 -60.999l4 -4c95.333 7.33301 143 -19.334 143 -80.001c0 -40 -17 -71.333 -51 -94
c-115.333 -80.667 -224.666 -121 -327.999 -121c-62.667 0 -113.167 15.833 -151.5 47.5s-57.5 76.5 -57.5 134.5c0 42 11 87.667 33 137c-38 10.667 -64 40 -78 88h-4c-21.333 -69.333 -59 -104 -113 -104c-67.333 0 -99.333 52.667 -96 158l-55 -50
c-11.333 -9.33301 -38 -14 -80 -14c-66.667 0 -100 12.333 -100 37c0 13.333 9 34.666 27 63.999c18.667 30 35.334 48.333 50.001 55l156 76v20l35 74l8 -246c3.33301 -57.333 25.333 -86 66 -86c20 0 40 7 60 21c20 14.667 31.333 30.334 34 47.001l-33 233l37 80l57 -330
c12.667 -28.667 35.334 -43 68.001 -43c31.333 0 47 9 47 27c0 27.333 -11 77.666 -33 150.999l-20 66l-21 67l27 68c54.667 -170.667 82 -277.667 82 -321c0 -28 -7 -58.333 -21 -91c-15.333 -38 -32.333 -57 -51 -57c-7.33301 0 -13.333 2 -18 6
c-10 -29.333 -15 -56 -15 -80c0 -102 62.333 -153 187 -153c96.667 0 193.667 32.667 291 98c2.66699 2.66699 4 4.66699 4 6c0 7.33301 -26 15.666 -78 24.999l-125 20c-16.667 12.667 -7.66699 40 27 82c81.333 34 125 70.333 131 109
c0.666992 3.33301 1.16699 7.33301 1.5 12s0.5 10 0.5 16c0 66.667 -3.5 139.167 -10.5 217.5s-17.167 163.5 -30.5 255.5l34 115c33.333 -289.333 59.333 -464 78 -524c25.333 -78 74.666 -123 147.999 -135l-10 196l43 92l16 -286c19.333 6.66699 39.333 16.167 60 28.5
s41.667 27.166 63 44.499l61 -43c26 -16 52.667 -26 80 -30c14.667 15.333 33 32.5 55 51.5s48 39.167 78 60.5c70 52 118 78 144 78c24.667 0 52.667 -9.33301 84 -28c35.333 -21.333 53 -44 53 -68zM2064 4.00293c0 -66.667 -26.334 -140.333 -79.001 -221
c-58 -87.333 -119 -131 -183 -131c-30 0 -70.333 11 -121 33c-50 20.667 -75 36.334 -75 47.001c0 5.33301 3.33301 8 10 8c5.33301 0 23.666 -5 54.999 -15c30 -10.667 54 -16 72 -16c92 -2.66699 187.667 69.666 287 216.999l-15 45
c-25.333 -35.333 -50.666 -53 -75.999 -53c-9.33301 0 -18.166 2.5 -26.499 7.5s-15.833 11.5 -22.5 19.5s-12.167 17 -16.5 27s-6.83301 20 -7.5 30c-1.33301 32 9 68.667 31 110c22.667 42.667 41.667 64 57 64c17.333 0 39 -16.333 65 -49c30 -37.333 45 -78.333 45 -123
zM1987 1309c-46.667 -16.667 -125.999 -51.667 -237.999 -105c-131.333 -64 -197 -105.667 -197 -125c0 -16 18 -33 54 -51l-19 -49c-44.667 14.667 -67 42 -67 82c0 40.667 17.667 70.667 53 90c87.333 50 166.666 92.333 237.999 127s136 62 194 82zM974.997 915.004
c-4 -90.667 -13 -140.333 -27 -149l-51 496l45 116zM1233 76.0049l-53 -64l-99 72l-57 -74l-102 74l59 72l96 -72l56 68zM2025 860.005c0 9.33301 -12.001 19.999 -36.001 31.999c-22.667 12.667 -40.667 19 -54 19c-29.333 0 -70.333 -16.333 -123 -49
c-42 -26 -74 -49 -96 -69c4.66699 -0.666992 10.334 -1.16699 17.001 -1.5s14.667 -0.5 24 -0.5c28 0 56 1.33301 84 4s56 6.66699 84 12c66.667 12.667 100 30.334 100 53.001zM1294 -247.996c0 -32.667 -1.33398 -53 -4.00098 -61c-8 -18 -25 -27 -51 -27
c-12 0 -21.667 2.66699 -29 8c-20 -21.333 -40.333 -32 -61 -32c-10 0 -21.333 5.66699 -34 17c-11.333 11.333 -19.666 17 -24.999 17c-10.667 0 -36.334 -11.667 -77.001 -35c-39.333 -24 -87 -36 -143 -36c-60 0 -90 5.33301 -90 16c0 9.33301 22 14 66 14
c24 0 43.833 0.5 59.5 1.5s27.167 2.16699 34.5 3.5c18 4 42 14.667 72 32c40.667 26 68 39 82 39c10.667 0 23.334 -5.33301 38.001 -16c15.333 -11.333 24.333 -17 27 -17c20.667 0 33 11.667 37 35c2.66699 18 10.334 27 23.001 27c5.33301 0 8 -4 8 -12
c0 -3.33301 -0.166992 -6.5 -0.5 -9.5s-0.833008 -6.16699 -1.5 -9.5c3.33301 -5.33301 10.666 -9.33301 21.999 -12c16.667 0 25 8 25 24c0 22 7.33301 33 22 33zM1669 1444l-12 -45l-400 -197l9 51zM345.995 539.004c-120 -48 -180 -83.667 -180 -107
c0 -13.333 21 -20 63 -20c46 0 86.333 16.333 121 49zM663.995 1362c0 -44 -14.332 -66 -42.999 -66c-17.333 0 -31.666 5.66699 -42.999 17c-24.667 -20.667 -45.334 -31 -62.001 -31c-28.667 0 -43 18.333 -43 55c0 27.333 2 46 6 56l13 12
c-2.66699 -50.667 8.66602 -76 33.999 -76c14.667 0 27.667 11 39 33l-4 47l19 29l8 -62c2.66699 -22 12.667 -33 30 -33c18 0 25.667 10.333 23 31l-6 45l14 21c10 -26 15 -52 15 -78zM386.996 997.004c-13.333 -6 -26.999 -11.832 -40.999 -17.499
s-28.333 -11.167 -43 -16.5c-44.667 -20.667 -68 -37.334 -70 -50.001c-0.666992 -14.667 16.666 -22 51.999 -22c38 0 72.667 9 104 27zM437.997 -77.9951c-5.33301 27.333 -21.668 50.666 -49.001 69.999c-24.667 18.667 -48 28 -70 28c-18.667 0 -28 -8 -28 -24
c0 -17.333 17.667 -35.666 53 -54.999c32.667 -20.667 59.334 -31 80.001 -31c10 0 14.667 4 14 12zM2005 20.0049c-8 44 -25.666 66 -52.999 66c-20.667 0 -34.334 -17 -41.001 -51c4.66699 -24.667 25.667 -37 63 -37c18 0 28.333 7.33301 31 22z" />
    <glyph glyph-name="uniFE82" unicode="&#x622;" horiz-adv-x="734" arabic-form="final" 
d="M150 1440h361v-1022c0 -46.667 8.33301 -80.5 25 -101.5s44.334 -31.5 83.001 -31.5h115c16 0 28.333 -2.16699 37 -6.5s15.334 -11 20.001 -20s7.5 -20.833 8.5 -35.5s1.5 -32 1.5 -52v-53c0 -26 -1.16699 -46.833 -3.5 -62.5s-6 -27.5 -11 -35.5
s-11.833 -13.333 -20.5 -16s-19.334 -4 -32.001 -4h-215c-64.667 0 -120.334 8 -167.001 24s-85 39.5 -115 70.5s-52 69.167 -66 114.5s-21 97.333 -21 156v1075zM-137 1754c23.333 30.667 46.832 56 70.499 76s46.667 35.667 69 47s43.166 19.333 62.499 24s36.333 7 51 7
c16 0 33 -2.16699 51 -6.5s36.833 -10 56.5 -17s39.5 -14.833 59.5 -23.5l59 -26l56 -25c18.667 -8 36.667 -15.167 54 -21.5s34 -11.5 50 -15.5s30.333 -6 43 -6c37.333 0 69.333 9.16699 96 27.5s47 42.833 61 73.5l133 -74c-27.333 -47.333 -53.333 -84.666 -78 -111.999
s-48.667 -48.333 -72 -63s-46.666 -24 -69.999 -28s-47.333 -6 -72 -6c-45.333 0 -88.166 8.16699 -128.499 24.5s-78.5 33.5 -114.5 51.5c-34 17.333 -66.5 32 -97.5 44s-60.5 18 -88.5 18c-19.333 0 -42.333 -5.83301 -69 -17.5s-51 -29.834 -73 -54.501z" />
    <glyph glyph-name="uniFE84" unicode="&#x623;" horiz-adv-x="734" arabic-form="final" 
d="M150 1440h361v-1022c0 -46.667 8.33301 -80.5 25 -101.5s44.334 -31.5 83.001 -31.5h115c16 0 28.333 -2.16699 37 -6.5s15.334 -11 20.001 -20s7.5 -20.833 8.5 -35.5s1.5 -32 1.5 -52v-53c0 -26 -1.16699 -46.833 -3.5 -62.5s-6 -27.5 -11 -35.5
s-11.833 -13.333 -20.5 -16s-19.334 -4 -32.001 -4h-215c-64.667 0 -120.334 8 -167.001 24s-85 39.5 -115 70.5s-52 69.167 -66 114.5s-21 97.333 -21 156v1075zM531 1947c-15.333 5.33301 -30.999 8.99902 -46.999 10.999s-31.667 3 -47 3
c-24 0 -42.833 -4.66699 -56.5 -14s-20.5 -20.333 -20.5 -33c0 -11.333 3.33301 -20.833 10 -28.5s15.167 -14 25.5 -19s21.833 -8.66699 34.5 -11s25 -3.5 37 -3.5h87v-159h-424v159h67c-15.333 26.667 -23 51.334 -23 74.001c0 32.667 6.5 61 19.5 85
s30.167 43.833 51.5 59.5s45.166 27.334 71.499 35c26.333 7.66699 53.166 11.5 80.499 11.5c8.66699 0 17.667 -0.166992 27 -0.5s19.833 -0.833008 31.5 -1.5s24.834 -2 39.501 -4l51 -7z" />
    <glyph glyph-name="uniFE86" unicode="&#x624;" horiz-adv-x="1290" arabic-form="final" 
d="M208 -126c62 2.66699 118 7.16895 168 13.502s95 15.5 135 27.5s75.333 27.167 106 45.5s57.667 40.5 81 66.5c-18 -2 -36 -3.5 -54 -4.5s-34.333 -1.5 -49 -1.5c-62.667 0 -124.167 7.83301 -184.5 23.5s-114.333 40.334 -162 74.001s-86 77.167 -115 130.5
s-43.5 117.666 -43.5 192.999c0 66 12.333 127.667 37 185s60 107.333 106 150s101.5 76.167 166.5 100.5s137.5 36.5 217.5 36.5c32.667 0 67.167 -2.83301 103.5 -8.5s71.833 -15.834 106.5 -30.501s67.667 -34.334 99 -59.001s59 -55.834 83 -93.501s43 -82.667 57 -135
s21 -113.166 21 -182.499v-120h203c16 0 28.333 -2.16699 37 -6.5s15.334 -11 20.001 -20s7.5 -20.833 8.5 -35.5s1.5 -32 1.5 -52v-53c0 -26 -1.16699 -46.833 -3.5 -62.5s-6 -27.5 -11 -35.5s-11.833 -13.333 -20.5 -16s-19.334 -4 -32.001 -4h-242
c-26 -71.333 -63.833 -131.833 -113.5 -181.5s-109.167 -91 -178.5 -124s-147.333 -59 -234 -78s-179.667 -32.833 -279 -41.5zM426 468.002c0 -26 4.16406 -50 12.4971 -72s20.833 -41.333 37.5 -58s37.834 -29.667 63.501 -39s55.5 -14 89.5 -14h103v117
c0 76 -13.833 132 -41.5 168s-65.5 54 -113.5 54c-21.333 0 -41.166 -3.66699 -59.499 -11s-34.166 -17.833 -47.499 -31.5s-24 -30 -32 -49s-12 -40.5 -12 -64.5zM840.997 1539c-22.667 7.33301 -45.502 12.6709 -68.502 16.0039s-45.833 5 -68.5 5
c-33.333 0 -59.333 -6.33301 -78 -19s-28 -27.667 -28 -45c0 -16 4.5 -29.333 13.5 -40s20.667 -19.334 35 -26.001s30.333 -11.5 48 -14.5s35.167 -4.5 52.5 -4.5h127v-232h-609v232h93c-9.33301 17.333 -16.666 34.666 -21.999 51.999s-8 34.333 -8 51
c0 46 9.5 86.167 28.5 120.5s43.667 62.666 74 84.999s64.5 39 102.5 50s76 16.5 114 16.5c12.667 0 25.834 -0.166992 39.501 -0.5s28.667 -1.33301 45 -3s35 -3.83398 56 -6.50098s45.5 -6 73.5 -10z" />
    <glyph glyph-name="uniFE88" unicode="&#x625;" horiz-adv-x="734" arabic-form="final" 
d="M150 1440h361v-1022c0 -46.667 8.33301 -80.5 25 -101.5s44.334 -31.5 83.001 -31.5h115c16 0 28.333 -2.16699 37 -6.5s15.334 -11 20.001 -20s7.5 -20.833 8.5 -35.5s1.5 -32 1.5 -52v-53c0 -26 -1.16699 -46.833 -3.5 -62.5s-6 -27.5 -11 -35.5
s-11.833 -13.333 -20.5 -16s-19.334 -4 -32.001 -4h-215c-64.667 0 -120.334 8 -167.001 24s-85 39.5 -115 70.5s-52 69.167 -66 114.5s-21 97.333 -21 156v1075zM532 -347c-15.333 5.33301 -30.999 8.83301 -46.999 10.5s-31.667 2.5 -47 2.5
c-24 0 -42.833 -4.5 -56.5 -13.5s-20.5 -20.167 -20.5 -33.5c0 -11.333 3.33301 -20.833 10 -28.5s15.167 -14 25.5 -19s21.833 -8.5 34.5 -10.5s25 -3 37 -3h87v-160h-424v160h67c-15.333 25.333 -23 49.666 -23 72.999c0 32.667 6.5 61 19.5 85s30.167 43.833 51.5 59.5
s45.166 27.334 71.499 35.001s53.166 11.5 80.499 11.5c8.66699 0 17.667 -0.166992 27 -0.5s19.833 -0.833008 31.5 -1.5s24.834 -2 39.501 -4l51 -7z" />
    <glyph glyph-name="uniFE8A" unicode="&#x626;" horiz-adv-x="2260" arabic-form="final" 
d="M1131 429c0 151.333 44.6689 264.501 134.002 339.501s221.666 112.5 396.999 112.5h384v-479c0 -42 10.167 -72 30.5 -90s47.5 -27 81.5 -27h102c15.333 0 27.5 -2.16699 36.5 -6.5s15.667 -11 20 -20s7 -20.833 8 -35.5s1.5 -32 1.5 -52v-53
c0 -26 -1.16699 -46.833 -3.5 -62.5s-6 -27.5 -11 -35.5s-11.667 -13.333 -20 -16s-18.833 -4 -31.5 -4h-223c-44 0 -87 5.83301 -129 17.5s-79.5 31 -112.5 58s-59.5 62.667 -79.5 107s-30 98.833 -30 163.5v241h-50c-44.667 0 -79.834 -13.5 -105.501 -40.5
s-38.5 -72.833 -38.5 -137.5v-289c0 -68.667 -16.167 -135.667 -48.5 -201s-79.166 -123.5 -140.499 -174.5s-136.333 -92 -225 -123s-189.334 -46.5 -302.001 -46.5c-105.333 0 -197.833 10 -277.5 30s-148.167 46.167 -205.5 78.5s-104.833 69.166 -142.5 110.499
s-67.667 83.5 -90 126.5s-38 85 -47 126s-13.5 77.167 -13.5 108.5c0 38.667 4.66699 78.334 14 119.001s22 80.667 38 120s35.167 77.5 57.5 114.5s46.5 71.5 72.5 103.5l292 -151c-16.667 -22 -31.834 -45.667 -45.501 -71s-25.5 -50.833 -35.5 -76.5
s-17.667 -50.834 -23 -75.501s-8 -47.334 -8 -68.001c0 -18.667 2.16699 -38.667 6.5 -60s12.166 -42.833 23.499 -64.5s26.833 -42.5 46.5 -62.5s44.834 -37.667 75.501 -53s67.5 -27.666 110.5 -36.999s93.5 -14 151.5 -14c56 0 105.833 6.16699 149.5 18.5
s80.834 29.5 111.501 51.5s54 48 70 78s24 62.667 24 98v304zM527.002 1071c-22.667 7.33301 -45.502 12.6709 -68.502 16.0039s-45.833 5 -68.5 5c-33.333 0 -59.333 -6.33301 -78 -19s-28 -27.667 -28 -45c0 -16 4.5 -29.333 13.5 -40s20.667 -19.334 35 -26.001
s30.333 -11.5 48 -14.5s35.167 -4.5 52.5 -4.5h127v-232h-609v232h93c-9.33301 17.333 -16.666 34.666 -21.999 51.999s-8 34.333 -8 51c0 46 9.5 86.167 28.5 120.5s43.667 62.666 74 84.999s64.5 39 102.5 50s76 16.5 114 16.5c12.667 0 25.834 -0.166992 39.501 -0.5
s28.667 -1.33301 45 -3s35 -3.83398 56 -6.50098s45.5 -6 73.5 -10z" />
    <glyph glyph-name="uniFE8B" unicode="&#x626;" horiz-adv-x="732" arabic-form="initial" 
d="M-2 0c-12.667 0 -23.334 1.33301 -32.001 4s-15.5 8 -20.5 16s-8.66699 19.833 -11 35.5s-3.5 36.5 -3.5 62.5v53c0 20 0.5 37.333 1.5 52s3.83301 26.5 8.5 35.5s11.334 15.667 20.001 20s21 6.5 37 6.5h221v595h362v-880h-583zM690 1437
c-22.667 7.33301 -45.502 12.6709 -68.502 16.0039s-45.833 5 -68.5 5c-33.333 0 -59.333 -6.33301 -78 -19s-28 -27.667 -28 -45c0 -16 4.5 -29.333 13.5 -40s20.667 -19.334 35 -26.001s30.333 -11.5 48 -14.5s35.167 -4.5 52.5 -4.5h127v-232h-609v232h93
c-9.33301 17.333 -16.666 34.666 -21.999 51.999s-8 34.333 -8 51c0 46 9.5 86.167 28.5 120.5s43.667 62.666 74 84.999s64.5 39 102.5 50s76 16.5 114 16.5c12.667 0 25.834 -0.166992 39.501 -0.5s28.667 -1.33301 45 -3s35 -3.83398 56 -6.50098s45.5 -6 73.5 -10z" />
    <glyph glyph-name="uniFE8C" unicode="&#x626;" horiz-adv-x="817" arabic-form="medial" 
d="M577 363l0.000976562 -11.999c0 -4 -0.333008 -7.66699 -1 -11c36 -20.667 74.833 -35 116.5 -43s81.5 -12 119.5 -12h5c16 0 28.333 -2.16699 37 -6.5s15.334 -11 20.001 -20s7.5 -20.833 8.5 -35.5s1.5 -32 1.5 -52v-53c0 -26 -1.16699 -46.833 -3.5 -62.5
s-6 -27.5 -11 -35.5s-11.833 -13.333 -20.5 -16s-19.334 -4 -32.001 -4h-8c-50.667 0 -102.334 10.667 -155.001 32s-101 51.333 -145 90c-26.667 -36.667 -62.5 -66.167 -107.5 -88.5s-102.167 -33.5 -171.5 -33.5h-232c-12.667 0 -23.334 1.33301 -32.001 4
s-15.5 8 -20.5 16s-8.66699 19.833 -11 35.5s-3.5 36.5 -3.5 62.5v53c0 20 0.5 37.333 1.5 52s3.83301 26.5 8.5 35.5s11.334 15.667 20.001 20s21 6.5 37 6.5h140c28 0 47.833 6.66699 59.5 20s17.5 38.666 17.5 75.999v499h362v-517zM640.001 1437
c-22.667 7.33301 -45.502 12.6709 -68.502 16.0039s-45.833 5 -68.5 5c-33.333 0 -59.333 -6.33301 -78 -19s-28 -27.667 -28 -45c0 -16 4.5 -29.333 13.5 -40s20.667 -19.334 35 -26.001s30.333 -11.5 48 -14.5s35.167 -4.5 52.5 -4.5h127v-232h-609v232h93
c-9.33301 17.333 -16.666 34.666 -21.999 51.999s-8 34.333 -8 51c0 46 9.5 86.167 28.5 120.5s43.667 62.666 74 84.999s64.5 39 102.5 50s76 16.5 114 16.5c12.667 0 25.834 -0.166992 39.501 -0.5s28.667 -1.33301 45 -3s35 -3.83398 56 -6.50098s45.5 -6 73.5 -10z" />
    <glyph glyph-name="uniFE8E" unicode="&#x627;" horiz-adv-x="734" arabic-form="final" 
d="M150 1440h361v-1022c0 -46.667 8.33301 -80.5 25 -101.5s44.334 -31.5 83.001 -31.5h115c16 0 28.333 -2.16699 37 -6.5s15.334 -11 20.001 -20s7.5 -20.833 8.5 -35.5s1.5 -32 1.5 -52v-53c0 -26 -1.16699 -46.833 -3.5 -62.5s-6 -27.5 -11 -35.5
s-11.833 -13.333 -20.5 -16s-19.334 -4 -32.001 -4h-215c-64.667 0 -120.334 8 -167.001 24s-85 39.5 -115 70.5s-52 69.167 -66 114.5s-21 97.333 -21 156v1075z" />
    <glyph glyph-name="uniFE90" unicode="&#x628;" horiz-adv-x="1988" arabic-form="final" 
d="M628 0c-86.667 0 -162.503 5.00195 -227.503 15.002s-120.833 24.167 -167.5 42.5s-85 40.333 -115 66s-53.667 54 -71 85s-29.5 64.167 -36.5 99.5s-10.5 72 -10.5 110c0 13.333 0.833008 30 2.5 50s4 41.833 7 65.5s6.33301 48 10 73s7.83398 48.833 12.501 71.5
l162 -14.5l162 -14.5c-6.66699 -35.333 -11.334 -68.5 -14.001 -99.5s-4 -55.167 -4 -72.5c0 -33.333 4.66699 -62 14 -86s27.166 -43.833 53.499 -59.5s62.833 -27.334 109.5 -35.001s107.334 -11.5 182.001 -11.5h599c42 0 72.667 10.333 92 31s29 49.667 29 87v477h362
v-517v-19.5c0 -6.33301 -0.333008 -12.833 -1 -19.5c32.667 -14.667 66.834 -24.834 102.501 -30.501s69.834 -8.5 102.501 -8.5h5c16 0 28.333 -2.16699 37 -6.5s15.334 -11 20.001 -20s7.5 -20.833 8.5 -35.5s1.5 -32 1.5 -52v-53c0 -26 -1.16699 -46.833 -3.5 -62.5
s-6 -27.5 -11 -35.5s-11.833 -13.333 -20.5 -16s-19.334 -4 -32.001 -4h-8c-46.667 0 -94.334 9 -143.001 27s-94 43.667 -136 77c-27.333 -32 -62.666 -57.333 -105.999 -76s-97.666 -28 -162.999 -28h-804zM778.997 -374.998c0 24 4.5 46.333 13.5 67
s21.167 38.834 36.5 54.501s33.333 28 54 37s42.667 13.5 66 13.5s45.166 -4.5 65.499 -13.5s38.166 -21.333 53.499 -37s27.333 -33.834 36 -54.501s13 -43 13 -67s-4.33301 -46.333 -13 -67s-20.667 -38.667 -36 -54s-33.166 -27.5 -53.499 -36.5
s-42.166 -13.5 -65.499 -13.5s-45.333 4.5 -66 13.5s-38.667 21.167 -54 36.5s-27.5 33.333 -36.5 54s-13.5 43 -13.5 67z" />
    <glyph glyph-name="uniFE91" unicode="&#x628;" horiz-adv-x="731" arabic-form="initial" 
d="M-2 0c-12.667 0 -23.334 1.33301 -32.001 4s-15.5 8 -20.5 16s-8.66699 19.833 -11 35.5s-3.5 36.5 -3.5 62.5v53c0 20 0.5 37.333 1.5 52s3.83301 26.5 8.5 35.5s11.334 15.667 20.001 20s21 6.5 37 6.5h221v595h362v-880h-583zM188 -375c0 24 4.5 46.333 13.5 67
s21.167 38.834 36.5 54.501s33.333 28 54 37s42.667 13.5 66 13.5s45.166 -4.5 65.499 -13.5s38.166 -21.333 53.499 -37s27.333 -33.834 36 -54.501s13 -43 13 -67s-4.33301 -46.333 -13 -67s-20.667 -38.667 -36 -54s-33.166 -27.5 -53.499 -36.5
s-42.166 -13.5 -65.499 -13.5s-45.333 4.5 -66 13.5s-38.667 21.167 -54 36.5s-27.5 33.333 -36.5 54s-13.5 43 -13.5 67z" />
    <glyph glyph-name="uniFE92" unicode="&#x628;" horiz-adv-x="817" arabic-form="medial" 
d="M577 363l0.000976562 -11.999c0 -4 -0.333008 -7.66699 -1 -11c36 -20.667 74.833 -35 116.5 -43s81.5 -12 119.5 -12h5c16 0 28.333 -2.16699 37 -6.5s15.334 -11 20.001 -20s7.5 -20.833 8.5 -35.5s1.5 -32 1.5 -52v-53c0 -26 -1.16699 -46.833 -3.5 -62.5
s-6 -27.5 -11 -35.5s-11.833 -13.333 -20.5 -16s-19.334 -4 -32.001 -4h-8c-50.667 0 -102.334 10.667 -155.001 32s-101 51.333 -145 90c-26.667 -36.667 -62.5 -66.167 -107.5 -88.5s-102.167 -33.5 -171.5 -33.5h-232c-12.667 0 -23.334 1.33301 -32.001 4
s-15.5 8 -20.5 16s-8.66699 19.833 -11 35.5s-3.5 36.5 -3.5 62.5v53c0 20 0.5 37.333 1.5 52s3.83301 26.5 8.5 35.5s11.334 15.667 20.001 20s21 6.5 37 6.5h140c28 0 47.833 6.66699 59.5 20s17.5 38.666 17.5 75.999v499h362v-517zM223.001 -374.999
c0 24 4.5 46.333 13.5 67s21.167 38.834 36.5 54.501s33.333 28 54 37s42.667 13.5 66 13.5s45.166 -4.5 65.499 -13.5s38.166 -21.333 53.499 -37s27.333 -33.834 36 -54.501s13 -43 13 -67s-4.33301 -46.333 -13 -67s-20.667 -38.667 -36 -54s-33.166 -27.5 -53.499 -36.5
s-42.166 -13.5 -65.499 -13.5s-45.333 4.5 -66 13.5s-38.667 21.167 -54 36.5s-27.5 33.333 -36.5 54s-13.5 43 -13.5 67z" />
    <glyph glyph-name="uniFE94" unicode="&#x629;" horiz-adv-x="1205" arabic-form="final" 
d="M633 638c-43.333 -11.333 -82.499 -23.832 -117.499 -37.499s-64.667 -28.834 -89 -45.501s-43.166 -35 -56.499 -55s-20 -42 -20 -66c0 -28.667 11.667 -51.334 35 -68.001s54 -25 92 -25c27.333 0 54.166 2.83301 80.499 8.5s51.166 13.834 74.499 24.501z
M992.001 361.001c0 -14.667 0.666992 -26.833 2 -36.5s3.83301 -17.5 7.5 -23.5s8.66699 -10.167 15 -12.5s14.833 -3.5 25.5 -3.5h163c15.333 0 27.5 -2.16699 36.5 -6.5s15.667 -11 20 -20s7 -20.833 8 -35.5s1.5 -32 1.5 -52v-53c0 -26 -1.16699 -46.833 -3.5 -62.5
s-6 -27.5 -11 -35.5s-11.667 -13.333 -20 -16s-18.833 -4 -31.5 -4h-209c-44 0 -83 2.66699 -117 8s-63.5 12.666 -88.5 21.999s-46.5 20.833 -64.5 34.5s-33 29.167 -45 46.5c-42 -15.333 -82.333 -26.666 -121 -33.999s-78 -11 -118 -11
c-51.333 0 -103.166 6.83301 -155.499 20.5s-99.833 34.834 -142.5 63.501s-77.334 65.5 -104.001 110.5s-40 98.833 -40 161.5c0 51.333 9.66699 97.833 29 139.5s45.166 79.5 77.499 113.5s69.833 64.167 112.5 90.5s87.334 49.5 134.001 69.5s94 37.333 142 52
s93.333 27 136 37c0 19.333 0.333008 39.166 1 59.499s1 40.5 1 60.5h359v-683zM274.001 1383c0 24 4.5 46.333 13.5 67s21.167 38.834 36.5 54.501s33.333 28 54 37s42.667 13.5 66 13.5s45.166 -4.5 65.499 -13.5s38.166 -21.333 53.499 -37s27.5 -33.834 36.5 -54.501
s13.5 -43 13.5 -67s-4.5 -46.333 -13.5 -67s-21.167 -38.667 -36.5 -54s-33.166 -27.5 -53.499 -36.5s-42.166 -13.5 -65.499 -13.5s-45.333 4.5 -66 13.5s-38.667 21.167 -54 36.5s-27.5 33.333 -36.5 54s-13.5 43 -13.5 67zM685.001 1383c0 24 4.5 46.333 13.5 67
s21.167 38.834 36.5 54.501s33.166 28 53.499 37s42.166 13.5 65.499 13.5s45.166 -4.5 65.499 -13.5s38.166 -21.333 53.499 -37s27.5 -33.834 36.5 -54.501s13.5 -43 13.5 -67s-4.5 -46.333 -13.5 -67s-21.167 -38.667 -36.5 -54s-33.166 -27.5 -53.499 -36.5
s-42.166 -13.5 -65.499 -13.5s-45.166 4.5 -65.499 13.5s-38.166 21.167 -53.499 36.5s-27.5 33.333 -36.5 54s-13.5 43 -13.5 67z" />
    <glyph glyph-name="uniFE96" unicode="&#x62a;" horiz-adv-x="1988" arabic-form="final" 
d="M628 0c-86.667 0 -162.503 5.00195 -227.503 15.002s-120.833 24.167 -167.5 42.5s-85 40.333 -115 66s-53.667 54 -71 85s-29.5 64.167 -36.5 99.5s-10.5 72 -10.5 110c0 13.333 0.833008 30 2.5 50s4 41.833 7 65.5s6.33301 48 10 73s7.83398 48.833 12.501 71.5
l162 -14.5l162 -14.5c-6.66699 -35.333 -11.334 -68.5 -14.001 -99.5s-4 -55.167 -4 -72.5c0 -33.333 4.66699 -62 14 -86s27.166 -43.833 53.499 -59.5s62.833 -27.334 109.5 -35.001s107.334 -11.5 182.001 -11.5h599c42 0 72.667 10.333 92 31s29 49.667 29 87v477h362
v-517v-19.5c0 -6.33301 -0.333008 -12.833 -1 -19.5c32.667 -14.667 66.834 -24.834 102.501 -30.501s69.834 -8.5 102.501 -8.5h5c16 0 28.333 -2.16699 37 -6.5s15.334 -11 20.001 -20s7.5 -20.833 8.5 -35.5s1.5 -32 1.5 -52v-53c0 -26 -1.16699 -46.833 -3.5 -62.5
s-6 -27.5 -11 -35.5s-11.833 -13.333 -20.5 -16s-19.334 -4 -32.001 -4h-8c-46.667 0 -94.334 9 -143.001 27s-94 43.667 -136 77c-27.333 -32 -62.666 -57.333 -105.999 -76s-97.666 -28 -162.999 -28h-804zM578.997 1327c0 24 4.5 46.333 13.5 67
s21.167 38.834 36.5 54.501s33.333 28 54 37s42.667 13.5 66 13.5s45.166 -4.5 65.499 -13.5s38.166 -21.333 53.499 -37s27.5 -33.834 36.5 -54.501s13.5 -43 13.5 -67s-4.5 -46.333 -13.5 -67s-21.167 -38.667 -36.5 -54s-33.166 -27.5 -53.499 -36.5
s-42.166 -13.5 -65.499 -13.5s-45.333 4.5 -66 13.5s-38.667 21.167 -54 36.5s-27.5 33.333 -36.5 54s-13.5 43 -13.5 67zM989.997 1327c0 24 4.5 46.333 13.5 67s21.167 38.834 36.5 54.501s33.166 28 53.499 37s42.166 13.5 65.499 13.5s45.166 -4.5 65.499 -13.5
s38.166 -21.333 53.499 -37s27.5 -33.834 36.5 -54.501s13.5 -43 13.5 -67s-4.5 -46.333 -13.5 -67s-21.167 -38.667 -36.5 -54s-33.166 -27.5 -53.499 -36.5s-42.166 -13.5 -65.499 -13.5s-45.166 4.5 -65.499 13.5s-38.166 21.167 -53.499 36.5s-27.5 33.333 -36.5 54
s-13.5 43 -13.5 67z" />
    <glyph glyph-name="uniFE97" unicode="&#x62a;" horiz-adv-x="732" arabic-form="initial" 
d="M-2 0c-12.667 0 -23.334 1.33301 -32.001 4s-15.5 8 -20.5 16s-8.66699 19.833 -11 35.5s-3.5 36.5 -3.5 62.5v53c0 20 0.5 37.333 1.5 52s3.83301 26.5 8.5 35.5s11.334 15.667 20.001 20s21 6.5 37 6.5h221v595h362v-880h-583zM45 1327c0 24 4.5 46.333 13.5 67
s21.167 38.834 36.5 54.501s33.333 28 54 37s42.667 13.5 66 13.5s45.166 -4.5 65.499 -13.5s38.166 -21.333 53.499 -37s27.5 -33.834 36.5 -54.501s13.5 -43 13.5 -67s-4.5 -46.333 -13.5 -67s-21.167 -38.667 -36.5 -54s-33.166 -27.5 -53.499 -36.5
s-42.166 -13.5 -65.499 -13.5s-45.333 4.5 -66 13.5s-38.667 21.167 -54 36.5s-27.5 33.333 -36.5 54s-13.5 43 -13.5 67zM456 1327c0 24 4.5 46.333 13.5 67s21.167 38.834 36.5 54.501s33.166 28 53.499 37s42.166 13.5 65.499 13.5s45.166 -4.5 65.499 -13.5
s38.166 -21.333 53.499 -37s27.5 -33.834 36.5 -54.501s13.5 -43 13.5 -67s-4.5 -46.333 -13.5 -67s-21.167 -38.667 -36.5 -54s-33.166 -27.5 -53.499 -36.5s-42.166 -13.5 -65.499 -13.5s-45.166 4.5 -65.499 13.5s-38.166 21.167 -53.499 36.5s-27.5 33.333 -36.5 54
s-13.5 43 -13.5 67z" />
    <glyph glyph-name="uniFE98" unicode="&#x62a;" horiz-adv-x="817" arabic-form="medial" 
d="M577 363l0.000976562 -11.999c0 -4 -0.333008 -7.66699 -1 -11c36 -20.667 74.833 -35 116.5 -43s81.5 -12 119.5 -12h5c16 0 28.333 -2.16699 37 -6.5s15.334 -11 20.001 -20s7.5 -20.833 8.5 -35.5s1.5 -32 1.5 -52v-53c0 -26 -1.16699 -46.833 -3.5 -62.5
s-6 -27.5 -11 -35.5s-11.833 -13.333 -20.5 -16s-19.334 -4 -32.001 -4h-8c-50.667 0 -102.334 10.667 -155.001 32s-101 51.333 -145 90c-26.667 -36.667 -62.5 -66.167 -107.5 -88.5s-102.167 -33.5 -171.5 -33.5h-232c-12.667 0 -23.334 1.33301 -32.001 4
s-15.5 8 -20.5 16s-8.66699 19.833 -11 35.5s-3.5 36.5 -3.5 62.5v53c0 20 0.5 37.333 1.5 52s3.83301 26.5 8.5 35.5s11.334 15.667 20.001 20s21 6.5 37 6.5h140c28 0 47.833 6.66699 59.5 20s17.5 38.666 17.5 75.999v499h362v-517zM-8.99902 1327
c0 24 4.5 46.333 13.5 67s21.167 38.834 36.5 54.501s33.333 28 54 37s42.667 13.5 66 13.5s45.166 -4.5 65.499 -13.5s38.166 -21.333 53.499 -37s27.5 -33.834 36.5 -54.501s13.5 -43 13.5 -67s-4.5 -46.333 -13.5 -67s-21.167 -38.667 -36.5 -54
s-33.166 -27.5 -53.499 -36.5s-42.166 -13.5 -65.499 -13.5s-45.333 4.5 -66 13.5s-38.667 21.167 -54 36.5s-27.5 33.333 -36.5 54s-13.5 43 -13.5 67zM402.001 1327c0 24 4.5 46.333 13.5 67s21.167 38.834 36.5 54.501s33.166 28 53.499 37s42.166 13.5 65.499 13.5
s45.166 -4.5 65.499 -13.5s38.166 -21.333 53.499 -37s27.5 -33.834 36.5 -54.501s13.5 -43 13.5 -67s-4.5 -46.333 -13.5 -67s-21.167 -38.667 -36.5 -54s-33.166 -27.5 -53.499 -36.5s-42.166 -13.5 -65.499 -13.5s-45.166 4.5 -65.499 13.5s-38.166 21.167 -53.499 36.5
s-27.5 33.333 -36.5 54s-13.5 43 -13.5 67z" />
    <glyph glyph-name="uniFE9A" unicode="&#x62b;" horiz-adv-x="1988" arabic-form="final" 
d="M628 0c-86.667 0 -162.503 5.00195 -227.503 15.002s-120.833 24.167 -167.5 42.5s-85 40.333 -115 66s-53.667 54 -71 85s-29.5 64.167 -36.5 99.5s-10.5 72 -10.5 110c0 13.333 0.833008 30 2.5 50s4 41.833 7 65.5s6.33301 48 10 73s7.83398 48.833 12.501 71.5
l162 -14.5l162 -14.5c-6.66699 -35.333 -11.334 -68.5 -14.001 -99.5s-4 -55.167 -4 -72.5c0 -33.333 4.66699 -62 14 -86s27.166 -43.833 53.499 -59.5s62.833 -27.334 109.5 -35.001s107.334 -11.5 182.001 -11.5h599c42 0 72.667 10.333 92 31s29 49.667 29 87v477h362
v-517v-19.5c0 -6.33301 -0.333008 -12.833 -1 -19.5c32.667 -14.667 66.834 -24.834 102.501 -30.501s69.834 -8.5 102.501 -8.5h5c16 0 28.333 -2.16699 37 -6.5s15.334 -11 20.001 -20s7.5 -20.833 8.5 -35.5s1.5 -32 1.5 -52v-53c0 -26 -1.16699 -46.833 -3.5 -62.5
s-6 -27.5 -11 -35.5s-11.833 -13.333 -20.5 -16s-19.334 -4 -32.001 -4h-8c-46.667 0 -94.334 9 -143.001 27s-94 43.667 -136 77c-27.333 -32 -62.666 -57.333 -105.999 -76s-97.666 -28 -162.999 -28h-804zM526.997 1327c0 24 4.5 46.333 13.5 67
s21.167 38.834 36.5 54.501s33.333 28 54 37s42.667 13.5 66 13.5s45.166 -4.5 65.499 -13.5s38.166 -21.333 53.499 -37s27.5 -33.834 36.5 -54.501s13.5 -43 13.5 -67s-4.5 -46.333 -13.5 -67s-21.167 -38.667 -36.5 -54s-33.166 -27.5 -53.499 -36.5
s-42.166 -13.5 -65.499 -13.5s-45.333 4.5 -66 13.5s-38.667 21.167 -54 36.5s-27.5 33.333 -36.5 54s-13.5 43 -13.5 67zM937.997 1327c0 24 4.5 46.333 13.5 67s21.167 38.834 36.5 54.501s33.166 28 53.499 37s42.166 13.5 65.499 13.5s45.166 -4.5 65.499 -13.5
s38.166 -21.333 53.499 -37s27.5 -33.834 36.5 -54.501s13.5 -43 13.5 -67s-4.5 -46.333 -13.5 -67s-21.167 -38.667 -36.5 -54s-33.166 -27.5 -53.499 -36.5s-42.166 -13.5 -65.499 -13.5s-45.166 4.5 -65.499 13.5s-38.166 21.167 -53.499 36.5s-27.5 33.333 -36.5 54
s-13.5 43 -13.5 67zM730.997 1713c0 24 4.5 46.333 13.5 67s21.167 38.834 36.5 54.501s33.166 28 53.499 37s42.166 13.5 65.499 13.5s45.166 -4.5 65.499 -13.5s38.166 -21.333 53.499 -37s27.5 -33.834 36.5 -54.501s13.5 -43 13.5 -67s-4.5 -46.333 -13.5 -67
s-21.167 -38.667 -36.5 -54s-33.166 -27.5 -53.499 -36.5s-42.166 -13.5 -65.499 -13.5s-45.166 4.5 -65.499 13.5s-38.166 21.167 -53.499 36.5s-27.5 33.333 -36.5 54s-13.5 43 -13.5 67z" />
    <glyph glyph-name="uniFE9B" unicode="&#x62b;" horiz-adv-x="732" arabic-form="initial" 
d="M-2 0c-12.667 0 -23.334 1.33301 -32.001 4s-15.5 8 -20.5 16s-8.66699 19.833 -11 35.5s-3.5 36.5 -3.5 62.5v53c0 20 0.5 37.333 1.5 52s3.83301 26.5 8.5 35.5s11.334 15.667 20.001 20s21 6.5 37 6.5h221v595h362v-880h-583zM42 1327c0 24 4.5 46.333 13.5 67
s21.167 38.834 36.5 54.501s33.333 28 54 37s42.667 13.5 66 13.5s45.166 -4.5 65.499 -13.5s38.166 -21.333 53.499 -37s27.5 -33.834 36.5 -54.501s13.5 -43 13.5 -67s-4.5 -46.333 -13.5 -67s-21.167 -38.667 -36.5 -54s-33.166 -27.5 -53.499 -36.5
s-42.166 -13.5 -65.499 -13.5s-45.333 4.5 -66 13.5s-38.667 21.167 -54 36.5s-27.5 33.333 -36.5 54s-13.5 43 -13.5 67zM453 1327c0 24 4.5 46.333 13.5 67s21.167 38.834 36.5 54.501s33.166 28 53.499 37s42.166 13.5 65.499 13.5s45.166 -4.5 65.499 -13.5
s38.166 -21.333 53.499 -37s27.5 -33.834 36.5 -54.501s13.5 -43 13.5 -67s-4.5 -46.333 -13.5 -67s-21.167 -38.667 -36.5 -54s-33.166 -27.5 -53.499 -36.5s-42.166 -13.5 -65.499 -13.5s-45.166 4.5 -65.499 13.5s-38.166 21.167 -53.499 36.5s-27.5 33.333 -36.5 54
s-13.5 43 -13.5 67zM246 1713c0 24 4.5 46.333 13.5 67s21.167 38.834 36.5 54.501s33.166 28 53.499 37s42.166 13.5 65.499 13.5s45.166 -4.5 65.499 -13.5s38.166 -21.333 53.499 -37s27.5 -33.834 36.5 -54.501s13.5 -43 13.5 -67s-4.5 -46.333 -13.5 -67
s-21.167 -38.667 -36.5 -54s-33.166 -27.5 -53.499 -36.5s-42.166 -13.5 -65.499 -13.5s-45.166 4.5 -65.499 13.5s-38.166 21.167 -53.499 36.5s-27.5 33.333 -36.5 54s-13.5 43 -13.5 67z" />
    <glyph glyph-name="uniFE9C" unicode="&#x62b;" horiz-adv-x="817" arabic-form="medial" 
d="M577 363l0.000976562 -11.999c0 -4 -0.333008 -7.66699 -1 -11c36 -20.667 74.833 -35 116.5 -43s81.5 -12 119.5 -12h5c16 0 28.333 -2.16699 37 -6.5s15.334 -11 20.001 -20s7.5 -20.833 8.5 -35.5s1.5 -32 1.5 -52v-53c0 -26 -1.16699 -46.833 -3.5 -62.5
s-6 -27.5 -11 -35.5s-11.833 -13.333 -20.5 -16s-19.334 -4 -32.001 -4h-8c-50.667 0 -102.334 10.667 -155.001 32s-101 51.333 -145 90c-26.667 -36.667 -62.5 -66.167 -107.5 -88.5s-102.167 -33.5 -171.5 -33.5h-232c-12.667 0 -23.334 1.33301 -32.001 4
s-15.5 8 -20.5 16s-8.66699 19.833 -11 35.5s-3.5 36.5 -3.5 62.5v53c0 20 0.5 37.333 1.5 52s3.83301 26.5 8.5 35.5s11.334 15.667 20.001 20s21 6.5 37 6.5h140c28 0 47.833 6.66699 59.5 20s17.5 38.666 17.5 75.999v499h362v-517zM-16.999 1327
c0 24 4.5 46.333 13.5 67s21.167 38.834 36.5 54.501s33.333 28 54 37s42.667 13.5 66 13.5s45.166 -4.5 65.499 -13.5s38.166 -21.333 53.499 -37s27.5 -33.834 36.5 -54.501s13.5 -43 13.5 -67s-4.5 -46.333 -13.5 -67s-21.167 -38.667 -36.5 -54
s-33.166 -27.5 -53.499 -36.5s-42.166 -13.5 -65.499 -13.5s-45.333 4.5 -66 13.5s-38.667 21.167 -54 36.5s-27.5 33.333 -36.5 54s-13.5 43 -13.5 67zM394.001 1327c0 24 4.5 46.333 13.5 67s21.167 38.834 36.5 54.501s33.166 28 53.499 37s42.166 13.5 65.499 13.5
s45.166 -4.5 65.499 -13.5s38.166 -21.333 53.499 -37s27.5 -33.834 36.5 -54.501s13.5 -43 13.5 -67s-4.5 -46.333 -13.5 -67s-21.167 -38.667 -36.5 -54s-33.166 -27.5 -53.499 -36.5s-42.166 -13.5 -65.499 -13.5s-45.166 4.5 -65.499 13.5s-38.166 21.167 -53.499 36.5
s-27.5 33.333 -36.5 54s-13.5 43 -13.5 67zM187.001 1713c0 24 4.5 46.333 13.5 67s21.167 38.834 36.5 54.501s33.166 28 53.499 37s42.166 13.5 65.499 13.5s45.166 -4.5 65.499 -13.5s38.166 -21.333 53.499 -37s27.5 -33.834 36.5 -54.501s13.5 -43 13.5 -67
s-4.5 -46.333 -13.5 -67s-21.167 -38.667 -36.5 -54s-33.166 -27.5 -53.499 -36.5s-42.166 -13.5 -65.499 -13.5s-45.166 4.5 -65.499 13.5s-38.166 21.167 -53.499 36.5s-27.5 33.333 -36.5 54s-13.5 43 -13.5 67z" />
    <glyph glyph-name="uniFE9E" unicode="&#x62c;" horiz-adv-x="1190" arabic-form="final" 
d="M1178 285c18 0 32.166 -2.16602 42.499 -6.49902s18.333 -11 24 -20s9.16699 -20.833 10.5 -35.5s2 -32 2 -52v-53c0 -26 -1.16699 -46.833 -3.5 -62.5s-6 -27.5 -11 -35.5s-11.833 -13.333 -20.5 -16s-19.334 -4 -32.001 -4h-607c-35.333 0 -67.5 -4.5 -96.5 -13.5
s-54 -22.833 -75 -41.5s-37.333 -41.834 -49 -69.501s-17.5 -59.834 -17.5 -96.501c0 -29.333 5.33301 -57.166 16 -83.499s27.5 -49.5 50.5 -69.5s52.333 -35.833 88 -47.5s78.5 -17.5 128.5 -17.5c9.33301 0 23.166 0.333008 41.499 1s39.5 2 63.5 4
s49.833 4.66699 77.5 8s55.5 7.66602 83.5 12.999v-273c-32 -7.33301 -61 -13.666 -87 -18.999s-50.5 -9.66602 -73.5 -12.999s-45.5 -6 -67.5 -8s-45 -3 -69 -3c-71.333 0 -135.666 6.83301 -192.999 20.5s-108.166 32.334 -152.499 56.001s-82.333 51.667 -114 84
s-57.667 67.166 -78 104.499s-35.333 76.166 -45 116.499s-14.5 80.833 -14.5 121.5c0 86 14.333 161 43 225s69.334 117.167 122.001 159.5s115.834 74 189.501 95s155.167 31.5 244.5 31.5h143c-7.33301 12.667 -12.833 27.667 -16.5 45l-10.5 51
c-6 34.667 -12.333 68 -19 100s-17.5 60.167 -32.5 84.5s-35.833 43.833 -62.5 58.5s-62.667 22 -108 22c-7.33301 0 -19.166 -0.5 -35.499 -1.5s-35.833 -2.83301 -58.5 -5.5s-48 -6.5 -76 -11.5s-57.333 -11.833 -88 -20.5v267c59.333 16 117.166 30.167 173.499 42.5
s115.166 18.5 176.499 18.5c64.667 0 122.834 -8.66699 174.501 -26s96.334 -42.166 134.001 -74.499s68 -71.333 91 -117s38.167 -96.834 45.5 -153.501c4 -32 9 -64.5 15 -97.5s14.167 -62.833 24.5 -89.5s24.166 -48.5 41.499 -65.5s39.666 -25.833 66.999 -26.5z
M532.37 -221.997c0 21.5039 4.05859 41.5146 12.1768 60.0312s19.0928 34.7939 32.9238 48.832c13.8301 14.0371 30.0654 25.0879 48.7061 33.1514c18.6416 8.06445 38.4854 12.0967 59.5312 12.0967s40.7393 -4.03223 59.0791 -12.0967
c18.3408 -8.06348 34.4258 -19.1143 48.2559 -33.1514c13.8301 -14.0381 24.6533 -30.3154 32.4707 -48.832s11.7266 -38.5273 11.7266 -60.0312s-3.90918 -41.5146 -11.7266 -60.0322s-18.6406 -34.6455 -32.4707 -48.3838s-29.915 -24.6396 -48.2559 -32.7041
c-18.3398 -8.06348 -38.0332 -12.0957 -59.0791 -12.0957s-40.8896 4.03223 -59.5312 12.0957c-18.6406 8.06445 -34.876 18.9658 -48.7061 32.7041c-13.8311 13.7383 -24.8057 29.8662 -32.9238 48.3838s-12.1768 38.5283 -12.1768 60.0322z" />
    <glyph glyph-name="uniFE9F" unicode="&#x62c;" horiz-adv-x="1162" arabic-form="initial" 
d="M636 285c-7.33301 12.667 -12.832 27.667 -16.499 45l-10.5 51c-6 34.667 -12.333 68 -19 100s-17.5 60.167 -32.5 84.5s-35.833 43.833 -62.5 58.5s-62.667 22 -108 22c-7.33301 0 -19.166 -0.5 -35.499 -1.5s-35.833 -2.83301 -58.5 -5.5s-48 -6.5 -76 -11.5
s-57.333 -11.833 -88 -20.5v267c59.333 16 117.166 30.167 173.499 42.5s115.166 18.5 176.499 18.5c64.667 0 122.834 -8.66699 174.501 -26s96.334 -42.166 134.001 -74.499s68 -71.333 91 -117s38.167 -96.834 45.5 -153.501c4 -32 9 -64.5 15 -97.5
s14.167 -62.833 24.5 -89.5s24.166 -48.5 41.499 -65.5s39.666 -25.833 66.999 -26.5v-285h-1075c-12.667 -0 -23.167 1.33301 -31.5 4s-15 8 -20 16s-8.66699 19.833 -11 35.5s-3.5 36.5 -3.5 62.5v53c0 20 0.5 37.333 1.5 52s3.66699 26.5 8 35.5s11 15.667 20 20
s21.167 6.5 36.5 6.5h639zM385.001 -375c0 24 4.5 46.333 13.5 67s21.167 38.834 36.5 54.501s33.333 28 54 37s42.667 13.5 66 13.5s45.166 -4.5 65.499 -13.5s38.166 -21.333 53.499 -37s27.333 -33.834 36 -54.501s13 -43 13 -67s-4.33301 -46.333 -13 -67
s-20.667 -38.667 -36 -54s-33.166 -27.5 -53.499 -36.5s-42.166 -13.5 -65.499 -13.5s-45.333 4.5 -66 13.5s-38.667 21.167 -54 36.5s-27.5 33.333 -36.5 54s-13.5 43 -13.5 67z" />
    <glyph glyph-name="uniFEA0" unicode="&#x62c;" horiz-adv-x="1084" arabic-form="medial" 
d="M638 285c-7.33301 12.667 -12.835 27.667 -16.502 45l-10.5 51c-6 34.667 -12.333 68 -19 100s-17.5 60.167 -32.5 84.5s-35.833 43.833 -62.5 58.5s-62.667 22 -108 22c-7.33301 0 -19.166 -0.5 -35.499 -1.5s-35.833 -2.83301 -58.5 -5.5s-48 -6.5 -76 -11.5
s-57.333 -11.833 -88 -20.5v267c59.333 16 117.166 30.167 173.499 42.5s115.166 18.5 176.499 18.5c64.667 0 122.834 -8.66699 174.501 -26s96.334 -42.166 134.001 -74.499s68 -71.333 91 -117s38.167 -96.834 45.5 -153.501c4 -32 9 -64.667 15 -98
s14.667 -63.333 26 -90s26.166 -48.5 44.499 -65.5s42.5 -25.5 72.5 -25.5c16 0 28.333 -2.16699 37 -6.5s15.334 -11 20.001 -20s7.5 -20.833 8.5 -35.5s1.5 -32 1.5 -52v-53c0 -26 -1.16699 -46.833 -3.5 -62.5s-6 -27.5 -11 -35.5s-11.833 -13.333 -20.5 -16
s-19.334 -4 -32.001 -4h-1086c-12.667 -0 -23.167 1.33301 -31.5 4s-15.166 8 -20.499 16s-9.16602 19.833 -11.499 35.5s-3.5 36.5 -3.5 62.5v53c0 20 0.5 37.333 1.5 52s3.83301 26.5 8.5 35.5s11.5 15.667 20.5 20s21.167 6.5 36.5 6.5h640zM340.998 -375
c0 24 4.5 46.333 13.5 67s21.167 38.834 36.5 54.501s33.333 28 54 37s42.667 13.5 66 13.5s45.166 -4.5 65.499 -13.5s38.166 -21.333 53.499 -37s27.333 -33.834 36 -54.501s13 -43 13 -67s-4.33301 -46.333 -13 -67s-20.667 -38.667 -36 -54s-33.166 -27.5 -53.499 -36.5
s-42.166 -13.5 -65.499 -13.5s-45.333 4.5 -66 13.5s-38.667 21.167 -54 36.5s-27.5 33.333 -36.5 54s-13.5 43 -13.5 67z" />
    <glyph glyph-name="uniFEA2" unicode="&#x62d;" horiz-adv-x="1190" arabic-form="final" 
d="M1178 285c18 0 32.166 -2.16602 42.499 -6.49902s18.333 -11 24 -20s9.16699 -20.833 10.5 -35.5s2 -32 2 -52v-53c0 -26 -1.16699 -46.833 -3.5 -62.5s-6 -27.5 -11 -35.5s-11.833 -13.333 -20.5 -16s-19.334 -4 -32.001 -4h-607c-35.333 0 -67.5 -4.5 -96.5 -13.5
s-54 -22.833 -75 -41.5s-37.333 -41.834 -49 -69.501s-17.5 -59.834 -17.5 -96.501c0 -29.333 5.33301 -57.166 16 -83.499s27.5 -49.5 50.5 -69.5s52.333 -35.833 88 -47.5s78.5 -17.5 128.5 -17.5c9.33301 0 23.166 0.333008 41.499 1s39.5 2 63.5 4
s49.833 4.66699 77.5 8s55.5 7.66602 83.5 12.999v-273c-32 -7.33301 -61 -13.666 -87 -18.999s-50.5 -9.66602 -73.5 -12.999s-45.5 -6 -67.5 -8s-45 -3 -69 -3c-71.333 0 -135.666 6.83301 -192.999 20.5s-108.166 32.334 -152.499 56.001s-82.333 51.667 -114 84
s-57.667 67.166 -78 104.499s-35.333 76.166 -45 116.499s-14.5 80.833 -14.5 121.5c0 86 14.333 161 43 225s69.334 117.167 122.001 159.5s115.834 74 189.501 95s155.167 31.5 244.5 31.5h143c-7.33301 12.667 -12.833 27.667 -16.5 45l-10.5 51
c-6 34.667 -12.333 68 -19 100s-17.5 60.167 -32.5 84.5s-35.833 43.833 -62.5 58.5s-62.667 22 -108 22c-7.33301 0 -19.166 -0.5 -35.499 -1.5s-35.833 -2.83301 -58.5 -5.5s-48 -6.5 -76 -11.5s-57.333 -11.833 -88 -20.5v267c59.333 16 117.166 30.167 173.499 42.5
s115.166 18.5 176.499 18.5c64.667 0 122.834 -8.66699 174.501 -26s96.334 -42.166 134.001 -74.499s68 -71.333 91 -117s38.167 -96.834 45.5 -153.501c4 -32 9 -64.5 15 -97.5s14.167 -62.833 24.5 -89.5s24.166 -48.5 41.499 -65.5s39.666 -25.833 66.999 -26.5z" />
    <glyph glyph-name="uniFEA3" unicode="&#x62d;" horiz-adv-x="1162" arabic-form="initial" 
d="M636 285c-7.33301 12.667 -12.832 27.667 -16.499 45l-10.5 51c-6 34.667 -12.333 68 -19 100s-17.5 60.167 -32.5 84.5s-35.833 43.833 -62.5 58.5s-62.667 22 -108 22c-7.33301 0 -19.166 -0.5 -35.499 -1.5s-35.833 -2.83301 -58.5 -5.5s-48 -6.5 -76 -11.5
s-57.333 -11.833 -88 -20.5v267c59.333 16 117.166 30.167 173.499 42.5s115.166 18.5 176.499 18.5c64.667 0 122.834 -8.66699 174.501 -26s96.334 -42.166 134.001 -74.499s68 -71.333 91 -117s38.167 -96.834 45.5 -153.501c4 -32 9 -64.5 15 -97.5
s14.167 -62.833 24.5 -89.5s24.166 -48.5 41.499 -65.5s39.666 -25.833 66.999 -26.5v-285h-1075c-12.667 -0 -23.167 1.33301 -31.5 4s-15 8 -20 16s-8.66699 19.833 -11 35.5s-3.5 36.5 -3.5 62.5v53c0 20 0.5 37.333 1.5 52s3.66699 26.5 8 35.5s11 15.667 20 20
s21.167 6.5 36.5 6.5h639z" />
    <glyph glyph-name="uniFEA4" unicode="&#x62d;" horiz-adv-x="1084" arabic-form="medial" 
d="M638 285c-7.33301 12.667 -12.835 27.667 -16.502 45l-10.5 51c-6 34.667 -12.333 68 -19 100s-17.5 60.167 -32.5 84.5s-35.833 43.833 -62.5 58.5s-62.667 22 -108 22c-7.33301 0 -19.166 -0.5 -35.499 -1.5s-35.833 -2.83301 -58.5 -5.5s-48 -6.5 -76 -11.5
s-57.333 -11.833 -88 -20.5v267c59.333 16 117.166 30.167 173.499 42.5s115.166 18.5 176.499 18.5c64.667 0 122.834 -8.66699 174.501 -26s96.334 -42.166 134.001 -74.499s68 -71.333 91 -117s38.167 -96.834 45.5 -153.501c4 -32 9 -64.667 15 -98
s14.667 -63.333 26 -90s26.166 -48.5 44.499 -65.5s42.5 -25.5 72.5 -25.5c16 0 28.333 -2.16699 37 -6.5s15.334 -11 20.001 -20s7.5 -20.833 8.5 -35.5s1.5 -32 1.5 -52v-53c0 -26 -1.16699 -46.833 -3.5 -62.5s-6 -27.5 -11 -35.5s-11.833 -13.333 -20.5 -16
s-19.334 -4 -32.001 -4h-1086c-12.667 -0 -23.167 1.33301 -31.5 4s-15.166 8 -20.499 16s-9.16602 19.833 -11.499 35.5s-3.5 36.5 -3.5 62.5v53c0 20 0.5 37.333 1.5 52s3.83301 26.5 8.5 35.5s11.5 15.667 20.5 20s21.167 6.5 36.5 6.5h640z" />
    <glyph glyph-name="uniFEA6" unicode="&#x62e;" horiz-adv-x="1138" arabic-form="final" 
d="M1127 285c18 0 32.166 -2.16602 42.499 -6.49902s18.333 -11 24 -20s9.16699 -20.833 10.5 -35.5s2 -32 2 -52v-53c0 -26 -1.16699 -46.833 -3.5 -62.5s-6 -27.5 -11 -35.5s-11.833 -13.333 -20.5 -16s-19.334 -4 -32.001 -4h-607c-35.333 0 -67.5 -4.5 -96.5 -13.5
s-54 -22.833 -75 -41.5s-37.333 -41.834 -49 -69.501s-17.5 -59.834 -17.5 -96.501c0 -29.333 5.33301 -57.166 16 -83.499s27.5 -49.5 50.5 -69.5s52.333 -35.833 88 -47.5s78.5 -17.5 128.5 -17.5c9.33301 0 23.166 0.333008 41.499 1s39.5 2 63.5 4
s49.833 4.66699 77.5 8s55.5 7.66602 83.5 12.999v-273c-32 -7.33301 -61 -13.666 -87 -18.999s-50.5 -9.66602 -73.5 -12.999s-45.5 -6 -67.5 -8s-45 -3 -69 -3c-71.333 0 -135.666 6.83301 -192.999 20.5s-108.166 32.334 -152.499 56.001s-82.333 51.667 -114 84
s-57.667 67.166 -78 104.499s-35.333 76.166 -45 116.499s-14.5 80.833 -14.5 121.5c0 86 14.333 161 43 225s69.334 117.167 122.001 159.5s115.834 74 189.501 95s155.167 31.5 244.5 31.5h143c-7.33301 12.667 -12.833 27.667 -16.5 45l-10.5 51
c-6 34.667 -12.333 68 -19 100s-17.5 60.167 -32.5 84.5s-35.833 43.833 -62.5 58.5s-62.667 22 -108 22c-7.33301 0 -19.166 -0.5 -35.499 -1.5s-35.833 -2.83301 -58.5 -5.5s-48 -6.5 -76 -11.5s-57.333 -11.833 -88 -20.5v267c59.333 16 117.166 30.167 173.499 42.5
s115.166 18.5 176.499 18.5c64.667 0 122.834 -8.66699 174.501 -26s96.334 -42.166 134.001 -74.499s68 -71.333 91 -117s38.167 -96.834 45.5 -153.501c4 -32 9 -64.5 15 -97.5s14.167 -62.833 24.5 -89.5s24.166 -48.5 41.499 -65.5s39.666 -25.833 66.999 -26.5z
M399.999 1327c0 24 4.5 46.333 13.5 67s21.167 38.834 36.5 54.501s33.333 28 54 37s42.667 13.5 66 13.5s45.166 -4.5 65.499 -13.5s38.166 -21.333 53.499 -37s27.5 -33.834 36.5 -54.501s13.5 -43 13.5 -67s-4.5 -46.333 -13.5 -67s-21.167 -38.667 -36.5 -54
s-33.166 -27.5 -53.499 -36.5s-42.166 -13.5 -65.499 -13.5s-45.333 4.5 -66 13.5s-38.667 21.167 -54 36.5s-27.5 33.333 -36.5 54s-13.5 43 -13.5 67z" />
    <glyph glyph-name="uniFEA7" unicode="&#x62e;" horiz-adv-x="1162" arabic-form="initial" 
d="M636 285c-7.33301 12.667 -12.832 27.667 -16.499 45l-10.5 51c-6 34.667 -12.333 68 -19 100s-17.5 60.167 -32.5 84.5s-35.833 43.833 -62.5 58.5s-62.667 22 -108 22c-7.33301 0 -19.166 -0.5 -35.499 -1.5s-35.833 -2.83301 -58.5 -5.5s-48 -6.5 -76 -11.5
s-57.333 -11.833 -88 -20.5v267c59.333 16 117.166 30.167 173.499 42.5s115.166 18.5 176.499 18.5c64.667 0 122.834 -8.66699 174.501 -26s96.334 -42.166 134.001 -74.499s68 -71.333 91 -117s38.167 -96.834 45.5 -153.501c4 -32 9 -64.5 15 -97.5
s14.167 -62.833 24.5 -89.5s24.166 -48.5 41.499 -65.5s39.666 -25.833 66.999 -26.5v-285h-1075c-12.667 -0 -23.167 1.33301 -31.5 4s-15 8 -20 16s-8.66699 19.833 -11 35.5s-3.5 36.5 -3.5 62.5v53c0 20 0.5 37.333 1.5 52s3.66699 26.5 8 35.5s11 15.667 20 20
s21.167 6.5 36.5 6.5h639zM291.001 1327c0 24 4.5 46.333 13.5 67s21.167 38.834 36.5 54.501s33.333 28 54 37s42.667 13.5 66 13.5s45.166 -4.5 65.499 -13.5s38.166 -21.333 53.499 -37s27.5 -33.834 36.5 -54.501s13.5 -43 13.5 -67s-4.5 -46.333 -13.5 -67
s-21.167 -38.667 -36.5 -54s-33.166 -27.5 -53.499 -36.5s-42.166 -13.5 -65.499 -13.5s-45.333 4.5 -66 13.5s-38.667 21.167 -54 36.5s-27.5 33.333 -36.5 54s-13.5 43 -13.5 67z" />
    <glyph glyph-name="uniFEA8" unicode="&#x62e;" horiz-adv-x="1084" arabic-form="medial" 
d="M638 285c-7.33301 12.667 -12.835 27.667 -16.502 45l-10.5 51c-6 34.667 -12.333 68 -19 100s-17.5 60.167 -32.5 84.5s-35.833 43.833 -62.5 58.5s-62.667 22 -108 22c-7.33301 0 -19.166 -0.5 -35.499 -1.5s-35.833 -2.83301 -58.5 -5.5s-48 -6.5 -76 -11.5
s-57.333 -11.833 -88 -20.5v267c59.333 16 117.166 30.167 173.499 42.5s115.166 18.5 176.499 18.5c64.667 0 122.834 -8.66699 174.501 -26s96.334 -42.166 134.001 -74.499s68 -71.333 91 -117s38.167 -96.834 45.5 -153.501c4 -32 9 -64.667 15 -98
s14.667 -63.333 26 -90s26.166 -48.5 44.499 -65.5s42.5 -25.5 72.5 -25.5c16 0 28.333 -2.16699 37 -6.5s15.334 -11 20.001 -20s7.5 -20.833 8.5 -35.5s1.5 -32 1.5 -52v-53c0 -26 -1.16699 -46.833 -3.5 -62.5s-6 -27.5 -11 -35.5s-11.833 -13.333 -20.5 -16
s-19.334 -4 -32.001 -4h-1086c-12.667 -0 -23.167 1.33301 -31.5 4s-15.166 8 -20.499 16s-9.16602 19.833 -11.499 35.5s-3.5 36.5 -3.5 62.5v53c0 20 0.5 37.333 1.5 52s3.83301 26.5 8.5 35.5s11.5 15.667 20.5 20s21.167 6.5 36.5 6.5h640zM290.998 1327
c0 24 4.5 46.333 13.5 67s21.167 38.834 36.5 54.501s33.333 28 54 37s42.667 13.5 66 13.5s45.166 -4.5 65.499 -13.5s38.166 -21.333 53.499 -37s27.5 -33.834 36.5 -54.501s13.5 -43 13.5 -67s-4.5 -46.333 -13.5 -67s-21.167 -38.667 -36.5 -54
s-33.166 -27.5 -53.499 -36.5s-42.166 -13.5 -65.499 -13.5s-45.333 4.5 -66 13.5s-38.667 21.167 -54 36.5s-27.5 33.333 -36.5 54s-13.5 43 -13.5 67z" />
    <glyph glyph-name="uniFEAA" unicode="&#x62f;" horiz-adv-x="1168" arabic-form="final" 
d="M42 0l0.000976562 284.998h413c30.667 0 56 3.33301 76 10s35.833 15.334 47.5 26.001s19.667 22.5 24 35.5s6.5 26.167 6.5 39.5c0 22 -10.5 48.667 -31.5 80s-48.5 65 -82.5 101s-72.5 72.667 -115.5 110s-86.5 72.666 -130.5 105.999l250 245
c68 -57.333 129 -114 183 -170s99.833 -110.667 137.5 -164s66.667 -105.333 87 -156s30.5 -99.334 30.5 -146.001c0 -11.333 -0.333008 -22.333 -1 -33s-1.66699 -21.667 -3 -33c35.333 -19.333 73.166 -32.666 113.499 -39.999s78.833 -11 115.5 -11h5
c16 0 28.333 -2.16699 37 -6.5s15.334 -11 20.001 -20s7.5 -20.833 8.5 -35.5s1.5 -32 1.5 -52v-53c0 -26 -1.16699 -46.833 -3.5 -62.5s-6 -27.5 -11 -35.5s-11.833 -13.333 -20.5 -16s-19.334 -4 -32.001 -4h-8c-54 0 -108.667 11.833 -164 35.5
s-105.333 56.834 -150 99.501c-38 -41.333 -88.833 -74.166 -152.5 -98.499s-144.5 -36.5 -242.5 -36.5h-408z" />
    <glyph glyph-name="uniFEAC" unicode="&#x630;" horiz-adv-x="1168" arabic-form="final" 
d="M42 0l0.000976562 284.998h413c30.667 0 56 3.33301 76 10s35.833 15.334 47.5 26.001s19.667 22.5 24 35.5s6.5 26.167 6.5 39.5c0 22 -10.5 48.667 -31.5 80s-48.5 65 -82.5 101s-72.5 72.667 -115.5 110s-86.5 72.666 -130.5 105.999l250 245
c68 -57.333 129 -114 183 -170s99.833 -110.667 137.5 -164s66.667 -105.333 87 -156s30.5 -99.334 30.5 -146.001c0 -11.333 -0.333008 -22.333 -1 -33s-1.66699 -21.667 -3 -33c35.333 -19.333 73.166 -32.666 113.499 -39.999s78.833 -11 115.5 -11h5
c16 0 28.333 -2.16699 37 -6.5s15.334 -11 20.001 -20s7.5 -20.833 8.5 -35.5s1.5 -32 1.5 -52v-53c0 -26 -1.16699 -46.833 -3.5 -62.5s-6 -27.5 -11 -35.5s-11.833 -13.333 -20.5 -16s-19.334 -4 -32.001 -4h-8c-54 0 -108.667 11.833 -164 35.5
s-105.333 56.834 -150 99.501c-38 -41.333 -88.833 -74.166 -152.5 -98.499s-144.5 -36.5 -242.5 -36.5h-408zM255.001 1327c0 24 4.5 46.333 13.5 67s21.167 38.834 36.5 54.501s33.333 28 54 37s42.667 13.5 66 13.5s45.166 -4.5 65.499 -13.5s38.166 -21.333 53.499 -37
s27.5 -33.834 36.5 -54.501s13.5 -43 13.5 -67s-4.5 -46.333 -13.5 -67s-21.167 -38.667 -36.5 -54s-33.166 -27.5 -53.499 -36.5s-42.166 -13.5 -65.499 -13.5s-45.333 4.5 -66 13.5s-38.667 21.167 -54 36.5s-27.5 33.333 -36.5 54s-13.5 43 -13.5 67z" />
    <glyph glyph-name="uniFEAE" unicode="&#x631;" horiz-adv-x="815" arabic-form="final" 
d="M-6 -156c58.667 12 104.167 28.499 136.5 49.499s56.333 45.5 72 73.5s25.167 59.167 28.5 93.5s5 70.833 5 109.5v710h361v-595h218c16 0 28.333 -2.16699 37 -6.5s15.334 -11 20.001 -20s7.5 -20.833 8.5 -35.5s1.5 -32 1.5 -52v-53c0 -26 -1.16699 -46.833 -3.5 -62.5
s-6 -27.5 -11 -35.5s-11.833 -13.333 -20.5 -16s-19.334 -4 -32.001 -4h-237c-12 -63.333 -30.833 -120.166 -56.5 -170.499s-60 -94.5 -103 -132.5s-95.333 -70 -157 -96s-134.5 -45.667 -218.5 -59z" />
    <glyph glyph-name="uniFEB0" unicode="&#x632;" horiz-adv-x="815" arabic-form="final" 
d="M-6 -156c58.667 12 104.167 28.499 136.5 49.499s56.333 45.5 72 73.5s25.167 59.167 28.5 93.5s5 70.833 5 109.5v710h361v-595h218c16 0 28.333 -2.16699 37 -6.5s15.334 -11 20.001 -20s7.5 -20.833 8.5 -35.5s1.5 -32 1.5 -52v-53c0 -26 -1.16699 -46.833 -3.5 -62.5
s-6 -27.5 -11 -35.5s-11.833 -13.333 -20.5 -16s-19.334 -4 -32.001 -4h-237c-12 -63.333 -30.833 -120.166 -56.5 -170.499s-60 -94.5 -103 -132.5s-95.333 -70 -157 -96s-134.5 -45.667 -218.5 -59zM249 1327c0 24 4.5 46.333 13.5 67s21.167 38.834 36.5 54.501
s33.333 28 54 37s42.667 13.5 66 13.5s45.166 -4.5 65.499 -13.5s38.166 -21.333 53.499 -37s27.5 -33.834 36.5 -54.501s13.5 -43 13.5 -67s-4.5 -46.333 -13.5 -67s-21.167 -38.667 -36.5 -54s-33.166 -27.5 -53.499 -36.5s-42.166 -13.5 -65.499 -13.5
s-45.333 4.5 -66 13.5s-38.667 21.167 -54 36.5s-27.5 33.333 -36.5 54s-13.5 43 -13.5 67z" />
    <glyph glyph-name="uniFEB2" unicode="&#x633;" horiz-adv-x="2874" arabic-form="final" 
d="M2167 285c13.333 0 26.333 1.5 39 4.5s23.834 8.16699 33.5 15.5c9.66699 7.33301 17.5 17.166 23.5 29.499s9 27.833 9 46.5v499h362v-517v-12c0 -4 -0.333008 -7.66699 -1 -11c36 -20.667 74.833 -35 116.5 -43s81.5 -12 119.5 -12h5c16 0 28.333 -2.16699 37 -6.5
s15.334 -11 20 -20c4.66699 -9 7.5 -20.833 8.5 -35.5s1.5 -32 1.5 -52v-53c0 -26 -1.16699 -46.833 -3.5 -62.5s-6 -27.5 -11 -35.5s-11.833 -13.333 -20.5 -16s-19.334 -4 -32 -4h-8c-50.667 0 -102.334 10.667 -155 32c-52.667 21.333 -101 51.333 -145 90
c-26.667 -36.667 -62.5 -66.167 -107.5 -88.5s-102.167 -33.5 -171.5 -33.5c-44.667 0 -85.167 2.33301 -121.5 7s-69.5 11.167 -99.5 19.5s-57.667 18.333 -83 30s-49 24.834 -71 39.501c-27.333 -29.333 -61.833 -52.666 -103.5 -69.999s-92.834 -26 -153.501 -26
c-74 0 -136.5 5.83301 -187.5 17.5s-96.5 27.834 -136.5 48.501c-16.667 -73.333 -44 -140.5 -82 -201.5s-85.833 -113.333 -143.5 -157s-124.5 -77.667 -200.5 -102s-160 -36.5 -252 -36.5c-114.667 0 -213.167 16.333 -295.5 49s-150 76.334 -203 131.001
s-92 117.667 -117 189s-37.5 145.333 -37.5 222c0 34.667 3.16699 72 9.5 112s15.5 80.5 27.5 121.5s26.833 81.667 44.5 122s37.834 78.166 60.501 113.499l149 -79.5l149 -78.5c-28.667 -45.333 -51.334 -93.833 -68.001 -145.5s-25 -99.167 -25 -142.5
c0 -42.667 7 -82.167 21 -118.5s34.667 -67.833 62 -94.5s61.333 -47.667 102 -63s87.667 -23 141 -23c49.333 0 93.666 7.83301 132.999 23.5s72.666 38.5 99.999 68.5s48.333 66.833 63 110.5s22 93.5 22 149.5c0 17.333 -2.16699 40 -6.5 68s-10.666 58.5 -18.999 91.5
s-18.5 67.5 -30.5 103.5s-26 71 -42 105l351 94c10 -26.667 20 -55.334 30 -86.001s19.333 -62.167 28 -94.5s16.667 -64.833 24 -97.5s13 -64 17 -94c32 -12.667 64.167 -22.667 96.5 -30s63.833 -11 94.5 -11c14 0 27.333 1.5 40 4.5s23.834 8.16699 33.501 15.5
s17.334 17.166 23.001 29.499s8.5 27.833 8.5 46.5v392h362v-410c0 -7.33301 -0.166992 -14.833 -0.5 -22.5s-0.833008 -15.167 -1.5 -22.5c28 -10 56.167 -18 84.5 -24s56.166 -9 83.5 -9z" />
    <glyph glyph-name="uniFEB3" unicode="&#x633;" horiz-adv-x="2010" arabic-form="initial" 
d="M1498 285l0.000976562 594.998h362v-880h-347c-44.667 0 -85.167 2.33301 -121.5 7s-69.5 11.167 -99.5 19.5s-57.667 18.333 -83 30s-49 24.834 -71 39.501c-27.333 -29.333 -61.833 -52.666 -103.5 -69.999s-92.834 -26 -153.501 -26
c-47.333 0 -89.666 2.5 -126.999 7.5s-71.5 12 -102.5 21s-59.333 19.833 -85 32.5s-49.834 27 -72.501 43c-27.333 -32 -62.333 -57.333 -105 -76s-95.667 -28 -159 -28h-233c-12.667 -0 -23.167 1.33301 -31.5 4s-15 8 -20 16s-8.66699 19.833 -11 35.5
s-3.5 36.5 -3.5 62.5v53c0 20 0.5 37.333 1.5 52s3.66699 26.5 8 35.5s11 15.667 20 20s21.167 6.5 36.5 6.5h141c28 0 47.833 9 59.5 27s17.5 46 17.5 84v293h361v-326c0 -6.66699 -0.166992 -13.167 -0.5 -19.5s-0.833008 -12.833 -1.5 -19.5
c31.333 -11.333 62.666 -20.666 93.999 -27.999s62 -11 92 -11c14 0 27.333 1.5 40 4.5s23.834 8.16699 33.501 15.5s17.334 17.166 23.001 29.499s8.5 27.833 8.5 46.5v392h362v-410c0 -7.33301 -0.166992 -14.833 -0.5 -22.5s-0.833008 -15.167 -1.5 -22.5
c28 -10 56.167 -18 84.5 -24s56.166 -9 83.499 -9h105z" />
    <glyph glyph-name="uniFEB4" unicode="&#x633;" horiz-adv-x="2100" arabic-form="medial" 
d="M1393 285c14 0 27.335 1.50098 40.002 4.50098s23.834 8.16699 33.501 15.5s17.334 17.166 23.001 29.499s8.5 27.833 8.5 46.5v499h362v-517v-12c0 -4 -0.333008 -7.66699 -1 -11c36 -20.667 74.833 -35 116.5 -43s81.5 -12 119.5 -12h5c16 0 28.333 -2.16699 37 -6.5
s15.334 -11 20 -20c4.66699 -9 7.5 -20.833 8.5 -35.5s1.5 -32 1.5 -52v-53c0 -26 -1.16699 -46.833 -3.5 -62.5s-6 -27.5 -11 -35.5s-11.833 -13.333 -20.5 -16s-19.334 -4 -32.001 -4h-8c-50.667 0 -102.334 10.667 -155.001 32s-101 51.333 -145 90
c-26.667 -36.667 -62.5 -66.167 -107.5 -88.5s-102.167 -33.5 -171.5 -33.5c-44.667 -0 -85.167 2.33301 -121.5 7s-69.5 11.167 -99.5 19.5s-57.667 18.333 -83 30s-49 24.834 -71 39.501c-27.333 -29.333 -61.833 -52.666 -103.5 -69.999s-92.834 -26 -153.501 -26
c-46.667 0 -88.834 2.5 -126.501 7.5s-72 12 -103 21s-59.167 19.833 -84.5 32.5s-49.333 27 -72 43c-27.333 -32 -62.5 -57.333 -105.5 -76s-96.167 -28 -159.5 -28h-232c-12.667 0 -23.334 1.33301 -32.001 4s-15.5 8 -20.5 16s-8.66699 19.833 -11 35.5
s-3.5 36.5 -3.5 62.5v53c0 20 0.5 37.333 1.5 52s3.83301 26.5 8.5 35.5s11.334 15.667 20.001 20s21 6.5 37 6.5h140c28 0 47.833 6.66699 59.5 20s17.5 38.666 17.5 75.999v308h362v-326c0 -6.66699 -0.166992 -13.167 -0.5 -19.5s-0.833008 -12.833 -1.5 -19.5
c31.333 -12 62.5 -21.5 93.5 -28.5s61.5 -10.5 91.5 -10.5c14 0 27.333 1.5 40 4.5s23.834 8.16699 33.501 15.5s17.5 17.166 23.5 29.499s9 27.833 9 46.5v392h361v-410c0 -7.33301 -0.166992 -14.833 -0.5 -22.5s-0.833008 -15.167 -1.5 -22.5c28 -10 56.167 -18 84.5 -24
s56.166 -9 83.499 -9z" />
    <glyph glyph-name="uniFEB6" unicode="&#x634;" horiz-adv-x="2874" arabic-form="final" 
d="M2167 285c13.333 0 26.333 1.5 39 4.5s23.834 8.16699 33.5 15.5c9.66699 7.33301 17.5 17.166 23.5 29.499s9 27.833 9 46.5v499h362v-517v-12c0 -4 -0.333008 -7.66699 -1 -11c36 -20.667 74.833 -35 116.5 -43s81.5 -12 119.5 -12h5c16 0 28.333 -2.16699 37 -6.5
s15.334 -11 20 -20c4.66699 -9 7.5 -20.833 8.5 -35.5s1.5 -32 1.5 -52v-53c0 -26 -1.16699 -46.833 -3.5 -62.5s-6 -27.5 -11 -35.5s-11.833 -13.333 -20.5 -16s-19.334 -4 -32 -4h-8c-50.667 0 -102.334 10.667 -155 32c-52.667 21.333 -101 51.333 -145 90
c-26.667 -36.667 -62.5 -66.167 -107.5 -88.5s-102.167 -33.5 -171.5 -33.5c-44.667 0 -85.167 2.33301 -121.5 7s-69.5 11.167 -99.5 19.5s-57.667 18.333 -83 30s-49 24.834 -71 39.501c-27.333 -29.333 -61.833 -52.666 -103.5 -69.999s-92.834 -26 -153.501 -26
c-74 0 -136.5 5.83301 -187.5 17.5s-96.5 27.834 -136.5 48.501c-16.667 -73.333 -44 -140.5 -82 -201.5s-85.833 -113.333 -143.5 -157s-124.5 -77.667 -200.5 -102s-160 -36.5 -252 -36.5c-114.667 0 -213.167 16.333 -295.5 49s-150 76.334 -203 131.001
s-92 117.667 -117 189s-37.5 145.333 -37.5 222c0 34.667 3.16699 72 9.5 112s15.5 80.5 27.5 121.5s26.833 81.667 44.5 122s37.834 78.166 60.501 113.499l149 -79.5l149 -78.5c-28.667 -45.333 -51.334 -93.833 -68.001 -145.5s-25 -99.167 -25 -142.5
c0 -42.667 7 -82.167 21 -118.5s34.667 -67.833 62 -94.5s61.333 -47.667 102 -63s87.667 -23 141 -23c49.333 0 93.666 7.83301 132.999 23.5s72.666 38.5 99.999 68.5s48.333 66.833 63 110.5s22 93.5 22 149.5c0 17.333 -2.16699 40 -6.5 68s-10.666 58.5 -18.999 91.5
s-18.5 67.5 -30.5 103.5s-26 71 -42 105l351 94c10 -26.667 20 -55.334 30 -86.001s19.333 -62.167 28 -94.5s16.667 -64.833 24 -97.5s13 -64 17 -94c32 -12.667 64.167 -22.667 96.5 -30s63.833 -11 94.5 -11c14 0 27.333 1.5 40 4.5s23.834 8.16699 33.501 15.5
s17.334 17.166 23.001 29.499s8.5 27.833 8.5 46.5v392h362v-410c0 -7.33301 -0.166992 -14.833 -0.5 -22.5s-0.833008 -15.167 -1.5 -22.5c28 -10 56.167 -18 84.5 -24s56.166 -9 83.5 -9zM1427 1327c0 24 4.5 46.333 13.5 67s21.167 38.834 36.5 54.501s33.333 28 54 37
s42.667 13.5 66 13.5s45.166 -4.5 65.499 -13.5s38.166 -21.333 53.499 -37s27.5 -33.834 36.5 -54.501s13.5 -43 13.5 -67s-4.5 -46.333 -13.5 -67s-21.167 -38.667 -36.5 -54s-33.166 -27.5 -53.499 -36.5s-42.166 -13.5 -65.499 -13.5s-45.333 4.5 -66 13.5
s-38.667 21.167 -54 36.5s-27.5 33.333 -36.5 54s-13.5 43 -13.5 67zM1838 1327c0 24 4.49902 46.333 13.499 67s21.167 38.834 36.5 54.501s33.166 28 53.499 37s42.166 13.5 65.499 13.5s45.166 -4.5 65.499 -13.5s38.166 -21.333 53.5 -37
c15.333 -15.667 27.5 -33.834 36.5 -54.501s13.5 -43 13.5 -67s-4.5 -46.333 -13.5 -67s-21.167 -38.667 -36.5 -54s-33.166 -27.5 -53.499 -36.5s-42.166 -13.5 -65.499 -13.5s-45.166 4.5 -65.499 13.5s-38.166 21.167 -53.499 36.5s-27.5 33.333 -36.5 54
s-13.5 43 -13.5 67zM1631 1713c0 24 4.5 46.333 13.5 67s21.167 38.834 36.5 54.501s33.166 28 53.499 37s42.166 13.5 65.499 13.5s45.166 -4.5 65.499 -13.5s38.166 -21.333 53.499 -37s27.5 -33.834 36.5 -54.501s13.5 -43 13.5 -67s-4.5 -46.333 -13.5 -67
s-21.167 -38.667 -36.5 -54s-33.166 -27.5 -53.499 -36.5s-42.166 -13.5 -65.499 -13.5s-45.166 4.5 -65.499 13.5s-38.166 21.167 -53.499 36.5s-27.5 33.333 -36.5 54s-13.5 43 -13.5 67z" />
    <glyph glyph-name="uniFEB7" unicode="&#x634;" horiz-adv-x="2010" arabic-form="initial" 
d="M1498 285l0.000976562 594.998h362v-880h-347c-44.667 0 -85.167 2.33301 -121.5 7s-69.5 11.167 -99.5 19.5s-57.667 18.333 -83 30s-49 24.834 -71 39.501c-27.333 -29.333 -61.833 -52.666 -103.5 -69.999s-92.834 -26 -153.501 -26
c-47.333 0 -89.666 2.5 -126.999 7.5s-71.5 12 -102.5 21s-59.333 19.833 -85 32.5s-49.834 27 -72.501 43c-27.333 -32 -62.333 -57.333 -105 -76s-95.667 -28 -159 -28h-233c-12.667 -0 -23.167 1.33301 -31.5 4s-15 8 -20 16s-8.66699 19.833 -11 35.5
s-3.5 36.5 -3.5 62.5v53c0 20 0.5 37.333 1.5 52s3.66699 26.5 8 35.5s11 15.667 20 20s21.167 6.5 36.5 6.5h141c28 0 47.833 9 59.5 27s17.5 46 17.5 84v293h361v-326c0 -6.66699 -0.166992 -13.167 -0.5 -19.5s-0.833008 -12.833 -1.5 -19.5
c31.333 -11.333 62.666 -20.666 93.999 -27.999s62 -11 92 -11c14 0 27.333 1.5 40 4.5s23.834 8.16699 33.501 15.5s17.334 17.166 23.001 29.499s8.5 27.833 8.5 46.5v392h362v-410c0 -7.33301 -0.166992 -14.833 -0.5 -22.5s-0.833008 -15.167 -1.5 -22.5
c28 -10 56.167 -18 84.5 -24s56.166 -9 83.499 -9h105zM662.001 1327c0 24 4.5 46.333 13.5 67s21.167 38.834 36.5 54.501s33.333 28 54 37s42.667 13.5 66 13.5s45.166 -4.5 65.499 -13.5s38.166 -21.333 53.499 -37s27.5 -33.834 36.5 -54.501s13.5 -43 13.5 -67
s-4.5 -46.333 -13.5 -67s-21.167 -38.667 -36.5 -54s-33.166 -27.5 -53.499 -36.5s-42.166 -13.5 -65.499 -13.5s-45.333 4.5 -66 13.5s-38.667 21.167 -54 36.5s-27.5 33.333 -36.5 54s-13.5 43 -13.5 67zM1073 1327c0 24 4.5 46.333 13.5 67s21.167 38.834 36.5 54.501
s33.166 28 53.499 37s42.166 13.5 65.499 13.5s45.166 -4.5 65.499 -13.5s38.166 -21.333 53.499 -37s27.5 -33.834 36.5 -54.501s13.5 -43 13.5 -67s-4.5 -46.333 -13.5 -67s-21.167 -38.667 -36.5 -54s-33.166 -27.5 -53.499 -36.5s-42.166 -13.5 -65.499 -13.5
s-45.166 4.5 -65.499 13.5s-38.166 21.167 -53.499 36.5s-27.5 33.333 -36.5 54s-13.5 43 -13.5 67zM866.001 1713c0 24 4.5 46.333 13.5 67s21.167 38.834 36.5 54.501s33.166 28 53.499 37s42.166 13.5 65.499 13.5s45.166 -4.5 65.499 -13.5s38.166 -21.333 53.499 -37
s27.5 -33.834 36.5 -54.501s13.5 -43 13.5 -67s-4.5 -46.333 -13.5 -67s-21.167 -38.667 -36.5 -54s-33.166 -27.5 -53.499 -36.5s-42.166 -13.5 -65.499 -13.5s-45.166 4.5 -65.499 13.5s-38.166 21.167 -53.499 36.5s-27.5 33.333 -36.5 54s-13.5 43 -13.5 67z" />
    </font>
</defs>
</svg>
